ISO-10303-21;
HEADER;
FILE_DESCRIPTION(('Open CASCADE Model'),'2;1');
FILE_NAME('Open CASCADE Shape Model','2026-05-26T15:18:28',('Author'),(
    'Open CASCADE'),'Open CASCADE STEP processor 7.8','Open CASCADE 7.8'
  ,'Unknown');
FILE_SCHEMA(('AUTOMOTIVE_DESIGN { 1 0 10303 214 1 1 1 1 }'));
ENDSEC;
DATA;
#1 = APPLICATION_PROTOCOL_DEFINITION('international standard',
  'automotive_design',2000,#2);
#2 = APPLICATION_CONTEXT(
  'core data for automotive mechanical design processes');
#3 = SHAPE_DEFINITION_REPRESENTATION(#4,#10);
#4 = PRODUCT_DEFINITION_SHAPE('','',#5);
#5 = PRODUCT_DEFINITION('design','',#6,#9);
#6 = PRODUCT_DEFINITION_FORMATION('','',#7);
#7 = PRODUCT('Open CASCADE STEP translator 7.8 2',
  'Open CASCADE STEP translator 7.8 2','',(#8));
#8 = PRODUCT_CONTEXT('',#2,'mechanical');
#9 = PRODUCT_DEFINITION_CONTEXT('part definition',#2,'design');
#10 = ADVANCED_BREP_SHAPE_REPRESENTATION('',(#11,#15),#1369);
#11 = AXIS2_PLACEMENT_3D('',#12,#13,#14);
#12 = CARTESIAN_POINT('',(0.,0.,0.));
#13 = DIRECTION('',(0.,0.,1.));
#14 = DIRECTION('',(1.,0.,-0.));
#15 = MANIFOLD_SOLID_BREP('',#16);
#16 = CLOSED_SHELL('',(#17,#955,#959,#1012,#1018,#1053,#1332,#1336,#1363
    ));
#17 = ADVANCED_FACE('',(#18),#31,.T.);
#18 = FACE_BOUND('',#19,.F.);
#19 = EDGE_LOOP('',(#20,#54,#77,#211,#303,#326,#358,#396,#521,#544,#571,
    #572,#712,#737,#738,#954));
#20 = ORIENTED_EDGE('',*,*,#21,.F.);
#21 = EDGE_CURVE('',#22,#22,#24,.T.);
#22 = VERTEX_POINT('',#23);
#23 = CARTESIAN_POINT('',(32.,0.,0.));
#24 = SURFACE_CURVE('',#25,(#30,#42),.PCURVE_S1.);
#25 = CIRCLE('',#26,32.);
#26 = AXIS2_PLACEMENT_3D('',#27,#28,#29);
#27 = CARTESIAN_POINT('',(0.,0.,0.));
#28 = DIRECTION('',(0.,0.,1.));
#29 = DIRECTION('',(1.,0.,0.));
#30 = PCURVE('',#31,#36);
#31 = CYLINDRICAL_SURFACE('',#32,32.);
#32 = AXIS2_PLACEMENT_3D('',#33,#34,#35);
#33 = CARTESIAN_POINT('',(0.,0.,0.));
#34 = DIRECTION('',(-0.,-0.,-1.));
#35 = DIRECTION('',(1.,0.,0.));
#36 = DEFINITIONAL_REPRESENTATION('',(#37),#41);
#37 = LINE('',#38,#39);
#38 = CARTESIAN_POINT('',(-0.,0.));
#39 = VECTOR('',#40,1.);
#40 = DIRECTION('',(-1.,0.));
#41 = ( GEOMETRIC_REPRESENTATION_CONTEXT(2) 
PARAMETRIC_REPRESENTATION_CONTEXT() REPRESENTATION_CONTEXT('2D SPACE',''
  ) );
#42 = PCURVE('',#43,#48);
#43 = PLANE('',#44);
#44 = AXIS2_PLACEMENT_3D('',#45,#46,#47);
#45 = CARTESIAN_POINT('',(-2.051160198809E-15,2.796030478528E-15,0.));
#46 = DIRECTION('',(0.,0.,1.));
#47 = DIRECTION('',(1.,0.,-0.));
#48 = DEFINITIONAL_REPRESENTATION('',(#49),#53);
#49 = CIRCLE('',#50,32.);
#50 = AXIS2_PLACEMENT_2D('',#51,#52);
#51 = CARTESIAN_POINT('',(2.051160198809E-15,-2.796030478528E-15));
#52 = DIRECTION('',(1.,0.));
#53 = ( GEOMETRIC_REPRESENTATION_CONTEXT(2) 
PARAMETRIC_REPRESENTATION_CONTEXT() REPRESENTATION_CONTEXT('2D SPACE',''
  ) );
#54 = ORIENTED_EDGE('',*,*,#55,.T.);
#55 = EDGE_CURVE('',#22,#56,#58,.T.);
#56 = VERTEX_POINT('',#57);
#57 = CARTESIAN_POINT('',(32.,0.,10.875268241579));
#58 = SEAM_CURVE('',#59,(#63,#70),.PCURVE_S1.);
#59 = LINE('',#60,#61);
#60 = CARTESIAN_POINT('',(32.,0.,0.));
#61 = VECTOR('',#62,1.);
#62 = DIRECTION('',(0.,0.,1.));
#63 = PCURVE('',#31,#64);
#64 = DEFINITIONAL_REPRESENTATION('',(#65),#69);
#65 = LINE('',#66,#67);
#66 = CARTESIAN_POINT('',(-6.28318530718,0.));
#67 = VECTOR('',#68,1.);
#68 = DIRECTION('',(-0.,-1.));
#69 = ( GEOMETRIC_REPRESENTATION_CONTEXT(2) 
PARAMETRIC_REPRESENTATION_CONTEXT() REPRESENTATION_CONTEXT('2D SPACE',''
  ) );
#70 = PCURVE('',#31,#71);
#71 = DEFINITIONAL_REPRESENTATION('',(#72),#76);
#72 = LINE('',#73,#74);
#73 = CARTESIAN_POINT('',(-0.,0.));
#74 = VECTOR('',#75,1.);
#75 = DIRECTION('',(-0.,-1.));
#76 = ( GEOMETRIC_REPRESENTATION_CONTEXT(2) 
PARAMETRIC_REPRESENTATION_CONTEXT() REPRESENTATION_CONTEXT('2D SPACE',''
  ) );
#77 = ORIENTED_EDGE('',*,*,#78,.T.);
#78 = EDGE_CURVE('',#56,#79,#81,.T.);
#79 = VERTEX_POINT('',#80);
#80 = CARTESIAN_POINT('',(31.682013824882,4.5,15.366463794442));
#81 = SURFACE_CURVE('',#82,(#120,#161),.PCURVE_S1.);
#82 = B_SPLINE_CURVE_WITH_KNOTS('',8,(#83,#84,#85,#86,#87,#88,#89,#90,
    #91,#92,#93,#94,#95,#96,#97,#98,#99,#100,#101,#102,#103,#104,#105,
    #106,#107,#108,#109,#110,#111,#112,#113,#114,#115,#116,#117,#118,
    #119),.UNSPECIFIED.,.F.,.F.,(9,7,7,7,7,9),(0.,0.184261235846,
    0.300105189848,0.452337101114,0.917963059257,1.),.UNSPECIFIED.);
#83 = CARTESIAN_POINT('',(32.,-8.328990940634E-15,10.875268241579));
#84 = CARTESIAN_POINT('',(32.,0.196200237567,10.875268241579));
#85 = CARTESIAN_POINT('',(31.998625229488,0.392466386437,10.885212862105
    ));
#86 = CARTESIAN_POINT('',(31.995873908754,0.587503554538,10.905112378636
    ));
#87 = CARTESIAN_POINT('',(31.991795203055,0.780188358488,10.934730885492
    ));
#88 = CARTESIAN_POINT('',(31.986477776908,0.969551868828,10.973654803719
    ));
#89 = CARTESIAN_POINT('',(31.980038999207,1.154765704707,11.021345701617
    ));
#90 = CARTESIAN_POINT('',(31.97261479917,1.335131278018,11.077177427903)
  );
#91 = CARTESIAN_POINT('',(31.959154251393,1.620056506352,11.180241402384
    ));
#92 = CARTESIAN_POINT('',(31.953624268733,1.727935589134,11.222983647658
    ));
#93 = CARTESIAN_POINT('',(31.947794505569,1.833595987487,11.268527350047
    ));
#94 = CARTESIAN_POINT('',(31.941699518908,1.936949017322,11.316714705391
    ));
#95 = CARTESIAN_POINT('',(31.935373555713,2.037928171477,11.367389875574
    ));
#96 = CARTESIAN_POINT('',(31.928849966287,2.136486532885,11.42040181545)
  );
#97 = CARTESIAN_POINT('',(31.92216061765,2.232594187748,11.47560709976)
  );
#98 = CARTESIAN_POINT('',(31.906366085297,2.449290977904,11.608126218999
    ));
#99 = CARTESIAN_POINT('',(31.897162816338,2.568077368864,11.686931286716
    ));
#100 = CARTESIAN_POINT('',(31.887793091575,2.682570639269,
    11.768989647406));
#101 = CARTESIAN_POINT('',(31.878319826453,2.792770281959,
    11.854022655903));
#102 = CARTESIAN_POINT('',(31.868801070328,2.898696015635,11.94177344347
    ));
#103 = CARTESIAN_POINT('',(31.859289816459,3.000384345563,
    12.032009033584));
#104 = CARTESIAN_POINT('',(31.849833812002,3.097885124272,
    12.124522457735));
#105 = CARTESIAN_POINT('',(31.811851051243,3.476854519981,
    12.508522262535));
#106 = CARTESIAN_POINT('',(31.784196372648,3.723274345357,12.8169780419)
  );
#107 = CARTESIAN_POINT('',(31.758655061673,3.933151815353,
    13.139926052286));
#108 = CARTESIAN_POINT('',(31.736100747358,4.107747699344,
    13.473788225933));
#109 = CARTESIAN_POINT('',(31.717187873113,4.248244385747,13.815534997)
  );
#110 = CARTESIAN_POINT('',(31.702367346543,4.355404543723,
    14.162784165471));
#111 = CARTESIAN_POINT('',(31.691942463849,4.429730535188,
    14.513708563192));
#112 = CARTESIAN_POINT('',(31.685107856519,4.478168578215,
    14.929425968763));
#113 = CARTESIAN_POINT('',(31.684227576027,4.48439354235,14.991759395242
    ));
#114 = CARTESIAN_POINT('',(31.683491931569,4.489586552,15.054143707311)
  );
#115 = CARTESIAN_POINT('',(31.682901924583,4.493745993699,
    15.116568533386));
#116 = CARTESIAN_POINT('',(31.682458428644,4.496869802219,
    15.179023451833));
#117 = CARTESIAN_POINT('',(31.682162189462,4.498955460569,
    15.241497990979));
#118 = CARTESIAN_POINT('',(31.682013824882,4.5,15.303981629103));
#119 = CARTESIAN_POINT('',(31.682013824882,4.5,15.366463794442));
#120 = PCURVE('',#31,#121);
#121 = DEFINITIONAL_REPRESENTATION('',(#122),#160);
#122 = B_SPLINE_CURVE_WITH_KNOTS('',8,(#123,#124,#125,#126,#127,#128,
    #129,#130,#131,#132,#133,#134,#135,#136,#137,#138,#139,#140,#141,
    #142,#143,#144,#145,#146,#147,#148,#149,#150,#151,#152,#153,#154,
    #155,#156,#157,#158,#159),.UNSPECIFIED.,.F.,.F.,(9,7,7,7,7,9),(0.,
    0.184261235846,0.300105189848,0.452337101114,0.917963059257,1.),
  .UNSPECIFIED.);
#123 = CARTESIAN_POINT('',(0.,-10.87526824157));
#124 = CARTESIAN_POINT('',(-6.131257423962E-03,-10.87526824157));
#125 = CARTESIAN_POINT('',(-1.226457454087E-02,-10.8852128621));
#126 = CARTESIAN_POINT('',(-1.835983731146E-02,-10.90511237863));
#127 = CARTESIAN_POINT('',(-2.438229220781E-02,-10.93473088549));
#128 = CARTESIAN_POINT('',(-3.030196452438E-02,-10.97365480371));
#129 = CARTESIAN_POINT('',(-3.609319389889E-02,-11.02134570161));
#130 = CARTESIAN_POINT('',(-4.173428704309E-02,-11.0771774279));
#131 = CARTESIAN_POINT('',(-5.064813095955E-02,-11.18024140238));
#132 = CARTESIAN_POINT('',(-5.402375138104E-02,-11.22298364765));
#133 = CARTESIAN_POINT('',(-5.733061963194E-02,-11.26852735004));
#134 = CARTESIAN_POINT('',(-6.056596824294E-02,-11.31671470539));
#135 = CARTESIAN_POINT('',(-6.372771233132E-02,-11.36738987557));
#136 = CARTESIAN_POINT('',(-6.681437034097E-02,-11.42040181545));
#137 = CARTESIAN_POINT('',(-6.982498478245E-02,-11.47560709976));
#138 = CARTESIAN_POINT('',(-7.661472357328E-02,-11.60812621899));
#139 = CARTESIAN_POINT('',(-8.033788419297E-02,-11.68693128671));
#140 = CARTESIAN_POINT('',(-8.392770525402E-02,-11.7689896474));
#141 = CARTESIAN_POINT('',(-8.738409005081E-02,-11.8540226559));
#142 = CARTESIAN_POINT('',(-9.07075617445E-02,-11.94177344347));
#143 = CARTESIAN_POINT('',(-9.389916035749E-02,-12.03200903358));
#144 = CARTESIAN_POINT('',(-9.696033976789E-02,-12.12452245773));
#145 = CARTESIAN_POINT('',(-0.108862467212,-12.50852226253));
#146 = CARTESIAN_POINT('',(-0.11661088316,-12.81697804189));
#147 = CARTESIAN_POINT('',(-0.123217554195,-13.13992605228));
#148 = CARTESIAN_POINT('',(-0.128718815059,-13.47378822593));
#149 = CARTESIAN_POINT('',(-0.133148886425,-13.815534997));
#150 = CARTESIAN_POINT('',(-0.136529505189,-14.16278416547));
#151 = CARTESIAN_POINT('',(-0.138874927304,-14.51370856319));
#152 = CARTESIAN_POINT('',(-0.140403610059,-14.92942596876));
#153 = CARTESIAN_POINT('',(-0.140600075585,-14.99175939524));
#154 = CARTESIAN_POINT('',(-0.14076397735,-15.05414370731));
#155 = CARTESIAN_POINT('',(-0.140895261054,-15.11656853338));
#156 = CARTESIAN_POINT('',(-0.140993858974,-15.17902345183));
#157 = CARTESIAN_POINT('',(-0.141059689964,-15.24149799097));
#158 = CARTESIAN_POINT('',(-0.141092659456,-15.3039816291));
#159 = CARTESIAN_POINT('',(-0.141092659456,-15.36646379444));
#160 = ( GEOMETRIC_REPRESENTATION_CONTEXT(2) 
PARAMETRIC_REPRESENTATION_CONTEXT() REPRESENTATION_CONTEXT('2D SPACE',''
  ) );
#161 = PCURVE('',#162,#171);
#162 = SURFACE_OF_REVOLUTION('',#163,#168);
#163 = CIRCLE('',#164,4.5);
#164 = AXIS2_PLACEMENT_3D('',#165,#166,#167);
#165 = CARTESIAN_POINT('',(30.,0.,16.));
#166 = DIRECTION('',(1.,0.,0.));
#167 = DIRECTION('',(0.,1.,0.));
#168 = AXIS1_PLACEMENT('',#169,#170);
#169 = CARTESIAN_POINT('',(40.,0.,40.));
#170 = DIRECTION('',(0.,-1.,-0.));
#171 = DEFINITIONAL_REPRESENTATION('',(#172),#210);
#172 = B_SPLINE_CURVE_WITH_KNOTS('',8,(#173,#174,#175,#176,#177,#178,
    #179,#180,#181,#182,#183,#184,#185,#186,#187,#188,#189,#190,#191,
    #192,#193,#194,#195,#196,#197,#198,#199,#200,#201,#202,#203,#204,
    #205,#206,#207,#208,#209),.UNSPECIFIED.,.F.,.F.,(9,7,7,7,7,9),(0.,
    0.184261235846,0.300105189848,0.452337101114,0.917963059257,1.),
  .UNSPECIFIED.);
#173 = CARTESIAN_POINT('',(6.938678770548E-02,4.712388980385));
#174 = CARTESIAN_POINT('',(6.938678770548E-02,4.755989033177));
#175 = CARTESIAN_POINT('',(6.936285741967E-02,4.79960367091));
#176 = CARTESIAN_POINT('',(6.931496319833E-02,4.843071729737));
#177 = CARTESIAN_POINT('',(6.924415278536E-02,4.886269692632));
#178 = CARTESIAN_POINT('',(6.915234035179E-02,4.929099030871));
#179 = CARTESIAN_POINT('',(6.904208778461E-02,4.971477185525));
#180 = CARTESIAN_POINT('',(6.891638223079E-02,5.01333218898));
#181 = CARTESIAN_POINT('',(6.869166750251E-02,5.080546338733));
#182 = CARTESIAN_POINT('',(6.860004516679E-02,5.106269162468));
#183 = CARTESIAN_POINT('',(6.850430765735E-02,5.131761080345));
#184 = CARTESIAN_POINT('',(6.840523289112E-02,5.157016796571));
#185 = CARTESIAN_POINT('',(6.830359988132E-02,5.182033775493));
#186 = CARTESIAN_POINT('',(6.820017668464E-02,5.206811980193));
#187 = CARTESIAN_POINT('',(6.809570834852E-02,5.231353611091));
#188 = CARTESIAN_POINT('',(6.78531813512E-02,5.287607895983));
#189 = CARTESIAN_POINT('',(6.771489009956E-02,5.319149011305));
#190 = CARTESIAN_POINT('',(6.757764664735E-02,5.350298479692));
#191 = CARTESIAN_POINT('',(6.744298621253E-02,5.381069888829));
#192 = CARTESIAN_POINT('',(6.731236124091E-02,5.411478391762));
#193 = CARTESIAN_POINT('',(6.718713895995E-02,5.441540973762));
#194 = CARTESIAN_POINT('',(6.706859893262E-02,5.47127671919));
#195 = CARTESIAN_POINT('',(6.661943362496E-02,5.590724598814));
#196 = CARTESIAN_POINT('',(6.635526572537E-02,5.677708948451));
#197 = CARTESIAN_POINT('',(6.619835418076E-02,5.762503644878));
#198 = CARTESIAN_POINT('',(6.617735666602E-02,5.845583265025));
#199 = CARTESIAN_POINT('',(6.631715662038E-02,5.927388367739));
#200 = CARTESIAN_POINT('',(6.663897107734E-02,6.008315761188));
#201 = CARTESIAN_POINT('',(6.716138609598E-02,6.088804486376));
#202 = CARTESIAN_POINT('',(6.803398137679E-02,6.183628311615));
#203 = CARTESIAN_POINT('',(6.817146812124E-02,6.197832605609));
#204 = CARTESIAN_POINT('',(6.831582065122E-02,6.212039300514));
#205 = CARTESIAN_POINT('',(6.846712372594E-02,6.226250591039));
#206 = CARTESIAN_POINT('',(6.862545776831E-02,6.240468663426));
#207 = CARTESIAN_POINT('',(6.879089886488E-02,6.254695695449));
#208 = CARTESIAN_POINT('',(6.896351876591E-02,6.26893385642));
#209 = CARTESIAN_POINT('',(6.914338488532E-02,6.28318530718));
#210 = ( GEOMETRIC_REPRESENTATION_CONTEXT(2) 
PARAMETRIC_REPRESENTATION_CONTEXT() REPRESENTATION_CONTEXT('2D SPACE',''
  ) );
#211 = ORIENTED_EDGE('',*,*,#212,.T.);
#212 = EDGE_CURVE('',#79,#213,#215,.T.);
#213 = VERTEX_POINT('',#214);
#214 = CARTESIAN_POINT('',(32.,0.,19.597794236897));
#215 = SURFACE_CURVE('',#216,(#243,#273),.PCURVE_S1.);
#216 = B_SPLINE_CURVE_WITH_KNOTS('',7,(#217,#218,#219,#220,#221,#222,
    #223,#224,#225,#226,#227,#228,#229,#230,#231,#232,#233,#234,#235,
    #236,#237,#238,#239,#240,#241,#242),.UNSPECIFIED.,.F.,.F.,(8,6,6,6,8
    ),(0.,0.408189320953,0.5907286191,0.744821052905,1.),.UNSPECIFIED.);
#217 = CARTESIAN_POINT('',(31.682013824882,4.5,15.366463794442));
#218 = CARTESIAN_POINT('',(31.682013824882,4.5,15.710712407106));
#219 = CARTESIAN_POINT('',(31.686611194474,4.467633268904,
    16.054690896864));
#220 = CARTESIAN_POINT('',(31.695882016721,4.402358296627,
    16.396886128144));
#221 = CARTESIAN_POINT('',(31.709788628159,4.302964682679,
    16.735198767346));
#222 = CARTESIAN_POINT('',(31.728093392805,4.167943393962,
    17.066961190443));
#223 = CARTESIAN_POINT('',(31.750270783881,3.995704063798,17.38898112));
#224 = CARTESIAN_POINT('',(31.786714708292,3.689693262393,
    17.835379000308));
#225 = CARTESIAN_POINT('',(31.798571914916,3.587333938877,17.97054548238
    ));
#226 = CARTESIAN_POINT('',(31.810944293948,3.477031263913,
    18.102567804538));
#227 = CARTESIAN_POINT('',(31.823732209833,3.358664085208,
    18.231014057339));
#228 = CARTESIAN_POINT('',(31.836816811612,3.232149780332,
    18.355398406906));
#229 = CARTESIAN_POINT('',(31.850059847829,3.097460421007,
    18.475188522676));
#230 = CARTESIAN_POINT('',(31.874483231512,2.83407470694,18.686574445863
    ));
#231 = CARTESIAN_POINT('',(31.885662799231,2.707721636617,
    18.779649605611));
#232 = CARTESIAN_POINT('',(31.896747470886,2.575616197436,
    18.868689251829));
#233 = CARTESIAN_POINT('',(31.907631055464,2.437844480365,
    18.953315182963));
#234 = CARTESIAN_POINT('',(31.918199302895,2.294555388631,
    19.033131406491));
#235 = CARTESIAN_POINT('',(31.92833332231,2.145973829999,19.107735316953
    ));
#236 = CARTESIAN_POINT('',(31.953777063733,1.738116809779,
    19.290983044715));
#237 = CARTESIAN_POINT('',(31.968136909961,1.469918502521,
    19.389963988843));
#238 = CARTESIAN_POINT('',(31.980420846871,1.189581752807,
    19.471644592143));
#239 = CARTESIAN_POINT('',(31.990087771955,0.899366417471,19.53431191183
    ));
#240 = CARTESIAN_POINT('',(31.996698316283,0.602046841104,
    19.576648289698));
#241 = CARTESIAN_POINT('',(32.,0.300932723398,19.597794236896));
#242 = CARTESIAN_POINT('',(32.,-7.777899881018E-15,19.597794236897));
#243 = PCURVE('',#31,#244);
#244 = DEFINITIONAL_REPRESENTATION('',(#245),#272);
#245 = B_SPLINE_CURVE_WITH_KNOTS('',7,(#246,#247,#248,#249,#250,#251,
    #252,#253,#254,#255,#256,#257,#258,#259,#260,#261,#262,#263,#264,
    #265,#266,#267,#268,#269,#270,#271),.UNSPECIFIED.,.F.,.F.,(8,6,6,6,8
    ),(0.,0.408189320953,0.5907286191,0.744821052905,1.),.UNSPECIFIED.);
#246 = CARTESIAN_POINT('',(-0.141092659456,-15.36646379444));
#247 = CARTESIAN_POINT('',(-0.141092659456,-15.7107124071));
#248 = CARTESIAN_POINT('',(-0.140071046972,-16.05469089686));
#249 = CARTESIAN_POINT('',(-0.138010732186,-16.39688612814));
#250 = CARTESIAN_POINT('',(-0.134874436621,-16.73519876734));
#251 = CARTESIAN_POINT('',(-0.130616502618,-17.06696119044));
#252 = CARTESIAN_POINT('',(-0.125189834843,-17.38898112));
#253 = CARTESIAN_POINT('',(-0.115559419858,-17.8353790003));
#254 = CARTESIAN_POINT('',(-0.112339317885,-17.97054548238));
#255 = CARTESIAN_POINT('',(-0.108870780657,-18.10256780453));
#256 = CARTESIAN_POINT('',(-0.105150343088,-18.23101405733));
#257 = CARTESIAN_POINT('',(-0.101175758834,-18.3553984069));
#258 = CARTESIAN_POINT('',(-9.69464848744E-02,-18.47518852267));
#259 = CARTESIAN_POINT('',(-8.868037040135E-02,-18.68657444586));
#260 = CARTESIAN_POINT('',(-8.471644623658E-02,-18.77964960561));
#261 = CARTESIAN_POINT('',(-8.057371515506E-02,-18.86868925182));
#262 = CARTESIAN_POINT('',(-7.625503404743E-02,-18.95331518296));
#263 = CARTESIAN_POINT('',(-7.17651924889E-02,-19.03313140649));
#264 = CARTESIAN_POINT('',(-6.711131008876E-02,-19.10773531695));
#265 = CARTESIAN_POINT('',(-5.434100101391E-02,-19.29098304471));
#266 = CARTESIAN_POINT('',(-4.594812522771E-02,-19.38996398884));
#267 = CARTESIAN_POINT('',(-3.717987277813E-02,-19.47164459214));
#268 = CARTESIAN_POINT('',(-2.81065582134E-02,-19.53431191183));
#269 = CARTESIAN_POINT('',(-1.881396394944E-02,-19.57664828969));
#270 = CARTESIAN_POINT('',(-9.404147606201E-03,-19.59779423689));
#271 = CARTESIAN_POINT('',(0.,-19.59779423689));
#272 = ( GEOMETRIC_REPRESENTATION_CONTEXT(2) 
PARAMETRIC_REPRESENTATION_CONTEXT() REPRESENTATION_CONTEXT('2D SPACE',''
  ) );
#273 = PCURVE('',#162,#274);
#274 = DEFINITIONAL_REPRESENTATION('',(#275),#302);
#275 = B_SPLINE_CURVE_WITH_KNOTS('',7,(#276,#277,#278,#279,#280,#281,
    #282,#283,#284,#285,#286,#287,#288,#289,#290,#291,#292,#293,#294,
    #295,#296,#297,#298,#299,#300,#301),.UNSPECIFIED.,.F.,.F.,(8,6,6,6,8
    ),(0.,0.408189320953,0.5907286191,0.744821052905,1.),.UNSPECIFIED.);
#276 = CARTESIAN_POINT('',(6.914338488532E-02,0.));
#277 = CARTESIAN_POINT('',(7.013436625952E-02,7.851908022003E-02));
#278 = CARTESIAN_POINT('',(7.134923208594E-02,0.157398996611));
#279 = CARTESIAN_POINT('',(7.280054381719E-02,0.237117859223));
#280 = CARTESIAN_POINT('',(7.449528672424E-02,0.318041263188));
#281 = CARTESIAN_POINT('',(7.642990551176E-02,0.400526947802));
#282 = CARTESIAN_POINT('',(7.858212662905E-02,0.484932175737));
#283 = CARTESIAN_POINT('',(8.193941671297E-02,0.610601778573));
#284 = CARTESIAN_POINT('',(8.300989510031E-02,0.649903646921));
#285 = CARTESIAN_POINT('',(8.410869952941E-02,0.689710146718));
#286 = CARTESIAN_POINT('',(8.52295659636E-02,0.730051257748));
#287 = CARTESIAN_POINT('',(8.636459341888E-02,0.770952045709));
#288 = CARTESIAN_POINT('',(8.750414495673E-02,0.812433322605));
#289 = CARTESIAN_POINT('',(8.959284780521E-02,0.890033716531));
#290 = CARTESIAN_POINT('',(9.05439410049E-02,0.925979257116));
#291 = CARTESIAN_POINT('',(9.148314865097E-02,0.962356161879));
#292 = CARTESIAN_POINT('',(9.240251356806E-02,0.999166594096));
#293 = CARTESIAN_POINT('',(9.329326585865E-02,1.036406632741));
#294 = CARTESIAN_POINT('',(9.414608773108E-02,1.07406525788));
#295 = CARTESIAN_POINT('',(9.628494936312E-02,1.175147977049));
#296 = CARTESIAN_POINT('',(9.748952191899E-02,1.239329588346));
#297 = CARTESIAN_POINT('',(9.851931561471E-02,1.304488733593));
#298 = CARTESIAN_POINT('',(9.932995757079E-02,1.370448470999));
#299 = CARTESIAN_POINT('',(9.98843620119E-02,1.437008177233));
#300 = CARTESIAN_POINT('',(0.100161263516,1.50392238826));
#301 = CARTESIAN_POINT('',(0.100161263516,1.570796326793));
#302 = ( GEOMETRIC_REPRESENTATION_CONTEXT(2) 
PARAMETRIC_REPRESENTATION_CONTEXT() REPRESENTATION_CONTEXT('2D SPACE',''
  ) );
#303 = ORIENTED_EDGE('',*,*,#304,.T.);
#304 = EDGE_CURVE('',#213,#305,#307,.T.);
#305 = VERTEX_POINT('',#306);
#306 = CARTESIAN_POINT('',(32.,0.,62.016666666667));
#307 = SEAM_CURVE('',#308,(#312,#319),.PCURVE_S1.);
#308 = LINE('',#309,#310);
#309 = CARTESIAN_POINT('',(32.,0.,0.));
#310 = VECTOR('',#311,1.);
#311 = DIRECTION('',(0.,0.,1.));
#312 = PCURVE('',#31,#313);
#313 = DEFINITIONAL_REPRESENTATION('',(#314),#318);
#314 = LINE('',#315,#316);
#315 = CARTESIAN_POINT('',(-6.28318530718,0.));
#316 = VECTOR('',#317,1.);
#317 = DIRECTION('',(-0.,-1.));
#318 = ( GEOMETRIC_REPRESENTATION_CONTEXT(2) 
PARAMETRIC_REPRESENTATION_CONTEXT() REPRESENTATION_CONTEXT('2D SPACE',''
  ) );
#319 = PCURVE('',#31,#320);
#320 = DEFINITIONAL_REPRESENTATION('',(#321),#325);
#321 = LINE('',#322,#323);
#322 = CARTESIAN_POINT('',(-0.,0.));
#323 = VECTOR('',#324,1.);
#324 = DIRECTION('',(-0.,-1.));
#325 = ( GEOMETRIC_REPRESENTATION_CONTEXT(2) 
PARAMETRIC_REPRESENTATION_CONTEXT() REPRESENTATION_CONTEXT('2D SPACE',''
  ) );
#326 = ORIENTED_EDGE('',*,*,#327,.F.);
#327 = EDGE_CURVE('',#328,#305,#330,.T.);
#328 = VERTEX_POINT('',#329);
#329 = CARTESIAN_POINT('',(31.78116488071,3.735981641434,62.233678159963
    ));
#330 = SURFACE_CURVE('',#331,(#336,#346),.PCURVE_S1.);
#331 = ELLIPSE('',#332,45.066666666667,32.);
#332 = AXIS2_PLACEMENT_3D('',#333,#334,#335);
#333 = CARTESIAN_POINT('',(0.,0.,93.75));
#334 = DIRECTION('',(-0.704142011834,5.782340621205E-16,-0.710059171598)
  );
#335 = DIRECTION('',(0.710059171598,-5.830931718862E-16,-0.704142011834)
  );
#336 = PCURVE('',#31,#337);
#337 = DEFINITIONAL_REPRESENTATION('',(#338),#345);
#338 = B_SPLINE_CURVE_WITH_KNOTS('',5,(#339,#340,#341,#342,#343,#344),
  .UNSPECIFIED.,.F.,.F.,(6,6),(6.113623963314,6.28318530718),
  .PIECEWISE_BEZIER_KNOTS.);
#339 = CARTESIAN_POINT('',(-0.169561343866,-62.47175805061));
#340 = CARTESIAN_POINT('',(-0.135649075093,-62.29015785133));
#341 = CARTESIAN_POINT('',(-0.101736806319,-62.15352174309));
#342 = CARTESIAN_POINT('',(-6.782453754628E-02,-62.06228497541));
#343 = CARTESIAN_POINT('',(-3.391226877314E-02,-62.01666666666));
#344 = CARTESIAN_POINT('',(8.881784197001E-16,-62.01666666666));
#345 = ( GEOMETRIC_REPRESENTATION_CONTEXT(2) 
PARAMETRIC_REPRESENTATION_CONTEXT() REPRESENTATION_CONTEXT('2D SPACE',''
  ) );
#346 = PCURVE('',#347,#352);
#347 = PLANE('',#348);
#348 = AXIS2_PLACEMENT_3D('',#349,#350,#351);
#349 = CARTESIAN_POINT('',(30.,0.,64.));
#350 = DIRECTION('',(-0.704142011834,5.782340621205E-16,-0.710059171598)
  );
#351 = DIRECTION('',(-0.710059171598,0.,0.704142011834));
#352 = DEFINITIONAL_REPRESENTATION('',(#353),#357);
#353 = ELLIPSE('',#354,45.066666666667,32.);
#354 = AXIS2_PLACEMENT_2D('',#355,#356);
#355 = CARTESIAN_POINT('',(42.25,-4.733165431326E-30));
#356 = DIRECTION('',(-1.,-5.830931718862E-16));
#357 = ( GEOMETRIC_REPRESENTATION_CONTEXT(2) 
PARAMETRIC_REPRESENTATION_CONTEXT() REPRESENTATION_CONTEXT('2D SPACE',''
  ) );
#358 = ORIENTED_EDGE('',*,*,#359,.F.);
#359 = EDGE_CURVE('',#360,#328,#362,.T.);
#360 = VERTEX_POINT('',#361);
#361 = CARTESIAN_POINT('',(31.682013824882,4.5,64.633536205558));
#362 = SURFACE_CURVE('',#363,(#372,#384),.PCURVE_S1.);
#363 = B_SPLINE_CURVE_WITH_KNOTS('',7,(#364,#365,#366,#367,#368,#369,
    #370,#371),.UNSPECIFIED.,.F.,.F.,(8,8),(0.,1.),
  .PIECEWISE_BEZIER_KNOTS.);
#364 = CARTESIAN_POINT('',(31.682013824882,4.5,64.633536205558));
#365 = CARTESIAN_POINT('',(31.682013824882,4.5,64.278243662424));
#366 = CARTESIAN_POINT('',(31.68691090505,4.465523406104,63.923265531374
    ));
#367 = CARTESIAN_POINT('',(31.696787383639,4.395983127878,
    63.570232402592));
#368 = CARTESIAN_POINT('',(31.711599183814,4.290018371017,
    63.221460416674));
#369 = CARTESIAN_POINT('',(31.731072249696,4.145938024646,
    62.879930354892));
#370 = CARTESIAN_POINT('',(31.754596586529,3.96199221081,62.549228752765
    ));
#371 = CARTESIAN_POINT('',(31.78116488071,3.735981641434,62.233678159963
    ));
#372 = PCURVE('',#31,#373);
#373 = DEFINITIONAL_REPRESENTATION('',(#374),#383);
#374 = B_SPLINE_CURVE_WITH_KNOTS('',7,(#375,#376,#377,#378,#379,#380,
    #381,#382),.UNSPECIFIED.,.F.,.F.,(8,8),(0.,1.),
  .PIECEWISE_BEZIER_KNOTS.);
#375 = CARTESIAN_POINT('',(-0.141092659456,-64.63353620555));
#376 = CARTESIAN_POINT('',(-0.141092659456,-64.27824366242));
#377 = CARTESIAN_POINT('',(-0.140004451904,-63.92326553137));
#378 = CARTESIAN_POINT('',(-0.137809508994,-63.57023240259));
#379 = CARTESIAN_POINT('',(-0.134465928598,-63.22146041667));
#380 = CARTESIAN_POINT('',(-0.12992257643,-62.87993035489));
#381 = CARTESIAN_POINT('',(-0.124127753263,-62.54922875276));
#382 = CARTESIAN_POINT('',(-0.117016290539,-62.23367815996));
#383 = ( GEOMETRIC_REPRESENTATION_CONTEXT(2) 
PARAMETRIC_REPRESENTATION_CONTEXT() REPRESENTATION_CONTEXT('2D SPACE',''
  ) );
#384 = PCURVE('',#162,#385);
#385 = DEFINITIONAL_REPRESENTATION('',(#386),#395);
#386 = B_SPLINE_CURVE_WITH_KNOTS('',7,(#387,#388,#389,#390,#391,#392,
    #393,#394),.UNSPECIFIED.,.F.,.F.,(8,8),(0.,1.),
  .PIECEWISE_BEZIER_KNOTS.);
#387 = CARTESIAN_POINT('',(3.862031508104,0.));
#388 = CARTESIAN_POINT('',(3.871797827158,8.103807152653E-02));
#389 = CARTESIAN_POINT('',(3.881702050121,0.1624543888));
#390 = CARTESIAN_POINT('',(3.891707661659,0.244782118994));
#391 = CARTESIAN_POINT('',(3.901756172027,0.328421169921));
#392 = CARTESIAN_POINT('',(3.911764196643,0.413763905244));
#393 = CARTESIAN_POINT('',(3.921619883299,0.50119859295));
#394 = CARTESIAN_POINT('',(3.931174892989,0.591297426248));
#395 = ( GEOMETRIC_REPRESENTATION_CONTEXT(2) 
PARAMETRIC_REPRESENTATION_CONTEXT() REPRESENTATION_CONTEXT('2D SPACE',''
  ) );
#396 = ORIENTED_EDGE('',*,*,#397,.F.);
#397 = EDGE_CURVE('',#398,#360,#400,.T.);
#398 = VERTEX_POINT('',#399);
#399 = CARTESIAN_POINT('',(32.,0.,69.124731758421));
#400 = SURFACE_CURVE('',#401,(#439,#480),.PCURVE_S1.);
#401 = B_SPLINE_CURVE_WITH_KNOTS('',8,(#402,#403,#404,#405,#406,#407,
    #408,#409,#410,#411,#412,#413,#414,#415,#416,#417,#418,#419,#420,
    #421,#422,#423,#424,#425,#426,#427,#428,#429,#430,#431,#432,#433,
    #434,#435,#436,#437,#438),.UNSPECIFIED.,.F.,.F.,(9,7,7,7,7,9),(0.,
    0.183720144408,0.299520782637,0.451698941916,0.915312762353,1.),
  .UNSPECIFIED.);
#402 = CARTESIAN_POINT('',(32.,-8.328990940634E-15,69.124731758421));
#403 = CARTESIAN_POINT('',(32.,0.19564225026,69.124731758421));
#404 = CARTESIAN_POINT('',(31.998633036329,0.391350886257,
    69.114843617452));
#405 = CARTESIAN_POINT('',(31.995897330868,0.585840631828,
    69.095057020532));
#406 = CARTESIAN_POINT('',(31.991841509947,0.777996910074,
    69.065605369463));
#407 = CARTESIAN_POINT('',(31.986553284953,0.966858247913,
    69.026897903767));
#408 = CARTESIAN_POINT('',(31.980148801517,1.151602026596,
    68.979467526612));
#409 = CARTESIAN_POINT('',(31.972762657297,1.33153357822,68.923934335708
    ));
#410 = CARTESIAN_POINT('',(31.959354875709,1.616096112969,
    68.821307176684));
#411 = CARTESIAN_POINT('',(31.953836396177,1.724012361916,
    68.778668786126));
#412 = CARTESIAN_POINT('',(31.948017393843,1.829713414963,
    68.733226509239));
#413 = CARTESIAN_POINT('',(31.941932404223,1.933110133001,
    68.685138094787));
#414 = CARTESIAN_POINT('',(31.935615665085,2.034135607406,
    68.634559380925));
#415 = CARTESIAN_POINT('',(31.929100527281,2.132742569548,
    68.581641457555));
#416 = CARTESIAN_POINT('',(31.922418865579,2.228900800299,
    68.526527828689));
#417 = CARTESIAN_POINT('',(31.906640194126,2.445721156049,
    68.394214017685));
#418 = CARTESIAN_POINT('',(31.897444540758,2.56458160759,68.315520796175
    ));
#419 = CARTESIAN_POINT('',(31.888081152188,2.679151182915,
    68.233570452908));
#420 = CARTESIAN_POINT('',(31.878612983432,2.789428967354,
    68.148641895734));
#421 = CARTESIAN_POINT('',(31.869098128117,2.895434386953,
    68.060992266927));
#422 = CARTESIAN_POINT('',(31.859589624862,2.997203752608,
    67.970854812377));
#423 = CARTESIAN_POINT('',(31.850135263676,3.094786804203,
    67.878436750796));
#424 = CARTESIAN_POINT('',(31.812268449261,3.472960209427,
    67.495961257998));
#425 = CARTESIAN_POINT('',(31.7847112082,3.718824680688,67.189060615628)
  );
#426 = CARTESIAN_POINT('',(31.7592373087,3.928434608357,66.867746387554)
  );
#427 = CARTESIAN_POINT('',(31.736712043706,4.103042671547,
    66.535564338343));
#428 = CARTESIAN_POINT('',(31.717784284909,4.243822836706,66.19551545513
    ));
#429 = CARTESIAN_POINT('',(31.702902066153,4.35153894866,65.849959797832
    ));
#430 = CARTESIAN_POINT('',(31.692367705115,4.426698023109,
    65.500705807722));
#431 = CARTESIAN_POINT('',(31.685309539808,4.476742152542,
    65.084631182977));
#432 = CARTESIAN_POINT('',(31.684372050214,4.483373590203,
    65.020299559272));
#433 = CARTESIAN_POINT('',(31.683588495685,4.488905763024,
    64.955912004931));
#434 = CARTESIAN_POINT('',(31.682959994766,4.493336965927,
    64.891479919522));
#435 = CARTESIAN_POINT('',(31.682487521051,4.496664980209,64.82701475824
    ));
#436 = CARTESIAN_POINT('',(31.682171903189,4.498887073548,
    64.762528031911));
#437 = CARTESIAN_POINT('',(31.682013824882,4.5,64.698031306989));
#438 = CARTESIAN_POINT('',(31.682013824882,4.5,64.633536205558));
#439 = PCURVE('',#31,#440);
#440 = DEFINITIONAL_REPRESENTATION('',(#441),#479);
#441 = B_SPLINE_CURVE_WITH_KNOTS('',8,(#442,#443,#444,#445,#446,#447,
    #448,#449,#450,#451,#452,#453,#454,#455,#456,#457,#458,#459,#460,
    #461,#462,#463,#464,#465,#466,#467,#468,#469,#470,#471,#472,#473,
    #474,#475,#476,#477,#478),.UNSPECIFIED.,.F.,.F.,(9,7,7,7,7,9),(0.,
    0.183720144408,0.299520782637,0.451698941916,0.915312762353,1.),
  .UNSPECIFIED.);
#442 = CARTESIAN_POINT('',(0.,-69.12473175842));
#443 = CARTESIAN_POINT('',(-6.113820320638E-03,-69.12473175842));
#444 = CARTESIAN_POINT('',(-1.222971515943E-02,-69.11484361745));
#445 = CARTESIAN_POINT('',(-1.830786799151E-02,-69.09505702053));
#446 = CARTESIAN_POINT('',(-2.431379748953E-02,-69.06560536946));
#447 = CARTESIAN_POINT('',(-3.021775963219E-02,-69.02689790376));
#448 = CARTESIAN_POINT('',(-3.5994272833E-02,-68.97946752661));
#449 = CARTESIAN_POINT('',(-4.162176608941E-02,-68.9239343357));
#450 = CARTESIAN_POINT('',(-5.052421071449E-02,-68.82130717668));
#451 = CARTESIAN_POINT('',(-5.39009726553E-02,-68.77866878612));
#452 = CARTESIAN_POINT('',(-5.720909089218E-02,-68.73322650923));
#453 = CARTESIAN_POINT('',(-6.044578396857E-02,-68.68513809478));
#454 = CARTESIAN_POINT('',(-6.360895467534E-02,-68.63455938092));
#455 = CARTESIAN_POINT('',(-6.669711067241E-02,-68.58164145755));
#456 = CARTESIAN_POINT('',(-6.970928511037E-02,-68.52652782868));
#457 = CARTESIAN_POINT('',(-7.650283912234E-02,-68.39421401768));
#458 = CARTESIAN_POINT('',(-8.022828879367E-02,-68.31552079617));
#459 = CARTESIAN_POINT('',(-8.382047020763E-02,-68.2335704529));
#460 = CARTESIAN_POINT('',(-8.727927422524E-02,-68.14864189573));
#461 = CARTESIAN_POINT('',(-9.060521511091E-02,-68.06099226692));
#462 = CARTESIAN_POINT('',(-9.37993270162E-02,-67.97085481237));
#463 = CARTESIAN_POINT('',(-9.686306046364E-02,-67.87843675079));
#464 = CARTESIAN_POINT('',(-0.10874007592,-67.49596125799));
#465 = CARTESIAN_POINT('',(-0.116470911281,-67.18906061562));
#466 = CARTESIAN_POINT('',(-0.123069029939,-66.86774638755));
#467 = CARTESIAN_POINT('',(-0.128570551568,-66.53556433834));
#468 = CARTESIAN_POINT('',(-0.133009463229,-66.19551545513));
#469 = CARTESIAN_POINT('',(-0.136407555423,-65.84995979783));
#470 = CARTESIAN_POINT('',(-0.138779234143,-65.50070580772));
#471 = CARTESIAN_POINT('',(-0.140358590899,-65.08463118297));
#472 = CARTESIAN_POINT('',(-0.140567883914,-65.02029955927));
#473 = CARTESIAN_POINT('',(-0.140742489749,-64.95591200493));
#474 = CARTESIAN_POINT('',(-0.140882350761,-64.89147991952));
#475 = CARTESIAN_POINT('',(-0.140987394041,-64.82701475824));
#476 = CARTESIAN_POINT('',(-0.141057531418,-64.76252803191));
#477 = CARTESIAN_POINT('',(-0.141092659456,-64.69803130698));
#478 = CARTESIAN_POINT('',(-0.141092659456,-64.63353620555));
#479 = ( GEOMETRIC_REPRESENTATION_CONTEXT(2) 
PARAMETRIC_REPRESENTATION_CONTEXT() REPRESENTATION_CONTEXT('2D SPACE',''
  ) );
#480 = PCURVE('',#162,#481);
#481 = DEFINITIONAL_REPRESENTATION('',(#482),#520);
#482 = B_SPLINE_CURVE_WITH_KNOTS('',8,(#483,#484,#485,#486,#487,#488,
    #489,#490,#491,#492,#493,#494,#495,#496,#497,#498,#499,#500,#501,
    #502,#503,#504,#505,#506,#507,#508,#509,#510,#511,#512,#513,#514,
    #515,#516,#517,#518,#519),.UNSPECIFIED.,.F.,.F.,(9,7,7,7,7,9),(0.,
    0.183720144408,0.299520782637,0.451698941916,0.915312762353,1.),
  .UNSPECIFIED.);
#483 = CARTESIAN_POINT('',(3.74711800434,4.712388980385));
#484 = CARTESIAN_POINT('',(3.74711800434,4.755865035998));
#485 = CARTESIAN_POINT('',(3.747354927044,4.799355782099));
#486 = CARTESIAN_POINT('',(3.747829012626,4.84270111654));
#487 = CARTESIAN_POINT('',(3.748535022223,4.885778406679));
#488 = CARTESIAN_POINT('',(3.749463825543,4.928489837602));
#489 = CARTESIAN_POINT('',(3.75060358079,4.970753388749));
#490 = CARTESIAN_POINT('',(3.751940506893,5.012497438942));
#491 = CARTESIAN_POINT('',(3.754416525741,5.079603541886));
#492 = CARTESIAN_POINT('',(3.755446381502,5.105325770513));
#493 = CARTESIAN_POINT('',(3.756545338784,5.130817289094));
#494 = CARTESIAN_POINT('',(3.757709905143,5.156072733491));
#495 = CARTESIAN_POINT('',(3.758936636158,5.181089508905));
#496 = CARTESIAN_POINT('',(3.760222199347,5.205867526768));
#497 = CARTESIAN_POINT('',(3.761563438088,5.230408941635));
#498 = CARTESIAN_POINT('',(3.764789342239,5.28666322774));
#499 = CARTESIAN_POINT('',(3.766712204412,5.318204494508));
#500 = CARTESIAN_POINT('',(3.768719495321,5.349353898431));
#501 = CARTESIAN_POINT('',(3.770805126647,5.380124965989));
#502 = CARTESIAN_POINT('',(3.772963501546,5.410532804329));
#503 = CARTESIAN_POINT('',(3.775189567715,5.440594365524));
#504 = CARTESIAN_POINT('',(3.777478870448,5.470328710818));
#505 = CARTESIAN_POINT('',(3.786983074838,5.58941198668));
#506 = CARTESIAN_POINT('',(3.794676246462,5.676054892861));
#507 = CARTESIAN_POINT('',(3.802812456302,5.760518098486));
#508 = CARTESIAN_POINT('',(3.811318652438,5.843271391834));
#509 = CARTESIAN_POINT('',(3.820132479622,5.924750426143));
#510 = CARTESIAN_POINT('',(3.829204972073,6.005347911579));
#511 = CARTESIAN_POINT('',(3.838499138331,6.085498085879));
#512 = CARTESIAN_POINT('',(3.849729273788,6.180424820594));
#513 = CARTESIAN_POINT('',(3.851470046685,6.195086363169));
#514 = CARTESIAN_POINT('',(3.853216808637,6.209750070603));
#515 = CARTESIAN_POINT('',(3.854969309041,6.224418359545));
#516 = CARTESIAN_POINT('',(3.856727292292,6.239093636466));
#517 = CARTESIAN_POINT('',(3.858490497787,6.253778297662));
#518 = CARTESIAN_POINT('',(3.860258659925,6.268474729252));
#519 = CARTESIAN_POINT('',(3.862031508104,6.28318530718));
#520 = ( GEOMETRIC_REPRESENTATION_CONTEXT(2) 
PARAMETRIC_REPRESENTATION_CONTEXT() REPRESENTATION_CONTEXT('2D SPACE',''
  ) );
#521 = ORIENTED_EDGE('',*,*,#522,.T.);
#522 = EDGE_CURVE('',#398,#523,#525,.T.);
#523 = VERTEX_POINT('',#524);
#524 = CARTESIAN_POINT('',(32.,0.,78.));
#525 = SEAM_CURVE('',#526,(#530,#537),.PCURVE_S1.);
#526 = LINE('',#527,#528);
#527 = CARTESIAN_POINT('',(32.,0.,0.));
#528 = VECTOR('',#529,1.);
#529 = DIRECTION('',(0.,0.,1.));
#530 = PCURVE('',#31,#531);
#531 = DEFINITIONAL_REPRESENTATION('',(#532),#536);
#532 = LINE('',#533,#534);
#533 = CARTESIAN_POINT('',(-6.28318530718,0.));
#534 = VECTOR('',#535,1.);
#535 = DIRECTION('',(-0.,-1.));
#536 = ( GEOMETRIC_REPRESENTATION_CONTEXT(2) 
PARAMETRIC_REPRESENTATION_CONTEXT() REPRESENTATION_CONTEXT('2D SPACE',''
  ) );
#537 = PCURVE('',#31,#538);
#538 = DEFINITIONAL_REPRESENTATION('',(#539),#543);
#539 = LINE('',#540,#541);
#540 = CARTESIAN_POINT('',(-0.,0.));
#541 = VECTOR('',#542,1.);
#542 = DIRECTION('',(-0.,-1.));
#543 = ( GEOMETRIC_REPRESENTATION_CONTEXT(2) 
PARAMETRIC_REPRESENTATION_CONTEXT() REPRESENTATION_CONTEXT('2D SPACE',''
  ) );
#544 = ORIENTED_EDGE('',*,*,#545,.T.);
#545 = EDGE_CURVE('',#523,#523,#546,.T.);
#546 = SURFACE_CURVE('',#547,(#552,#559),.PCURVE_S1.);
#547 = CIRCLE('',#548,32.);
#548 = AXIS2_PLACEMENT_3D('',#549,#550,#551);
#549 = CARTESIAN_POINT('',(0.,0.,78.));
#550 = DIRECTION('',(0.,0.,1.));
#551 = DIRECTION('',(1.,0.,0.));
#552 = PCURVE('',#31,#553);
#553 = DEFINITIONAL_REPRESENTATION('',(#554),#558);
#554 = LINE('',#555,#556);
#555 = CARTESIAN_POINT('',(-0.,-78.));
#556 = VECTOR('',#557,1.);
#557 = DIRECTION('',(-1.,0.));
#558 = ( GEOMETRIC_REPRESENTATION_CONTEXT(2) 
PARAMETRIC_REPRESENTATION_CONTEXT() REPRESENTATION_CONTEXT('2D SPACE',''
  ) );
#559 = PCURVE('',#560,#565);
#560 = PLANE('',#561);
#561 = AXIS2_PLACEMENT_3D('',#562,#563,#564);
#562 = CARTESIAN_POINT('',(-2.051160198809E-15,2.796030478528E-15,78.));
#563 = DIRECTION('',(0.,0.,1.));
#564 = DIRECTION('',(1.,0.,-0.));
#565 = DEFINITIONAL_REPRESENTATION('',(#566),#570);
#566 = CIRCLE('',#567,32.);
#567 = AXIS2_PLACEMENT_2D('',#568,#569);
#568 = CARTESIAN_POINT('',(2.051160198809E-15,-2.796030478528E-15));
#569 = DIRECTION('',(1.,0.));
#570 = ( GEOMETRIC_REPRESENTATION_CONTEXT(2) 
PARAMETRIC_REPRESENTATION_CONTEXT() REPRESENTATION_CONTEXT('2D SPACE',''
  ) );
#571 = ORIENTED_EDGE('',*,*,#522,.F.);
#572 = ORIENTED_EDGE('',*,*,#573,.F.);
#573 = EDGE_CURVE('',#574,#398,#576,.T.);
#574 = VERTEX_POINT('',#575);
#575 = CARTESIAN_POINT('',(31.78116488071,-3.735981641434,
    62.233678159963));
#576 = SURFACE_CURVE('',#577,(#620,#666),.PCURVE_S1.);
#577 = B_SPLINE_CURVE_WITH_KNOTS('',6,(#578,#579,#580,#581,#582,#583,
    #584,#585,#586,#587,#588,#589,#590,#591,#592,#593,#594,#595,#596,
    #597,#598,#599,#600,#601,#602,#603,#604,#605,#606,#607,#608,#609,
    #610,#611,#612,#613,#614,#615,#616,#617,#618,#619),.UNSPECIFIED.,.F.
  ,.F.,(7,5,5,5,5,5,5,5,7),(0.,0.100949257826,0.350719459577,
    0.529234951025,0.593889728221,0.679764395456,0.787810150368,
    0.870028213062,1.),.UNSPECIFIED.);
#578 = CARTESIAN_POINT('',(31.78116488071,-3.735981641434,
    62.233678159963));
#579 = CARTESIAN_POINT('',(31.770374281172,-3.827774871696,
    62.361837689423));
#580 = CARTESIAN_POINT('',(31.760095641452,-3.912469040325,
    62.492621074716));
#581 = CARTESIAN_POINT('',(31.750407376646,-3.990189133336,62.6256758493
    ));
#582 = CARTESIAN_POINT('',(31.741371906561,-4.061070244791,
    62.760684925612));
#583 = CARTESIAN_POINT('',(31.733037754314,-4.125250527275,
    62.897368323632));
#584 = CARTESIAN_POINT('',(31.706647234637,-4.325412632352,
    63.377215049293));
#585 = CARTESIAN_POINT('',(31.69238139496,-4.427683539732,
    63.727529772373));
#586 = CARTESIAN_POINT('',(31.683176352772,-4.491902095574,
    64.083055422414));
#587 = CARTESIAN_POINT('',(31.679208930247,-4.519492520736,
    64.440930897506));
#588 = CARTESIAN_POINT('',(31.680395284988,-4.511592052722,
    64.798730390367));
#589 = CARTESIAN_POINT('',(31.690854713745,-4.437420680682,
    65.408754442568));
#590 = CARTESIAN_POINT('',(31.697722329015,-4.388458088293,
    65.661867395336));
#591 = CARTESIAN_POINT('',(31.707005209652,-4.321534476375,
    65.913061202501));
#592 = CARTESIAN_POINT('',(31.718562280466,-4.236521584731,
    66.161450366091));
#593 = CARTESIAN_POINT('',(31.73219458919,-4.133159773935,
    66.406039028518));
#594 = CARTESIAN_POINT('',(31.753232799824,-3.966635653047,
    66.732485879832));
#595 = CARTESIAN_POINT('',(31.759063882662,-3.919884657287,
    66.818629999469));
#596 = CARTESIAN_POINT('',(31.76511970772,-3.870634945481,
    66.904064917922));
#597 = CARTESIAN_POINT('',(31.771386110185,-3.818860228122,
    66.988728110858));
#598 = CARTESIAN_POINT('',(31.777847403975,-3.764531535935,
    67.072551267299));
#599 = CARTESIAN_POINT('',(31.793304291733,-3.632023456139,
    67.265580299477));
#600 = CARTESIAN_POINT('',(31.80243537243,-3.551870271869,
    67.374084786533));
#601 = CARTESIAN_POINT('',(31.811839351645,-3.467081246272,
    67.480802841057));
#602 = CARTESIAN_POINT('',(31.821469873382,-3.37757813199,
    67.585534139452));
#603 = CARTESIAN_POINT('',(31.831273825183,-3.283281806093,
    67.688049061085));
#604 = CARTESIAN_POINT('',(31.853667831688,-3.059341329923,
    67.913956770745));
#605 = CARTESIAN_POINT('',(31.866322288147,-2.926869318518,68.035893389)
  );
#606 = CARTESIAN_POINT('',(31.87903527276,-2.78653050456,68.153396376927
    ));
#607 = CARTESIAN_POINT('',(31.891662592535,-2.638205196193,
    68.265831883358));
#608 = CARTESIAN_POINT('',(31.904036484021,-2.481853172193,
    68.372454588212));
#609 = CARTESIAN_POINT('',(31.925046431685,-2.192515761268,
    68.548503015952));
#610 = CARTESIAN_POINT('',(31.933868126565,-2.06288987383,
    68.620720919025));
#611 = CARTESIAN_POINT('',(31.942349032086,-1.928713845982,
    68.688708520007));
#612 = CARTESIAN_POINT('',(31.950396023304,-1.790100762186,
    68.752044388332));
#613 = CARTESIAN_POINT('',(31.957911908847,-1.647255654685,
    68.810285270628));
#614 = CARTESIAN_POINT('',(31.975691303554,-1.268505290285,
    68.946313568189));
#615 = CARTESIAN_POINT('',(31.985023803846,-1.026558554814,
    69.015872201832));
#616 = CARTESIAN_POINT('',(31.992401107596,-0.776257398723,
    69.069771001415));
#617 = CARTESIAN_POINT('',(31.997468668045,-0.519752209944,
    69.10642100093));
#618 = CARTESIAN_POINT('',(32.,-0.259814832158,69.124731758421));
#619 = CARTESIAN_POINT('',(32.,-7.993605777301E-15,69.124731758421));
#620 = PCURVE('',#31,#621);
#621 = DEFINITIONAL_REPRESENTATION('',(#622),#665);
#622 = B_SPLINE_CURVE_WITH_KNOTS('',6,(#623,#624,#625,#626,#627,#628,
    #629,#630,#631,#632,#633,#634,#635,#636,#637,#638,#639,#640,#641,
    #642,#643,#644,#645,#646,#647,#648,#649,#650,#651,#652,#653,#654,
    #655,#656,#657,#658,#659,#660,#661,#662,#663,#664),.UNSPECIFIED.,.F.
  ,.F.,(7,5,5,5,5,5,5,5,7),(0.,0.100949257826,0.350719459577,
    0.529234951025,0.593889728221,0.679764395456,0.787810150368,
    0.870028213062,1.),.UNSPECIFIED.);
#623 = CARTESIAN_POINT('',(-6.16616901664,-62.23367815996));
#624 = CARTESIAN_POINT('',(-6.16328072634,-62.36183768942));
#625 = CARTESIAN_POINT('',(-6.160614632307,-62.49262107471));
#626 = CARTESIAN_POINT('',(-6.158167098832,-62.6256758493));
#627 = CARTESIAN_POINT('',(-6.155934149493,-62.76068492561));
#628 = CARTESIAN_POINT('',(-6.153911680452,-62.89736832363));
#629 = CARTESIAN_POINT('',(-6.147602482071,-63.37721504929));
#630 = CARTESIAN_POINT('',(-6.144375662783,-63.72752977237));
#631 = CARTESIAN_POINT('',(-6.14234829308,-64.08305542241));
#632 = CARTESIAN_POINT('',(-6.141477235857,-64.4409308975));
#633 = CARTESIAN_POINT('',(-6.141726882556,-64.79873039036));
#634 = CARTESIAN_POINT('',(-6.144067670701,-65.40875444256));
#635 = CARTESIAN_POINT('',(-6.145612729155,-65.66186739533));
#636 = CARTESIAN_POINT('',(-6.14772411098,-65.9130612025));
#637 = CARTESIAN_POINT('',(-6.150405182915,-66.16145036609));
#638 = CARTESIAN_POINT('',(-6.153663162953,-66.40603902851));
#639 = CARTESIAN_POINT('',(-6.158908407185,-66.73248587983));
#640 = CARTESIAN_POINT('',(-6.160380694247,-66.81862999946));
#641 = CARTESIAN_POINT('',(-6.161931335083,-66.90406491792));
#642 = CARTESIAN_POINT('',(-6.16356109732,-66.98872811085));
#643 = CARTESIAN_POINT('',(-6.165270829584,-67.07255126729));
#644 = CARTESIAN_POINT('',(-6.169439784155,-67.26558029947));
#645 = CARTESIAN_POINT('',(-6.171960762956,-67.37408478653));
#646 = CARTESIAN_POINT('',(-6.17462664863,-67.48080284105));
#647 = CARTESIAN_POINT('',(-6.177439740354,-67.58553413945));
#648 = CARTESIAN_POINT('',(-6.180402361682,-67.68804906108));
#649 = CARTESIAN_POINT('',(-6.187435405091,-67.91395677074));
#650 = CARTESIAN_POINT('',(-6.191593959626,-68.035893389));
#651 = CARTESIAN_POINT('',(-6.19599742189,-68.15339637692));
#652 = CARTESIAN_POINT('',(-6.200649239931,-68.26583188335));
#653 = CARTESIAN_POINT('',(-6.205550414912,-68.37245458821));
#654 = CARTESIAN_POINT('',(-6.21461601542,-68.54850301595));
#655 = CARTESIAN_POINT('',(-6.218676152712,-68.62072091902));
#656 = CARTESIAN_POINT('',(-6.222877444384,-68.68870852));
#657 = CARTESIAN_POINT('',(-6.227216305043,-68.75204438833));
#658 = CARTESIAN_POINT('',(-6.231686317495,-68.81028527062));
#659 = CARTESIAN_POINT('',(-6.243535299906,-68.94631356818));
#660 = CARTESIAN_POINT('',(-6.25110149383,-69.01587220183));
#661 = CARTESIAN_POINT('',(-6.258926299922,-69.06977100141));
#662 = CARTESIAN_POINT('',(-6.266943050682,-69.10642100093));
#663 = CARTESIAN_POINT('',(-6.275066093675,-69.12473175842));
#664 = CARTESIAN_POINT('',(-6.28318530718,-69.12473175842));
#665 = ( GEOMETRIC_REPRESENTATION_CONTEXT(2) 
PARAMETRIC_REPRESENTATION_CONTEXT() REPRESENTATION_CONTEXT('2D SPACE',''
  ) );
#666 = PCURVE('',#162,#667);
#667 = DEFINITIONAL_REPRESENTATION('',(#668),#711);
#668 = B_SPLINE_CURVE_WITH_KNOTS('',6,(#669,#670,#671,#672,#673,#674,
    #675,#676,#677,#678,#679,#680,#681,#682,#683,#684,#685,#686,#687,
    #688,#689,#690,#691,#692,#693,#694,#695,#696,#697,#698,#699,#700,
    #701,#702,#703,#704,#705,#706,#707,#708,#709,#710),.UNSPECIFIED.,.F.
  ,.F.,(7,5,5,5,5,5,5,5,7),(0.,0.100949257826,0.350719459577,
    0.529234951025,0.593889728221,0.679764395456,0.787810150368,
    0.870028213062,1.),.UNSPECIFIED.);
#669 = CARTESIAN_POINT('',(3.931174892989,2.550295227342));
#670 = CARTESIAN_POINT('',(3.927294166494,2.58688848479));
#671 = CARTESIAN_POINT('',(3.923360813054,2.623044886678));
#672 = CARTESIAN_POINT('',(3.919386837302,2.658795419792));
#673 = CARTESIAN_POINT('',(3.915382633157,2.694170318443));
#674 = CARTESIAN_POINT('',(3.911357047307,2.729200659739));
#675 = CARTESIAN_POINT('',(3.897322591035,2.849822981131));
#676 = CARTESIAN_POINT('',(3.887247448126,2.933775074981));
#677 = CARTESIAN_POINT('',(3.87719506674,3.016356715317));
#678 = CARTESIAN_POINT('',(3.867241563604,3.097993462662));
#679 = CARTESIAN_POINT('',(3.857444082037,3.17911874563));
#680 = CARTESIAN_POINT('',(3.840982313364,3.31830613263));
#681 = CARTESIAN_POINT('',(3.834224537867,3.376320532237));
#682 = CARTESIAN_POINT('',(3.827586690344,3.434527644646));
#683 = CARTESIAN_POINT('',(3.821087201429,3.493104915061));
#684 = CARTESIAN_POINT('',(3.814746350836,3.552236054384));
#685 = CARTESIAN_POINT('',(3.806356323303,3.633855831495));
#686 = CARTESIAN_POINT('',(3.804149498819,3.655659309772));
#687 = CARTESIAN_POINT('',(3.80196777259,3.677575198205));
#688 = CARTESIAN_POINT('',(3.799812431195,3.699614023201));
#689 = CARTESIAN_POINT('',(3.797684888553,3.721786615755));
#690 = CARTESIAN_POINT('',(3.792799846964,3.773746275576));
#691 = CARTESIAN_POINT('',(3.790064839089,3.803643396049));
#692 = CARTESIAN_POINT('',(3.787385201794,3.833822792389));
#693 = CARTESIAN_POINT('',(3.784765150732,3.864310707262));
#694 = CARTESIAN_POINT('',(3.782209560835,3.895133751218));
#695 = CARTESIAN_POINT('',(3.776596603869,3.965558686723));
#696 = CARTESIAN_POINT('',(3.773580358384,4.00536854789));
#697 = CARTESIAN_POINT('',(3.770685885905,4.045809853612));
#698 = CARTESIAN_POINT('',(3.767926899436,4.086931402354));
#699 = CARTESIAN_POINT('',(3.76531965225,4.128773295381));
#700 = CARTESIAN_POINT('',(3.761027825392,4.203783096516));
#701 = CARTESIAN_POINT('',(3.759271839697,4.236630724728));
#702 = CARTESIAN_POINT('',(3.757622657124,4.269923642439));
#703 = CARTESIAN_POINT('',(3.756089568097,4.303663982023));
#704 = CARTESIAN_POINT('',(3.754682377909,4.33784213703));
#705 = CARTESIAN_POINT('',(3.751400685654,4.427118172441));
#706 = CARTESIAN_POINT('',(3.749727888836,4.482878680245));
#707 = CARTESIAN_POINT('',(3.748434860745,4.539540436334));
#708 = CARTESIAN_POINT('',(3.747556735307,4.596888601961));
#709 = CARTESIAN_POINT('',(3.74711800434,4.654652351016));
#710 = CARTESIAN_POINT('',(3.74711800434,4.712388980385));
#711 = ( GEOMETRIC_REPRESENTATION_CONTEXT(2) 
PARAMETRIC_REPRESENTATION_CONTEXT() REPRESENTATION_CONTEXT('2D SPACE',''
  ) );
#712 = ORIENTED_EDGE('',*,*,#713,.F.);
#713 = EDGE_CURVE('',#305,#574,#714,.T.);
#714 = SURFACE_CURVE('',#715,(#720,#730),.PCURVE_S1.);
#715 = ELLIPSE('',#716,45.066666666667,32.);
#716 = AXIS2_PLACEMENT_3D('',#717,#718,#719);
#717 = CARTESIAN_POINT('',(0.,0.,93.75));
#718 = DIRECTION('',(-0.704142011834,5.782340621205E-16,-0.710059171598)
  );
#719 = DIRECTION('',(0.710059171598,-5.830931718862E-16,-0.704142011834)
  );
#720 = PCURVE('',#31,#721);
#721 = DEFINITIONAL_REPRESENTATION('',(#722),#729);
#722 = B_SPLINE_CURVE_WITH_KNOTS('',5,(#723,#724,#725,#726,#727,#728),
  .UNSPECIFIED.,.F.,.F.,(6,6),(0.,0.169561343866),
  .PIECEWISE_BEZIER_KNOTS.);
#723 = CARTESIAN_POINT('',(-6.28318530718,-62.01666666666));
#724 = CARTESIAN_POINT('',(-6.249273038406,-62.01666666666));
#725 = CARTESIAN_POINT('',(-6.215360769633,-62.06228497541));
#726 = CARTESIAN_POINT('',(-6.18144850086,-62.15352174309));
#727 = CARTESIAN_POINT('',(-6.147536232087,-62.29015785133));
#728 = CARTESIAN_POINT('',(-6.113623963314,-62.47175805061));
#729 = ( GEOMETRIC_REPRESENTATION_CONTEXT(2) 
PARAMETRIC_REPRESENTATION_CONTEXT() REPRESENTATION_CONTEXT('2D SPACE',''
  ) );
#730 = PCURVE('',#347,#731);
#731 = DEFINITIONAL_REPRESENTATION('',(#732),#736);
#732 = ELLIPSE('',#733,45.066666666667,32.);
#733 = AXIS2_PLACEMENT_2D('',#734,#735);
#734 = CARTESIAN_POINT('',(42.25,-4.733165431326E-30));
#735 = DIRECTION('',(-1.,-5.830931718862E-16));
#736 = ( GEOMETRIC_REPRESENTATION_CONTEXT(2) 
PARAMETRIC_REPRESENTATION_CONTEXT() REPRESENTATION_CONTEXT('2D SPACE',''
  ) );
#737 = ORIENTED_EDGE('',*,*,#304,.F.);
#738 = ORIENTED_EDGE('',*,*,#739,.T.);
#739 = EDGE_CURVE('',#213,#56,#740,.T.);
#740 = SURFACE_CURVE('',#741,(#810,#882),.PCURVE_S1.);
#741 = B_SPLINE_CURVE_WITH_KNOTS('',7,(#742,#743,#744,#745,#746,#747,
    #748,#749,#750,#751,#752,#753,#754,#755,#756,#757,#758,#759,#760,
    #761,#762,#763,#764,#765,#766,#767,#768,#769,#770,#771,#772,#773,
    #774,#775,#776,#777,#778,#779,#780,#781,#782,#783,#784,#785,#786,
    #787,#788,#789,#790,#791,#792,#793,#794,#795,#796,#797,#798,#799,
    #800,#801,#802,#803,#804,#805,#806,#807,#808,#809),.UNSPECIFIED.,.F.
  ,.F.,(8,6,6,6,6,6,6,6,6,6,6,8),(0.,0.126734972683,0.202662407757,
    0.294693477175,0.363030256391,0.535062885958,0.662739912795,
    0.708723447326,0.770176823906,0.847509489619,0.906357265216,1.),
  .UNSPECIFIED.);
#742 = CARTESIAN_POINT('',(32.,-7.993605777301E-15,19.597794236897));
#743 = CARTESIAN_POINT('',(32.,-0.303649396831,19.597794236897));
#744 = CARTESIAN_POINT('',(31.996638435402,-0.607485918112,
    19.576264765656));
#745 = CARTESIAN_POINT('',(31.989907834673,-0.907420127829,
    19.533159565817));
#746 = CARTESIAN_POINT('',(31.980070215015,-1.200057637669,
    19.46937125142));
#747 = CARTESIAN_POINT('',(31.967580465137,-1.482560744189,
    19.386262573141));
#748 = CARTESIAN_POINT('',(31.952996946804,-1.752626568592,
    19.285602280275));
#749 = CARTESIAN_POINT('',(31.927268125965,-2.161743826511,
    19.099909039907));
#750 = CARTESIAN_POINT('',(31.9170822784,-2.310006774923,19.024746689285
    ));
#751 = CARTESIAN_POINT('',(31.906470377382,-2.452947510427,
    18.944391593419));
#752 = CARTESIAN_POINT('',(31.895551433561,-2.590345402804,
    18.859247300711));
#753 = CARTESIAN_POINT('',(31.884439608674,-2.722055432914,
    18.769710152931));
#754 = CARTESIAN_POINT('',(31.873240851938,-2.847994980694,
    18.676158196045));
#755 = CARTESIAN_POINT('',(31.848484627647,-3.113746104046,
    18.461102761718));
#756 = CARTESIAN_POINT('',(31.834931618688,-3.250824721339,
    18.33788769141));
#757 = CARTESIAN_POINT('',(31.821558956899,-3.379326579575,
    18.209905505876));
#758 = CARTESIAN_POINT('',(31.808513453855,-3.499287586104,
    18.077723781346));
#759 = CARTESIAN_POINT('',(31.79592061464,-3.610801705238,
    17.941859032363));
#760 = CARTESIAN_POINT('',(31.783884967097,-3.71400322242,
    17.802768699621));
#761 = CARTESIAN_POINT('',(31.764029459036,-3.879624336164,
    17.555457686533));
#762 = CARTESIAN_POINT('',(31.755922500355,-3.945699515052,
    17.448514099662));
#763 = CARTESIAN_POINT('',(31.748204328919,-4.007337787426,
    17.340174941711));
#764 = CARTESIAN_POINT('',(31.740904497045,-4.064604598287,
    17.230591063296));
#765 = CARTESIAN_POINT('',(31.734047752284,-4.117566236698,
    17.119901294215));
#766 = CARTESIAN_POINT('',(31.727654494204,-4.16628847723,
    17.008232136524));
#767 = CARTESIAN_POINT('',(31.706855042542,-4.322978252225,
    16.612399986561));
#768 = CARTESIAN_POINT('',(31.695016598509,-4.408616162169,
    16.323727426202));
#769 = CARTESIAN_POINT('',(31.686478263522,-4.468855110044,
    16.031363355946));
#770 = CARTESIAN_POINT('',(31.681364788872,-4.504509041646,
    15.736810133463));
#771 = CARTESIAN_POINT('',(31.679695240351,-4.516216662675,
    15.441405775999));
#772 = CARTESIAN_POINT('',(31.681405932849,-4.50441823939,
    15.146330046972));
#773 = CARTESIAN_POINT('',(31.690061785947,-4.443048625414,
    14.634602665641));
#774 = CARTESIAN_POINT('',(31.695542360116,-4.404009478721,
    14.417419545256));
#775 = CARTESIAN_POINT('',(31.702763461407,-4.352125669233,
    14.201488151774));
#776 = CARTESIAN_POINT('',(31.711651715222,-4.287356292406,
    13.987297179136));
#777 = CARTESIAN_POINT('',(31.722110321676,-4.209592267496,
    13.775383527183));
#778 = CARTESIAN_POINT('',(31.73401684129,-4.118647273879,
    13.566335434024));
#779 = CARTESIAN_POINT('',(31.751977157509,-3.976604560068,
    13.286777352622));
#780 = CARTESIAN_POINT('',(31.756901011476,-3.937245401061,
    13.213212354016));
#781 = CARTESIAN_POINT('',(31.761985929742,-3.896125350765,
    13.140138269993));
#782 = CARTESIAN_POINT('',(31.767224195187,-3.85323009633,
    13.067589312592));
#783 = CARTESIAN_POINT('',(31.772607455812,-3.808544197305,
    12.995602103811));
#784 = CARTESIAN_POINT('',(31.778126724739,-3.762051085634,
    12.924215675606));
#785 = CARTESIAN_POINT('',(31.791317354629,-3.649159832932,
    12.758927404083));
#786 = CARTESIAN_POINT('',(31.799087856989,-3.581328638813,
    12.66553239628));
#787 = CARTESIAN_POINT('',(31.807060949941,-3.510195946826,
    12.573383799053));
#788 = CARTESIAN_POINT('',(31.815211098584,-3.435717379874,
    12.482591506624));
#789 = CARTESIAN_POINT('',(31.823509977434,-3.357847979788,
    12.39327792694));
#790 = CARTESIAN_POINT('',(31.831926277396,-3.276542466876,
    12.305577953752));
#791 = CARTESIAN_POINT('',(31.851120914043,-3.085059943072,
    12.11149365046));
#792 = CARTESIAN_POINT('',(31.861946640296,-2.972860370441,
    12.006146311975));
#793 = CARTESIAN_POINT('',(31.872835005888,-2.855061128542,
    11.903883015684));
#794 = CARTESIAN_POINT('',(31.88370745456,-2.731586357543,11.80504609416
    ));
#795 = CARTESIAN_POINT('',(31.894475064265,-2.602389154767,
    11.710028485073));
#796 = CARTESIAN_POINT('',(31.905039052044,-2.467460738647,
    11.619268096173));
#797 = CARTESIAN_POINT('',(31.923092907611,-2.219831269052,
    11.467779091535));
#798 = CARTESIAN_POINT('',(31.930713428712,-2.109534213294,
    11.405062582433));
#799 = CARTESIAN_POINT('',(31.93810517043,-1.995973158623,
    11.345305385535));
#800 = CARTESIAN_POINT('',(31.945216319143,-1.87920163804,
    11.288741147658));
#801 = CARTESIAN_POINT('',(31.951992482588,-1.759308901534,
    11.235616885781));
#802 = CARTESIAN_POINT('',(31.958378253076,-1.636426813309,
    11.186185452953));
#803 = CARTESIAN_POINT('',(31.973771741715,-1.310729845815,
    11.068315164684));
#804 = CARTESIAN_POINT('',(31.982103644562,-1.103480741096,
    11.005870245331));
#805 = CARTESIAN_POINT('',(31.989082058022,-0.889913413091,
    10.954473392964));
#806 = CARTESIAN_POINT('',(31.994492826706,-0.671195553743,
    10.91510108946));
#807 = CARTESIAN_POINT('',(31.998165238973,-0.448759117742,
    10.88854027763));
#808 = CARTESIAN_POINT('',(32.,-0.224334736917,10.875268241579));
#809 = CARTESIAN_POINT('',(32.,-7.993605777301E-15,10.875268241579));
#810 = PCURVE('',#31,#811);
#811 = DEFINITIONAL_REPRESENTATION('',(#812),#881);
#812 = B_SPLINE_CURVE_WITH_KNOTS('',7,(#813,#814,#815,#816,#817,#818,
    #819,#820,#821,#822,#823,#824,#825,#826,#827,#828,#829,#830,#831,
    #832,#833,#834,#835,#836,#837,#838,#839,#840,#841,#842,#843,#844,
    #845,#846,#847,#848,#849,#850,#851,#852,#853,#854,#855,#856,#857,
    #858,#859,#860,#861,#862,#863,#864,#865,#866,#867,#868,#869,#870,
    #871,#872,#873,#874,#875,#876,#877,#878,#879,#880),.UNSPECIFIED.,.F.
  ,.F.,(8,6,6,6,6,6,6,6,6,6,6,8),(0.,0.126734972683,0.202662407757,
    0.294693477175,0.363030256391,0.535062885958,0.662739912795,
    0.708723447326,0.770176823906,0.847509489619,0.906357265216,1.),
  .UNSPECIFIED.);
#813 = CARTESIAN_POINT('',(-6.28318530718,-19.59779423689));
#814 = CARTESIAN_POINT('',(-6.273696263529,-19.59779423689));
#815 = CARTESIAN_POINT('',(-6.264201372062,-19.57626476565));
#816 = CARTESIAN_POINT('',(-6.254827033448,-19.53315956581));
#817 = CARTESIAN_POINT('',(-6.245677913996,-19.46937125141));
#818 = CARTESIAN_POINT('',(-6.236841760151,-19.38626257314));
#819 = CARTESIAN_POINT('',(-6.228390239061,-19.28560228027));
#820 = CARTESIAN_POINT('',(-6.215580067666,-19.0999090399));
#821 = CARTESIAN_POINT('',(-6.210936007567,-19.02474668928));
#822 = CARTESIAN_POINT('',(-6.206456921085,-18.94439159341));
#823 = CARTESIAN_POINT('',(-6.202149797414,-18.85924730071));
#824 = CARTESIAN_POINT('',(-6.198019307529,-18.76971015293));
#825 = CARTESIAN_POINT('',(-6.194068202055,-18.67615819604));
#826 = CARTESIAN_POINT('',(-6.185727523184,-18.46110276171));
#827 = CARTESIAN_POINT('',(-6.181422998711,-18.33788769141));
#828 = CARTESIAN_POINT('',(-6.177385710003,-18.20990550587));
#829 = CARTESIAN_POINT('',(-6.17361489026,-18.07772378134));
#830 = CARTESIAN_POINT('',(-6.170107963287,-17.94185903236));
#831 = CARTESIAN_POINT('',(-6.166861075209,-17.80276869962));
#832 = CARTESIAN_POINT('',(-6.161648354654,-17.55545768653));
#833 = CARTESIAN_POINT('',(-6.159568029595,-17.44851409966));
#834 = CARTESIAN_POINT('',(-6.157626800584,-17.34017494171));
#835 = CARTESIAN_POINT('',(-6.15582273892,-17.23059106329));
#836 = CARTESIAN_POINT('',(-6.154153878796,-17.11990129421));
#837 = CARTESIAN_POINT('',(-6.152618258489,-17.00823213652));
#838 = CARTESIAN_POINT('',(-6.147678751107,-16.61239998656));
#839 = CARTESIAN_POINT('',(-6.144977155422,-16.3237274262));
#840 = CARTESIAN_POINT('',(-6.143075876722,-16.03136335594));
#841 = CARTESIAN_POINT('',(-6.141950285287,-15.73681013346));
#842 = CARTESIAN_POINT('',(-6.141580725085,-15.44140577599));
#843 = CARTESIAN_POINT('',(-6.141953277981,-15.14633004697));
#844 = CARTESIAN_POINT('',(-6.143890060437,-14.63460266564));
#845 = CARTESIAN_POINT('',(-6.145121996791,-14.41741954525));
#846 = CARTESIAN_POINT('',(-6.146758991919,-14.20148815177));
#847 = CARTESIAN_POINT('',(-6.148801997085,-13.98729717913));
#848 = CARTESIAN_POINT('',(-6.151253983478,-13.77538352718));
#849 = CARTESIAN_POINT('',(-6.154120239601,-13.56633543402));
#850 = CARTESIAN_POINT('',(-6.158594417414,-13.28677735262));
#851 = CARTESIAN_POINT('',(-6.159833977496,-13.21321235401));
#852 = CARTESIAN_POINT('',(-6.161128764627,-13.14013826999));
#853 = CARTESIAN_POINT('',(-6.162479196227,-13.06758931259));
#854 = CARTESIAN_POINT('',(-6.163885723798,-12.99560210381));
#855 = CARTESIAN_POINT('',(-6.165348832927,-12.9242156756));
#856 = CARTESIAN_POINT('',(-6.168900684839,-12.75892740408));
#857 = CARTESIAN_POINT('',(-6.17103426762,-12.66553239628));
#858 = CARTESIAN_POINT('',(-6.173271073601,-12.57338379905));
#859 = CARTESIAN_POINT('',(-6.175612407301,-12.48259150662));
#860 = CARTESIAN_POINT('',(-6.178059589266,-12.39327792694));
#861 = CARTESIAN_POINT('',(-6.180613949558,-12.30557795375));
#862 = CARTESIAN_POINT('',(-6.18662776755,-12.11149365046));
#863 = CARTESIAN_POINT('',(-6.190150262897,-12.00614631197));
#864 = CARTESIAN_POINT('',(-6.193847131947,-11.90388301568));
#865 = CARTESIAN_POINT('',(-6.197720578361,-11.80504609416));
#866 = CARTESIAN_POINT('',(-6.201771910351,-11.71002848507));
#867 = CARTESIAN_POINT('',(-6.206001266224,-11.61926809617));
#868 = CARTESIAN_POINT('',(-6.213760226261,-11.46777909153));
#869 = CARTESIAN_POINT('',(-6.217215201457,-11.40506258243));
#870 = CARTESIAN_POINT('',(-6.220771447769,-11.34530538553));
#871 = CARTESIAN_POINT('',(-6.224427258231,-11.28874114765));
#872 = CARTESIAN_POINT('',(-6.228179825332,-11.23561688578));
#873 = CARTESIAN_POINT('',(-6.232025029698,-11.18618545295));
#874 = CARTESIAN_POINT('',(-6.242214421496,-11.06831516468));
#875 = CARTESIAN_POINT('',(-6.248696026668,-11.00587024533));
#876 = CARTESIAN_POINT('',(-6.255373259798,-10.95447339296));
#877 = CARTESIAN_POINT('',(-6.262209883316,-10.91510108946));
#878 = CARTESIAN_POINT('',(-6.269161584802,-10.88854027763));
#879 = CARTESIAN_POINT('',(-6.276174846651,-10.87526824157));
#880 = CARTESIAN_POINT('',(-6.28318530718,-10.87526824157));
#881 = ( GEOMETRIC_REPRESENTATION_CONTEXT(2) 
PARAMETRIC_REPRESENTATION_CONTEXT() REPRESENTATION_CONTEXT('2D SPACE',''
  ) );
#882 = PCURVE('',#162,#883);
#883 = DEFINITIONAL_REPRESENTATION('',(#884),#953);
#884 = B_SPLINE_CURVE_WITH_KNOTS('',7,(#885,#886,#887,#888,#889,#890,
    #891,#892,#893,#894,#895,#896,#897,#898,#899,#900,#901,#902,#903,
    #904,#905,#906,#907,#908,#909,#910,#911,#912,#913,#914,#915,#916,
    #917,#918,#919,#920,#921,#922,#923,#924,#925,#926,#927,#928,#929,
    #930,#931,#932,#933,#934,#935,#936,#937,#938,#939,#940,#941,#942,
    #943,#944,#945,#946,#947,#948,#949,#950,#951,#952),.UNSPECIFIED.,.F.
  ,.F.,(8,6,6,6,6,6,6,6,6,6,6,8),(0.,0.126734972683,0.202662407757,
    0.294693477175,0.363030256391,0.535062885958,0.662739912795,
    0.708723447326,0.770176823906,0.847509489619,0.906357265216,1.),
  .UNSPECIFIED.);
#885 = CARTESIAN_POINT('',(0.100161263516,1.570796326793));
#886 = CARTESIAN_POINT('',(0.100161263516,1.638273970534));
#887 = CARTESIAN_POINT('',(9.987934001318E-02,1.705793157419));
#888 = CARTESIAN_POINT('',(9.931486676666E-02,1.772947257785));
#889 = CARTESIAN_POINT('',(9.848991272745E-02,1.83948538862));
#890 = CARTESIAN_POINT('',(9.744287379638E-02,1.905202774779));
#891 = CARTESIAN_POINT('',(9.621950875498E-02,1.969919229317));
#892 = CARTESIAN_POINT('',(9.405645509578E-02,2.071514896004));
#893 = CARTESIAN_POINT('',(9.319915107817E-02,2.10917585607));
#894 = CARTESIAN_POINT('',(9.230455227024E-02,2.146416364638));
#895 = CARTESIAN_POINT('',(9.138197424274E-02,2.183225850736));
#896 = CARTESIAN_POINT('',(9.044016718459E-02,2.219600793434));
#897 = CARTESIAN_POINT('',(8.948705650808E-02,2.25554372975));
#898 = CARTESIAN_POINT('',(8.7368816403E-02,2.334114007415));
#899 = CARTESIAN_POINT('',(8.620168062093E-02,2.376539313107));
#900 = CARTESIAN_POINT('',(8.504029346745E-02,2.418357464162));
#901 = CARTESIAN_POINT('',(8.389485142354E-02,2.459591400986));
#902 = CARTESIAN_POINT('',(8.27736507874E-02,2.500268512588));
#903 = CARTESIAN_POINT('',(8.168320836998E-02,2.540421429291));
#904 = CARTESIAN_POINT('',(7.984513122762E-02,2.609543448808));
#905 = CARTESIAN_POINT('',(7.908156286774E-02,2.638728988449));
#906 = CARTESIAN_POINT('',(7.833970163788E-02,2.66766069125));
#907 = CARTESIAN_POINT('',(7.762115601423E-02,2.696353511437));
#908 = CARTESIAN_POINT('',(7.692716666285E-02,2.724822450709));
#909 = CARTESIAN_POINT('',(7.62586546803E-02,2.753082908363));
#910 = CARTESIAN_POINT('',(7.39991149796E-02,2.851810390468));
#911 = CARTESIAN_POINT('',(7.254816737574E-02,2.921223761021));
#912 = CARTESIAN_POINT('',(7.127276743933E-02,2.989683036885));
#913 = CARTESIAN_POINT('',(7.01738108725E-02,3.057425641123));
#914 = CARTESIAN_POINT('',(6.924660699617E-02,3.12467251583));
#915 = CARTESIAN_POINT('',(6.848301828142E-02,3.191661172465));
#916 = CARTESIAN_POINT('',(6.742005707622E-02,3.308408399167));
#917 = CARTESIAN_POINT('',(6.705190726364E-02,3.358139837024));
#918 = CARTESIAN_POINT('',(6.676422568863E-02,3.407978678016));
#919 = CARTESIAN_POINT('',(6.65523583346E-02,3.458028559421));
#920 = CARTESIAN_POINT('',(6.641117506711E-02,3.508392594026));
#921 = CARTESIAN_POINT('',(6.633506759073E-02,3.559182763883));
#922 = CARTESIAN_POINT('',(6.631181686223E-02,3.629026108992));
#923 = CARTESIAN_POINT('',(6.631331475632E-02,3.647591698606));
#924 = CARTESIAN_POINT('',(6.632218394858E-02,3.66623481437));
#925 = CARTESIAN_POINT('',(6.633813116749E-02,3.68496132102));
#926 = CARTESIAN_POINT('',(6.636085302023E-02,3.703777210453));
#927 = CARTESIAN_POINT('',(6.639003599269E-02,3.722688601723));
#928 = CARTESIAN_POINT('',(6.647255946138E-02,3.767111306058));
#929 = CARTESIAN_POINT('',(6.653072207081E-02,3.792702121212));
#930 = CARTESIAN_POINT('',(6.659907021206E-02,3.818489797695));
#931 = CARTESIAN_POINT('',(6.667679021903E-02,3.844489491725));
#932 = CARTESIAN_POINT('',(6.676302360439E-02,3.870716317939));
#933 = CARTESIAN_POINT('',(6.685686183893E-02,3.89718576278));
#934 = CARTESIAN_POINT('',(6.708378384107E-02,3.957548920253));
#935 = CARTESIAN_POINT('',(6.722072967655E-02,3.9915908647));
#936 = CARTESIAN_POINT('',(6.736627559062E-02,4.026074258659));
#937 = CARTESIAN_POINT('',(6.751833835323E-02,4.061028700032));
#938 = CARTESIAN_POINT('',(6.767466103439E-02,4.096479770197));
#939 = CARTESIAN_POINT('',(6.783281948783E-02,4.132449746994));
#940 = CARTESIAN_POINT('',(6.811001249671E-02,4.196740215037));
#941 = CARTESIAN_POINT('',(6.822935385034E-02,4.224831981323));
#942 = CARTESIAN_POINT('',(6.834711692164E-02,4.25324031125));
#943 = CARTESIAN_POINT('',(6.846209557404E-02,4.281967948676));
#944 = CARTESIAN_POINT('',(6.857304562508E-02,4.311012990299));
#945 = CARTESIAN_POINT('',(6.867871696339E-02,4.340368189315));
#946 = CARTESIAN_POINT('',(6.893568990523E-02,4.417204725688));
#947 = CARTESIAN_POINT('',(6.907713525061E-02,4.465171921208));
#948 = CARTESIAN_POINT('',(6.919711466371E-02,4.51382054289));
#949 = CARTESIAN_POINT('',(6.929092144239E-02,4.563031825446));
#950 = CARTESIAN_POINT('',(6.935485047991E-02,4.612664816671));
#951 = CARTESIAN_POINT('',(6.938678770548E-02,4.662536816625));
#952 = CARTESIAN_POINT('',(6.938678770548E-02,4.712388980385));
#953 = ( GEOMETRIC_REPRESENTATION_CONTEXT(2) 
PARAMETRIC_REPRESENTATION_CONTEXT() REPRESENTATION_CONTEXT('2D SPACE',''
  ) );
#954 = ORIENTED_EDGE('',*,*,#55,.F.);
#955 = ADVANCED_FACE('',(#956),#43,.F.);
#956 = FACE_BOUND('',#957,.F.);
#957 = EDGE_LOOP('',(#958));
#958 = ORIENTED_EDGE('',*,*,#21,.T.);
#959 = ADVANCED_FACE('',(#960),#162,.F.);
#960 = FACE_BOUND('',#961,.F.);
#961 = EDGE_LOOP('',(#962,#963,#984,#985,#1007,#1008,#1009,#1010,#1011)
  );
#962 = ORIENTED_EDGE('',*,*,#212,.F.);
#963 = ORIENTED_EDGE('',*,*,#964,.T.);
#964 = EDGE_CURVE('',#79,#360,#965,.T.);
#965 = SEAM_CURVE('',#966,(#971,#977),.PCURVE_S1.);
#966 = CIRCLE('',#967,26.);
#967 = AXIS2_PLACEMENT_3D('',#968,#969,#970);
#968 = CARTESIAN_POINT('',(40.,4.5,40.));
#969 = DIRECTION('',(0.,-1.,-0.));
#970 = DIRECTION('',(-0.384615384615,0.,-0.923076923077));
#971 = PCURVE('',#162,#972);
#972 = DEFINITIONAL_REPRESENTATION('',(#973),#976);
#973 = B_SPLINE_CURVE_WITH_KNOTS('',1,(#974,#975),.UNSPECIFIED.,.F.,.F.,
  (2,2),(0.,3.931174892989),.PIECEWISE_BEZIER_KNOTS.);
#974 = CARTESIAN_POINT('',(0.,6.28318530718));
#975 = CARTESIAN_POINT('',(3.931174892989,6.28318530718));
#976 = ( GEOMETRIC_REPRESENTATION_CONTEXT(2) 
PARAMETRIC_REPRESENTATION_CONTEXT() REPRESENTATION_CONTEXT('2D SPACE',''
  ) );
#977 = PCURVE('',#162,#978);
#978 = DEFINITIONAL_REPRESENTATION('',(#979),#983);
#979 = LINE('',#980,#981);
#980 = CARTESIAN_POINT('',(0.,0.));
#981 = VECTOR('',#982,1.);
#982 = DIRECTION('',(1.,0.));
#983 = ( GEOMETRIC_REPRESENTATION_CONTEXT(2) 
PARAMETRIC_REPRESENTATION_CONTEXT() REPRESENTATION_CONTEXT('2D SPACE',''
  ) );
#984 = ORIENTED_EDGE('',*,*,#359,.T.);
#985 = ORIENTED_EDGE('',*,*,#986,.T.);
#986 = EDGE_CURVE('',#328,#574,#987,.T.);
#987 = SURFACE_CURVE('',#988,(#993,#1000),.PCURVE_S1.);
#988 = CIRCLE('',#989,4.5);
#989 = AXIS2_PLACEMENT_3D('',#990,#991,#992);
#990 = CARTESIAN_POINT('',(30.,0.,64.));
#991 = DIRECTION('',(-0.704142011834,0.,-0.710059171598));
#992 = DIRECTION('',(0.,1.,0.));
#993 = PCURVE('',#162,#994);
#994 = DEFINITIONAL_REPRESENTATION('',(#995),#999);
#995 = LINE('',#996,#997);
#996 = CARTESIAN_POINT('',(3.931174892989,0.));
#997 = VECTOR('',#998,1.);
#998 = DIRECTION('',(0.,1.));
#999 = ( GEOMETRIC_REPRESENTATION_CONTEXT(2) 
PARAMETRIC_REPRESENTATION_CONTEXT() REPRESENTATION_CONTEXT('2D SPACE',''
  ) );
#1000 = PCURVE('',#347,#1001);
#1001 = DEFINITIONAL_REPRESENTATION('',(#1002),#1006);
#1002 = CIRCLE('',#1003,4.5);
#1003 = AXIS2_PLACEMENT_2D('',#1004,#1005);
#1004 = CARTESIAN_POINT('',(0.,0.));
#1005 = DIRECTION('',(0.,1.));
#1006 = ( GEOMETRIC_REPRESENTATION_CONTEXT(2) 
PARAMETRIC_REPRESENTATION_CONTEXT() REPRESENTATION_CONTEXT('2D SPACE',''
  ) );
#1007 = ORIENTED_EDGE('',*,*,#573,.T.);
#1008 = ORIENTED_EDGE('',*,*,#397,.T.);
#1009 = ORIENTED_EDGE('',*,*,#964,.F.);
#1010 = ORIENTED_EDGE('',*,*,#78,.F.);
#1011 = ORIENTED_EDGE('',*,*,#739,.F.);
#1012 = ADVANCED_FACE('',(#1013),#347,.T.);
#1013 = FACE_BOUND('',#1014,.T.);
#1014 = EDGE_LOOP('',(#1015,#1016,#1017));
#1015 = ORIENTED_EDGE('',*,*,#327,.F.);
#1016 = ORIENTED_EDGE('',*,*,#986,.T.);
#1017 = ORIENTED_EDGE('',*,*,#713,.F.);
#1018 = ADVANCED_FACE('',(#1019,#1022),#560,.T.);
#1019 = FACE_BOUND('',#1020,.T.);
#1020 = EDGE_LOOP('',(#1021));
#1021 = ORIENTED_EDGE('',*,*,#545,.T.);
#1022 = FACE_BOUND('',#1023,.T.);
#1023 = EDGE_LOOP('',(#1024));
#1024 = ORIENTED_EDGE('',*,*,#1025,.F.);
#1025 = EDGE_CURVE('',#1026,#1026,#1028,.T.);
#1026 = VERTEX_POINT('',#1027);
#1027 = CARTESIAN_POINT('',(28.,0.,78.));
#1028 = SURFACE_CURVE('',#1029,(#1034,#1041),.PCURVE_S1.);
#1029 = CIRCLE('',#1030,28.);
#1030 = AXIS2_PLACEMENT_3D('',#1031,#1032,#1033);
#1031 = CARTESIAN_POINT('',(0.,0.,78.));
#1032 = DIRECTION('',(0.,0.,1.));
#1033 = DIRECTION('',(1.,0.,0.));
#1034 = PCURVE('',#560,#1035);
#1035 = DEFINITIONAL_REPRESENTATION('',(#1036),#1040);
#1036 = CIRCLE('',#1037,28.);
#1037 = AXIS2_PLACEMENT_2D('',#1038,#1039);
#1038 = CARTESIAN_POINT('',(2.051160198809E-15,-2.796030478528E-15));
#1039 = DIRECTION('',(1.,0.));
#1040 = ( GEOMETRIC_REPRESENTATION_CONTEXT(2) 
PARAMETRIC_REPRESENTATION_CONTEXT() REPRESENTATION_CONTEXT('2D SPACE',''
  ) );
#1041 = PCURVE('',#1042,#1047);
#1042 = CYLINDRICAL_SURFACE('',#1043,28.);
#1043 = AXIS2_PLACEMENT_3D('',#1044,#1045,#1046);
#1044 = CARTESIAN_POINT('',(0.,0.,0.));
#1045 = DIRECTION('',(-0.,-0.,-1.));
#1046 = DIRECTION('',(1.,0.,0.));
#1047 = DEFINITIONAL_REPRESENTATION('',(#1048),#1052);
#1048 = LINE('',#1049,#1050);
#1049 = CARTESIAN_POINT('',(-0.,-78.));
#1050 = VECTOR('',#1051,1.);
#1051 = DIRECTION('',(-1.,0.));
#1052 = ( GEOMETRIC_REPRESENTATION_CONTEXT(2) 
PARAMETRIC_REPRESENTATION_CONTEXT() REPRESENTATION_CONTEXT('2D SPACE',''
  ) );
#1053 = ADVANCED_FACE('',(#1054),#1042,.F.);
#1054 = FACE_BOUND('',#1055,.T.);
#1055 = EDGE_LOOP('',(#1056,#1089,#1112,#1144,#1218,#1239,#1240,#1241,
    #1306,#1331));
#1056 = ORIENTED_EDGE('',*,*,#1057,.T.);
#1057 = EDGE_CURVE('',#1058,#1058,#1060,.T.);
#1058 = VERTEX_POINT('',#1059);
#1059 = CARTESIAN_POINT('',(28.,-3.429011037613E-15,4.));
#1060 = SURFACE_CURVE('',#1061,(#1066,#1073),.PCURVE_S1.);
#1061 = CIRCLE('',#1062,28.);
#1062 = AXIS2_PLACEMENT_3D('',#1063,#1064,#1065);
#1063 = CARTESIAN_POINT('',(0.,0.,4.));
#1064 = DIRECTION('',(0.,0.,-1.));
#1065 = DIRECTION('',(1.,0.,0.));
#1066 = PCURVE('',#1042,#1067);
#1067 = DEFINITIONAL_REPRESENTATION('',(#1068),#1072);
#1068 = LINE('',#1069,#1070);
#1069 = CARTESIAN_POINT('',(-6.28318530718,-4.));
#1070 = VECTOR('',#1071,1.);
#1071 = DIRECTION('',(1.,-0.));
#1072 = ( GEOMETRIC_REPRESENTATION_CONTEXT(2) 
PARAMETRIC_REPRESENTATION_CONTEXT() REPRESENTATION_CONTEXT('2D SPACE',''
  ) );
#1073 = PCURVE('',#1074,#1079);
#1074 = PLANE('',#1075);
#1075 = AXIS2_PLACEMENT_3D('',#1076,#1077,#1078);
#1076 = CARTESIAN_POINT('',(-2.051160198809E-15,2.796030478528E-15,4.));
#1077 = DIRECTION('',(0.,0.,1.));
#1078 = DIRECTION('',(1.,0.,-0.));
#1079 = DEFINITIONAL_REPRESENTATION('',(#1080),#1088);
#1080 = ( BOUNDED_CURVE() B_SPLINE_CURVE(2,(#1081,#1082,#1083,#1084,
#1085,#1086,#1087),.UNSPECIFIED.,.T.,.F.) B_SPLINE_CURVE_WITH_KNOTS((1,2
    ,2,2,2,1),(-2.094395102393,0.,2.094395102393,4.188790204786,
6.28318530718,8.377580409573),.UNSPECIFIED.) CURVE() 
GEOMETRIC_REPRESENTATION_ITEM() RATIONAL_B_SPLINE_CURVE((1.,0.5,1.,0.5,
1.,0.5,1.)) REPRESENTATION_ITEM('') );
#1081 = CARTESIAN_POINT('',(28.,-2.796030478528E-15));
#1082 = CARTESIAN_POINT('',(28.,-48.49742261192));
#1083 = CARTESIAN_POINT('',(-14.,-24.24871130596));
#1084 = CARTESIAN_POINT('',(-56.,-9.654052553753E-15));
#1085 = CARTESIAN_POINT('',(-14.,24.248711305964));
#1086 = CARTESIAN_POINT('',(28.,48.497422611929));
#1087 = CARTESIAN_POINT('',(28.,-2.796030478528E-15));
#1088 = ( GEOMETRIC_REPRESENTATION_CONTEXT(2) 
PARAMETRIC_REPRESENTATION_CONTEXT() REPRESENTATION_CONTEXT('2D SPACE',''
  ) );
#1089 = ORIENTED_EDGE('',*,*,#1090,.T.);
#1090 = EDGE_CURVE('',#1058,#1091,#1093,.T.);
#1091 = VERTEX_POINT('',#1092);
#1092 = CARTESIAN_POINT('',(28.,0.,65.983333333333));
#1093 = SEAM_CURVE('',#1094,(#1098,#1105),.PCURVE_S1.);
#1094 = LINE('',#1095,#1096);
#1095 = CARTESIAN_POINT('',(28.,0.,0.));
#1096 = VECTOR('',#1097,1.);
#1097 = DIRECTION('',(0.,0.,1.));
#1098 = PCURVE('',#1042,#1099);
#1099 = DEFINITIONAL_REPRESENTATION('',(#1100),#1104);
#1100 = LINE('',#1101,#1102);
#1101 = CARTESIAN_POINT('',(-6.28318530718,0.));
#1102 = VECTOR('',#1103,1.);
#1103 = DIRECTION('',(-0.,-1.));
#1104 = ( GEOMETRIC_REPRESENTATION_CONTEXT(2) 
PARAMETRIC_REPRESENTATION_CONTEXT() REPRESENTATION_CONTEXT('2D SPACE',''
  ) );
#1105 = PCURVE('',#1042,#1106);
#1106 = DEFINITIONAL_REPRESENTATION('',(#1107),#1111);
#1107 = LINE('',#1108,#1109);
#1108 = CARTESIAN_POINT('',(-0.,0.));
#1109 = VECTOR('',#1110,1.);
#1110 = DIRECTION('',(-0.,-1.));
#1111 = ( GEOMETRIC_REPRESENTATION_CONTEXT(2) 
PARAMETRIC_REPRESENTATION_CONTEXT() REPRESENTATION_CONTEXT('2D SPACE',''
  ) );
#1112 = ORIENTED_EDGE('',*,*,#1113,.F.);
#1113 = EDGE_CURVE('',#1114,#1091,#1116,.T.);
#1114 = VERTEX_POINT('',#1115);
#1115 = CARTESIAN_POINT('',(27.807924066305,3.27404323774,
    66.173808634247));
#1116 = SURFACE_CURVE('',#1117,(#1122,#1132),.PCURVE_S1.);
#1117 = ELLIPSE('',#1118,39.433333333333,28.);
#1118 = AXIS2_PLACEMENT_3D('',#1119,#1120,#1121);
#1119 = CARTESIAN_POINT('',(0.,0.,93.75));
#1120 = DIRECTION('',(-0.704142011834,5.782340621205E-16,-0.710059171598
    ));
#1121 = DIRECTION('',(0.710059171598,-5.830931718862E-16,-0.704142011834
    ));
#1122 = PCURVE('',#1042,#1123);
#1123 = DEFINITIONAL_REPRESENTATION('',(#1124),#1131);
#1124 = B_SPLINE_CURVE_WITH_KNOTS('',5,(#1125,#1126,#1127,#1128,#1129,
    #1130),.UNSPECIFIED.,.F.,.F.,(6,6),(6.089112182633,6.28318530718),
  .PIECEWISE_BEZIER_KNOTS.);
#1125 = CARTESIAN_POINT('',(-0.194073124547,-66.50460125493));
#1126 = CARTESIAN_POINT('',(-0.155258499637,-66.29674893854));
#1127 = CARTESIAN_POINT('',(-0.116443874728,-66.14020562673));
#1128 = CARTESIAN_POINT('',(-7.762924981875E-02,-66.03562399941));
#1129 = CARTESIAN_POINT('',(-3.881462490937E-02,-65.98333333333));
#1130 = CARTESIAN_POINT('',(8.881784197001E-16,-65.98333333333));
#1131 = ( GEOMETRIC_REPRESENTATION_CONTEXT(2) 
PARAMETRIC_REPRESENTATION_CONTEXT() REPRESENTATION_CONTEXT('2D SPACE',''
  ) );
#1132 = PCURVE('',#1133,#1138);
#1133 = PLANE('',#1134);
#1134 = AXIS2_PLACEMENT_3D('',#1135,#1136,#1137);
#1135 = CARTESIAN_POINT('',(30.,0.,64.));
#1136 = DIRECTION('',(-0.704142011834,5.782340621205E-16,-0.710059171598
    ));
#1137 = DIRECTION('',(-0.710059171598,0.,0.704142011834));
#1138 = DEFINITIONAL_REPRESENTATION('',(#1139),#1143);
#1139 = ELLIPSE('',#1140,39.433333333333,28.);
#1140 = AXIS2_PLACEMENT_2D('',#1141,#1142);
#1141 = CARTESIAN_POINT('',(42.25,-4.733165431326E-30));
#1142 = DIRECTION('',(-1.,-5.830931718862E-16));
#1143 = ( GEOMETRIC_REPRESENTATION_CONTEXT(2) 
PARAMETRIC_REPRESENTATION_CONTEXT() REPRESENTATION_CONTEXT('2D SPACE',''
  ) );
#1144 = ORIENTED_EDGE('',*,*,#1145,.F.);
#1145 = EDGE_CURVE('',#1146,#1114,#1148,.T.);
#1146 = VERTEX_POINT('',#1147);
#1147 = CARTESIAN_POINT('',(28.,0.,67.71732310307));
#1148 = SURFACE_CURVE('',#1149,(#1167,#1188),.PCURVE_S1.);
#1149 = B_SPLINE_CURVE_WITH_KNOTS('',6,(#1150,#1151,#1152,#1153,#1154,
    #1155,#1156,#1157,#1158,#1159,#1160,#1161,#1162,#1163,#1164,#1165,
    #1166),.UNSPECIFIED.,.F.,.F.,(7,5,5,7),(0.,0.314281299795,
    0.493147326517,1.),.UNSPECIFIED.);
#1150 = CARTESIAN_POINT('',(28.,-7.839132220975E-15,67.71732310307));
#1151 = CARTESIAN_POINT('',(28.,0.214687884252,67.71732310307));
#1152 = CARTESIAN_POINT('',(27.998024705259,0.429455659283,
    67.703829725937));
#1153 = CARTESIAN_POINT('',(27.994071152595,0.641988637758,
    67.676825553283));
#1154 = CARTESIAN_POINT('',(27.988278288512,0.850433421075,
    67.636987911821));
#1155 = CARTESIAN_POINT('',(27.980870073066,1.053317103649,
    67.585350729512));
#1156 = CARTESIAN_POINT('',(27.967118693501,1.361162754891,
    67.487777601557));
#1157 = CARTESIAN_POINT('',(27.961690319278,1.470687441415,
    67.448959889559));
#1158 = CARTESIAN_POINT('',(27.955867016167,1.57790793148,
    67.406929318903));
#1159 = CARTESIAN_POINT('',(27.949696125881,1.68270380932,
    67.361907038619));
#1160 = CARTESIAN_POINT('',(27.943224191377,1.784997735154,
    67.314109197599));
#1161 = CARTESIAN_POINT('',(27.917424936367,2.167404976063,
    67.120991856653));
#1162 = CARTESIAN_POINT('',(27.896305616095,2.429341762961,
    66.957709614278));
#1163 = CARTESIAN_POINT('',(27.874096177002,2.670240102014,
    66.778232137869));
#1164 = CARTESIAN_POINT('',(27.851609917903,2.890616790724,
    66.586167847889));
#1165 = CARTESIAN_POINT('',(27.82941773934,3.091487790466,
    66.384182445638));
#1166 = CARTESIAN_POINT('',(27.807924066305,3.27404323774,
    66.173808634247));
#1167 = PCURVE('',#1042,#1168);
#1168 = DEFINITIONAL_REPRESENTATION('',(#1169),#1187);
#1169 = B_SPLINE_CURVE_WITH_KNOTS('',6,(#1170,#1171,#1172,#1173,#1174,
    #1175,#1176,#1177,#1178,#1179,#1180,#1181,#1182,#1183,#1184,#1185,
    #1186),.UNSPECIFIED.,.F.,.F.,(7,5,5,7),(0.,0.314281299795,
    0.493147326517,1.),.UNSPECIFIED.);
#1170 = CARTESIAN_POINT('',(0.,-67.71732310307));
#1171 = CARTESIAN_POINT('',(-7.667424437581E-03,-67.71732310307));
#1172 = CARTESIAN_POINT('',(-1.533770210106E-02,-67.70382972593));
#1173 = CARTESIAN_POINT('',(-2.292897701133E-02,-67.67682555328));
#1174 = CARTESIAN_POINT('',(-3.037587100057E-02,-67.63698791182));
#1175 = CARTESIAN_POINT('',(-3.762630536606E-02,-67.58535072951));
#1176 = CARTESIAN_POINT('',(-4.863175655642E-02,-67.48777760155));
#1177 = CARTESIAN_POINT('',(-5.254810716996E-02,-67.44895988955));
#1178 = CARTESIAN_POINT('',(-5.638299137629E-02,-67.4069293189));
#1179 = CARTESIAN_POINT('',(-6.013212916387E-02,-67.36190703861));
#1180 = CARTESIAN_POINT('',(-6.37927564055E-02,-67.31410919759));
#1181 = CARTESIAN_POINT('',(-7.748120395252E-02,-67.12099185665));
#1182 = CARTESIAN_POINT('',(-8.686564173613E-02,-66.95770961427));
#1183 = CARTESIAN_POINT('',(-9.550490335398E-02,-66.77823213786));
#1184 = CARTESIAN_POINT('',(-0.103415927653,-66.58616784788));
#1185 = CARTESIAN_POINT('',(-0.110633354527,-66.38418244563));
#1186 = CARTESIAN_POINT('',(-0.117198225995,-66.17380863424));
#1187 = ( GEOMETRIC_REPRESENTATION_CONTEXT(2) 
PARAMETRIC_REPRESENTATION_CONTEXT() REPRESENTATION_CONTEXT('2D SPACE',''
  ) );
#1188 = PCURVE('',#1189,#1198);
#1189 = SURFACE_OF_REVOLUTION('',#1190,#1195);
#1190 = CIRCLE('',#1191,4.5);
#1191 = AXIS2_PLACEMENT_3D('',#1192,#1193,#1194);
#1192 = CARTESIAN_POINT('',(30.,0.,16.));
#1193 = DIRECTION('',(1.,0.,0.));
#1194 = DIRECTION('',(0.,1.,0.));
#1195 = AXIS1_PLACEMENT('',#1196,#1197);
#1196 = CARTESIAN_POINT('',(40.,0.,40.));
#1197 = DIRECTION('',(0.,-1.,-0.));
#1198 = DEFINITIONAL_REPRESENTATION('',(#1199),#1217);
#1199 = B_SPLINE_CURVE_WITH_KNOTS('',6,(#1200,#1201,#1202,#1203,#1204,
    #1205,#1206,#1207,#1208,#1209,#1210,#1211,#1212,#1213,#1214,#1215,
    #1216),.UNSPECIFIED.,.F.,.F.,(7,5,5,7),(0.,0.314281299795,
    0.493147326517,1.),.UNSPECIFIED.);
#1200 = CARTESIAN_POINT('',(3.887627241548,4.712388980385));
#1201 = CARTESIAN_POINT('',(3.887627241548,4.760097399107));
#1202 = CARTESIAN_POINT('',(3.887999490723,4.807823531759));
#1203 = CARTESIAN_POINT('',(3.888744459011,4.855248741682));
#1204 = CARTESIAN_POINT('',(3.889844555368,4.902156342778));
#1205 = CARTESIAN_POINT('',(3.891273265164,4.94837269181));
#1206 = CARTESIAN_POINT('',(3.893979840163,5.019583034999));
#1207 = CARTESIAN_POINT('',(3.895057784936,5.045149468048));
#1208 = CARTESIAN_POINT('',(3.896226470405,5.070436537677));
#1209 = CARTESIAN_POINT('',(3.897480221637,5.095433983655));
#1210 = CARTESIAN_POINT('',(3.898813504917,5.120137657021));
#1211 = CARTESIAN_POINT('',(3.904210272958,5.213720748269));
#1212 = CARTESIAN_POINT('',(3.908792982702,5.280470589467));
#1213 = CARTESIAN_POINT('',(3.913858999957,5.344967714639));
#1214 = CARTESIAN_POINT('',(3.919317584437,5.407405274743));
#1215 = CARTESIAN_POINT('',(3.925101448236,5.468021573124));
#1216 = CARTESIAN_POINT('',(3.931174892989,5.527155094764));
#1217 = ( GEOMETRIC_REPRESENTATION_CONTEXT(2) 
PARAMETRIC_REPRESENTATION_CONTEXT() REPRESENTATION_CONTEXT('2D SPACE',''
  ) );
#1218 = ORIENTED_EDGE('',*,*,#1219,.T.);
#1219 = EDGE_CURVE('',#1146,#1026,#1220,.T.);
#1220 = SEAM_CURVE('',#1221,(#1225,#1232),.PCURVE_S1.);
#1221 = LINE('',#1222,#1223);
#1222 = CARTESIAN_POINT('',(28.,0.,0.));
#1223 = VECTOR('',#1224,1.);
#1224 = DIRECTION('',(0.,0.,1.));
#1225 = PCURVE('',#1042,#1226);
#1226 = DEFINITIONAL_REPRESENTATION('',(#1227),#1231);
#1227 = LINE('',#1228,#1229);
#1228 = CARTESIAN_POINT('',(-6.28318530718,0.));
#1229 = VECTOR('',#1230,1.);
#1230 = DIRECTION('',(-0.,-1.));
#1231 = ( GEOMETRIC_REPRESENTATION_CONTEXT(2) 
PARAMETRIC_REPRESENTATION_CONTEXT() REPRESENTATION_CONTEXT('2D SPACE',''
  ) );
#1232 = PCURVE('',#1042,#1233);
#1233 = DEFINITIONAL_REPRESENTATION('',(#1234),#1238);
#1234 = LINE('',#1235,#1236);
#1235 = CARTESIAN_POINT('',(-0.,0.));
#1236 = VECTOR('',#1237,1.);
#1237 = DIRECTION('',(-0.,-1.));
#1238 = ( GEOMETRIC_REPRESENTATION_CONTEXT(2) 
PARAMETRIC_REPRESENTATION_CONTEXT() REPRESENTATION_CONTEXT('2D SPACE',''
  ) );
#1239 = ORIENTED_EDGE('',*,*,#1025,.T.);
#1240 = ORIENTED_EDGE('',*,*,#1219,.F.);
#1241 = ORIENTED_EDGE('',*,*,#1242,.F.);
#1242 = EDGE_CURVE('',#1243,#1146,#1245,.T.);
#1243 = VERTEX_POINT('',#1244);
#1244 = CARTESIAN_POINT('',(27.807924066305,-3.27404323774,
    66.173808634247));
#1245 = SURFACE_CURVE('',#1246,(#1264,#1285),.PCURVE_S1.);
#1246 = B_SPLINE_CURVE_WITH_KNOTS('',6,(#1247,#1248,#1249,#1250,#1251,
    #1252,#1253,#1254,#1255,#1256,#1257,#1258,#1259,#1260,#1261,#1262,
    #1263),.UNSPECIFIED.,.F.,.F.,(7,5,5,7),(0.,0.507681810969,
    0.686508777083,1.),.UNSPECIFIED.);
#1247 = CARTESIAN_POINT('',(27.807924066305,-3.27404323774,
    66.173808634247));
#1248 = CARTESIAN_POINT('',(27.829452914984,-3.091189027882,
    66.384526734588));
#1249 = CARTESIAN_POINT('',(27.851682494031,-2.889959824191,
    66.586828317195));
#1250 = CARTESIAN_POINT('',(27.874206481608,-2.669158884665,
    66.779174272143));
#1251 = CARTESIAN_POINT('',(27.896450955391,-2.427765200021,
    66.958883947802));
#1252 = CARTESIAN_POINT('',(27.917597674411,-2.165261364757,
    67.122327139316));
#1253 = CARTESIAN_POINT('',(27.943403766584,-1.782186415404,
    67.315438215579));
#1254 = CARTESIAN_POINT('',(27.949867573959,-1.679857020318,
    67.363162862616));
#1255 = CARTESIAN_POINT('',(27.956029632628,-1.575028015636,
    67.408109280533));
#1256 = CARTESIAN_POINT('',(27.961843405242,-1.467777237754,
    67.450061327666));
#1257 = CARTESIAN_POINT('',(27.967261577021,-1.358225660422,
    67.488797964246));
#1258 = CARTESIAN_POINT('',(27.980963048118,-1.050767497814,
    67.585998745526));
#1259 = CARTESIAN_POINT('',(27.9883364563,-0.84833785696,67.637387942946
    ));
#1260 = CARTESIAN_POINT('',(27.994100933017,-0.640385910826,
    67.677028950427));
#1261 = CARTESIAN_POINT('',(27.998034621216,-0.428375907873,
    67.703897467595));
#1262 = CARTESIAN_POINT('',(28.,-0.214148313479,67.71732310307));
#1263 = CARTESIAN_POINT('',(28.,-7.993605777301E-15,67.71732310307));
#1264 = PCURVE('',#1042,#1265);
#1265 = DEFINITIONAL_REPRESENTATION('',(#1266),#1284);
#1266 = B_SPLINE_CURVE_WITH_KNOTS('',6,(#1267,#1268,#1269,#1270,#1271,
    #1272,#1273,#1274,#1275,#1276,#1277,#1278,#1279,#1280,#1281,#1282,
    #1283),.UNSPECIFIED.,.F.,.F.,(7,5,5,7),(0.,0.507681810969,
    0.686508777083,1.),.UNSPECIFIED.);
#1267 = CARTESIAN_POINT('',(-6.165987081185,-66.17380863424));
#1268 = CARTESIAN_POINT('',(-6.172562696446,-66.38452673458));
#1269 = CARTESIAN_POINT('',(-6.179792984726,-66.58682831719));
#1270 = CARTESIAN_POINT('',(-6.187719217058,-66.77917427214));
#1271 = CARTESIAN_POINT('',(-6.196376205133,-66.9588839478));
#1272 = CARTESIAN_POINT('',(-6.205780902352,-67.12232713931));
#1273 = CARTESIAN_POINT('',(-6.219493159048,-67.31543821557));
#1274 = CARTESIAN_POINT('',(-6.223155032176,-67.36316286261));
#1275 = CARTESIAN_POINT('',(-6.226905332443,-67.40810928053));
#1276 = CARTESIAN_POINT('',(-6.230741278276,-67.45006132766));
#1277 = CARTESIAN_POINT('',(-6.234658570056,-67.48879796424));
#1278 = CARTESIAN_POINT('',(-6.245650116672,-67.58599874552));
#1279 = CARTESIAN_POINT('',(-6.252884302204,-67.63738794294));
#1280 = CARTESIAN_POINT('',(-6.26031357652,-67.67702895042));
#1281 = CARTESIAN_POINT('',(-6.267886167628,-67.70389746759));
#1282 = CARTESIAN_POINT('',(-6.275537153127,-67.71732310307));
#1283 = CARTESIAN_POINT('',(-6.28318530718,-67.71732310307));
#1284 = ( GEOMETRIC_REPRESENTATION_CONTEXT(2) 
PARAMETRIC_REPRESENTATION_CONTEXT() REPRESENTATION_CONTEXT('2D SPACE',''
  ) );
#1285 = PCURVE('',#1189,#1286);
#1286 = DEFINITIONAL_REPRESENTATION('',(#1287),#1305);
#1287 = B_SPLINE_CURVE_WITH_KNOTS('',6,(#1288,#1289,#1290,#1291,#1292,
    #1293,#1294,#1295,#1296,#1297,#1298,#1299,#1300,#1301,#1302,#1303,
    #1304),.UNSPECIFIED.,.F.,.F.,(7,5,5,7),(0.,0.507681810969,
    0.686508777083,1.),.UNSPECIFIED.);
#1288 = CARTESIAN_POINT('',(3.931174892989,3.897622866005));
#1289 = CARTESIAN_POINT('',(3.925091508692,3.956853163085));
#1290 = CARTESIAN_POINT('',(3.919298672156,4.017570915034));
#1291 = CARTESIAN_POINT('',(3.913832224034,4.080116558883));
#1292 = CARTESIAN_POINT('',(3.908759835999,4.144729434517));
#1293 = CARTESIAN_POINT('',(3.904172797518,4.211603373621));
#1294 = CARTESIAN_POINT('',(3.898776422307,4.305320549796));
#1295 = CARTESIAN_POINT('',(3.897445231106,4.330025619518));
#1296 = CARTESIAN_POINT('',(3.896193636524,4.355024280991));
#1297 = CARTESIAN_POINT('',(3.895027172288,4.380312311432));
#1298 = CARTESIAN_POINT('',(3.893951510694,4.405879366762));
#1299 = CARTESIAN_POINT('',(3.891255335877,4.476986022788));
#1300 = CARTESIAN_POINT('',(3.889833508674,4.523093181999));
#1301 = CARTESIAN_POINT('',(3.888738847914,4.56988685307));
#1302 = CARTESIAN_POINT('',(3.887997621878,4.617194373183));
#1303 = CARTESIAN_POINT('',(3.887627241548,4.664800466278));
#1304 = CARTESIAN_POINT('',(3.887627241548,4.712388980385));
#1305 = ( GEOMETRIC_REPRESENTATION_CONTEXT(2) 
PARAMETRIC_REPRESENTATION_CONTEXT() REPRESENTATION_CONTEXT('2D SPACE',''
  ) );
#1306 = ORIENTED_EDGE('',*,*,#1307,.F.);
#1307 = EDGE_CURVE('',#1091,#1243,#1308,.T.);
#1308 = SURFACE_CURVE('',#1309,(#1314,#1324),.PCURVE_S1.);
#1309 = ELLIPSE('',#1310,39.433333333333,28.);
#1310 = AXIS2_PLACEMENT_3D('',#1311,#1312,#1313);
#1311 = CARTESIAN_POINT('',(0.,0.,93.75));
#1312 = DIRECTION('',(-0.704142011834,5.782340621205E-16,-0.710059171598
    ));
#1313 = DIRECTION('',(0.710059171598,-5.830931718862E-16,-0.704142011834
    ));
#1314 = PCURVE('',#1042,#1315);
#1315 = DEFINITIONAL_REPRESENTATION('',(#1316),#1323);
#1316 = B_SPLINE_CURVE_WITH_KNOTS('',5,(#1317,#1318,#1319,#1320,#1321,
    #1322),.UNSPECIFIED.,.F.,.F.,(6,6),(0.,0.194073124547),
  .PIECEWISE_BEZIER_KNOTS.);
#1317 = CARTESIAN_POINT('',(-6.28318530718,-65.98333333333));
#1318 = CARTESIAN_POINT('',(-6.24437068227,-65.98333333333));
#1319 = CARTESIAN_POINT('',(-6.205556057361,-66.03562399941));
#1320 = CARTESIAN_POINT('',(-6.166741432451,-66.14020562673));
#1321 = CARTESIAN_POINT('',(-6.127926807542,-66.29674893854));
#1322 = CARTESIAN_POINT('',(-6.089112182633,-66.50460125493));
#1323 = ( GEOMETRIC_REPRESENTATION_CONTEXT(2) 
PARAMETRIC_REPRESENTATION_CONTEXT() REPRESENTATION_CONTEXT('2D SPACE',''
  ) );
#1324 = PCURVE('',#1133,#1325);
#1325 = DEFINITIONAL_REPRESENTATION('',(#1326),#1330);
#1326 = ELLIPSE('',#1327,39.433333333333,28.);
#1327 = AXIS2_PLACEMENT_2D('',#1328,#1329);
#1328 = CARTESIAN_POINT('',(42.25,-4.733165431326E-30));
#1329 = DIRECTION('',(-1.,-5.830931718862E-16));
#1330 = ( GEOMETRIC_REPRESENTATION_CONTEXT(2) 
PARAMETRIC_REPRESENTATION_CONTEXT() REPRESENTATION_CONTEXT('2D SPACE',''
  ) );
#1331 = ORIENTED_EDGE('',*,*,#1090,.F.);
#1332 = ADVANCED_FACE('',(#1333),#1074,.T.);
#1333 = FACE_BOUND('',#1334,.T.);
#1334 = EDGE_LOOP('',(#1335));
#1335 = ORIENTED_EDGE('',*,*,#1057,.F.);
#1336 = ADVANCED_FACE('',(#1337),#1133,.T.);
#1337 = FACE_BOUND('',#1338,.T.);
#1338 = EDGE_LOOP('',(#1339,#1361,#1362));
#1339 = ORIENTED_EDGE('',*,*,#1340,.T.);
#1340 = EDGE_CURVE('',#1243,#1114,#1341,.T.);
#1341 = SURFACE_CURVE('',#1342,(#1347,#1354),.PCURVE_S1.);
#1342 = CIRCLE('',#1343,4.5);
#1343 = AXIS2_PLACEMENT_3D('',#1344,#1345,#1346);
#1344 = CARTESIAN_POINT('',(30.,0.,64.));
#1345 = DIRECTION('',(-0.704142011834,0.,-0.710059171598));
#1346 = DIRECTION('',(0.,1.,0.));
#1347 = PCURVE('',#1133,#1348);
#1348 = DEFINITIONAL_REPRESENTATION('',(#1349),#1353);
#1349 = CIRCLE('',#1350,4.5);
#1350 = AXIS2_PLACEMENT_2D('',#1351,#1352);
#1351 = CARTESIAN_POINT('',(0.,0.));
#1352 = DIRECTION('',(0.,1.));
#1353 = ( GEOMETRIC_REPRESENTATION_CONTEXT(2) 
PARAMETRIC_REPRESENTATION_CONTEXT() REPRESENTATION_CONTEXT('2D SPACE',''
  ) );
#1354 = PCURVE('',#1189,#1355);
#1355 = DEFINITIONAL_REPRESENTATION('',(#1356),#1360);
#1356 = LINE('',#1357,#1358);
#1357 = CARTESIAN_POINT('',(3.931174892989,0.));
#1358 = VECTOR('',#1359,1.);
#1359 = DIRECTION('',(0.,1.));
#1360 = ( GEOMETRIC_REPRESENTATION_CONTEXT(2) 
PARAMETRIC_REPRESENTATION_CONTEXT() REPRESENTATION_CONTEXT('2D SPACE',''
  ) );
#1361 = ORIENTED_EDGE('',*,*,#1113,.T.);
#1362 = ORIENTED_EDGE('',*,*,#1307,.T.);
#1363 = ADVANCED_FACE('',(#1364),#1189,.F.);
#1364 = FACE_BOUND('',#1365,.F.);
#1365 = EDGE_LOOP('',(#1366,#1367,#1368));
#1366 = ORIENTED_EDGE('',*,*,#1340,.T.);
#1367 = ORIENTED_EDGE('',*,*,#1145,.F.);
#1368 = ORIENTED_EDGE('',*,*,#1242,.F.);
#1369 = ( GEOMETRIC_REPRESENTATION_CONTEXT(3) 
GLOBAL_UNCERTAINTY_ASSIGNED_CONTEXT((#1373)) 
GLOBAL_UNIT_ASSIGNED_CONTEXT((#1370,#1371,#1372)) REPRESENTATION_CONTEXT
('Context #1','3D Context with UNIT and UNCERTAINTY') );
#1370 = ( LENGTH_UNIT() NAMED_UNIT(*) SI_UNIT(.MILLI.,.METRE.) );
#1371 = ( NAMED_UNIT(*) PLANE_ANGLE_UNIT() SI_UNIT($,.RADIAN.) );
#1372 = ( NAMED_UNIT(*) SI_UNIT($,.STERADIAN.) SOLID_ANGLE_UNIT() );
#1373 = UNCERTAINTY_MEASURE_WITH_UNIT(LENGTH_MEASURE(5.E-06),#1370,
  'distance_accuracy_value','confusion accuracy');
#1374 = PRODUCT_RELATED_PRODUCT_CATEGORY('part',$,(#7));
ENDSEC;
END-ISO-10303-21;
