ISO-10303-21;
HEADER;
FILE_DESCRIPTION(('Open CASCADE Model'),'2;1');
FILE_NAME('Open CASCADE Shape Model','2026-05-26T15:18:31',('Author'),(
    'Open CASCADE'),'Open CASCADE STEP processor 7.8','Open CASCADE 7.8'
  ,'Unknown');
FILE_SCHEMA(('AUTOMOTIVE_DESIGN { 1 0 10303 214 1 1 1 1 }'));
ENDSEC;
DATA;
#1 = APPLICATION_PROTOCOL_DEFINITION('international standard',
  'automotive_design',2000,#2);
#2 = APPLICATION_CONTEXT(
  'core data for automotive mechanical design processes');
#3 = SHAPE_DEFINITION_REPRESENTATION(#4,#10);
#4 = PRODUCT_DEFINITION_SHAPE('','',#5);
#5 = PRODUCT_DEFINITION('design','',#6,#9);
#6 = PRODUCT_DEFINITION_FORMATION('','',#7);
#7 = PRODUCT('Open CASCADE STEP translator 7.8 3',
  'Open CASCADE STEP translator 7.8 3','',(#8));
#8 = PRODUCT_CONTEXT('',#2,'mechanical');
#9 = PRODUCT_DEFINITION_CONTEXT('part definition',#2,'design');
#10 = ADVANCED_BREP_SHAPE_REPRESENTATION('',(#11,#15),#767);
#11 = AXIS2_PLACEMENT_3D('',#12,#13,#14);
#12 = CARTESIAN_POINT('',(0.,0.,0.));
#13 = DIRECTION('',(0.,0.,1.));
#14 = DIRECTION('',(1.,0.,-0.));
#15 = MANIFOLD_SOLID_BREP('',#16);
#16 = CLOSED_SHELL('',(#17,#759,#763));
#17 = ADVANCED_FACE('',(#18),#110,.F.);
#18 = FACE_BOUND('',#19,.F.);
#19 = EDGE_LOOP('',(#20,#690,#724,#725));
#20 = ORIENTED_EDGE('',*,*,#21,.T.);
#21 = EDGE_CURVE('',#22,#24,#26,.T.);
#22 = VERTEX_POINT('',#23);
#23 = CARTESIAN_POINT('',(18.6,-3.816391647149E-16,3.552713678801E-15));
#24 = VERTEX_POINT('',#25);
#25 = CARTESIAN_POINT('',(18.6,-4.321859523732E-08,54.000000482753));
#26 = SEAM_CURVE('',#27,(#109,#683),.PCURVE_S1.);
#27 = ( BOUNDED_CURVE() B_SPLINE_CURVE(10,(#28,#29,#30,#31,#32,#33,#34,
    #35,#36,#37,#38,#39,#40,#41,#42,#43,#44,#45,#46,#47,#48,#49,#50,#51,
    #52,#53,#54,#55,#56,#57,#58,#59,#60,#61,#62,#63,#64,#65,#66,#67,#68,
    #69,#70,#71,#72,#73,#74,#75,#76,#77,#78,#79,#80,#81,#82,#83,#84,#85,
    #86,#87,#88,#89,#90,#91,#92,#93,#94,#95,#96,#97,#98,#99,#100,#101,
    #102,#103,#104,#105,#106,#107,#108),.UNSPECIFIED.,.F.,.F.) 
B_SPLINE_CURVE_WITH_KNOTS((11,10,10,10,10,10,10,10,11),(0.,
    8.232199578633,16.464399157267,24.6965987359,32.928798314533,
    41.160997893167,49.3931974718,57.625397050433,65.857596629067),
.PIECEWISE_BEZIER_KNOTS.) CURVE() GEOMETRIC_REPRESENTATION_ITEM() 
RATIONAL_B_SPLINE_CURVE((1.669078461068,1.669078461068,1.669078461068,
    1.669078461069,1.669078461067,1.669078461069,1.669078461068,
    1.669078461069,1.669078461068,1.669078461068,1.669078461068,
    1.669078461068,1.669078461068,1.669078461068,1.669078461068,
    1.669078461069,1.669078461068,1.669078461068,1.669078461068,
    1.669078461068,1.669078461068,1.669078461068,1.669078461068,
    1.669078461068,1.669078461068,1.669078461068,1.669078461068,
    1.669078461068,1.669078461068,1.669078461068,1.669078461068,
    1.669078461068,1.669078461068,1.669078461068,1.669078461069,
    1.669078461068,1.669078461068,1.669078461068,1.669078461068,
    1.669078461068,1.669078461068,1.669078461068,1.669078461068,
    1.669078461069,1.669078461068,1.669078461069,1.669078461068,
    1.669078461069,1.669078461068,1.669078461068,1.669078461068,
    1.669078461068,1.669078461069,1.669078461067,1.669078461069,
    1.669078461067,1.669078461069,1.669078461068,1.669078461068,
    1.669078461068,1.669078461068,1.669078461068,1.669078461068,
    1.669078461068,1.669078461068,1.669078461068,1.669078461068,
    1.669078461068,1.669078461068,1.669078461068,1.669078461068,
    1.669078461068,1.669078461068,1.669078461069,1.669078461068,
    1.669078461069,1.669078461068,1.669078461068,1.669078461068,
1.669078461068,1.669078461068)) REPRESENTATION_ITEM('') );
#28 = CARTESIAN_POINT('',(18.6,-3.816391647149E-16,3.552713678801E-15));
#29 = CARTESIAN_POINT('',(18.599999995677,8.765044868343,0.675002763146)
  );
#30 = CARTESIAN_POINT('',(14.010992103967,17.530350050859,1.349992196118
    ));
#31 = CARTESIAN_POINT('',(4.829645009081,23.590223254786,2.025013822517)
  );
#32 = CARTESIAN_POINT('',(-7.108700668863,24.251286800073,2.699988280778
    ));
#33 = CARTESIAN_POINT('',(-18.21249928829,18.21249919616,3.375001744205)
  );
#34 = CARTESIAN_POINT('',(-24.25128662219,7.108700815742,4.050009386583)
  );
#35 = CARTESIAN_POINT('',(-23.59022342449,-4.82964500208,4.724988965622)
  );
#36 = CARTESIAN_POINT('',(-17.53034995585,-14.01099204471,5.400006654557
    ));
#37 = CARTESIAN_POINT('',(-8.765044994918,-18.59999997963,6.074998699068
    ));
#38 = CARTESIAN_POINT('',(-2.293720768876E-13,-18.6,6.749999999998));
#39 = CARTESIAN_POINT('',(8.765044868341,-18.59999999567,7.425002763152)
  );
#40 = CARTESIAN_POINT('',(17.530350050866,-14.01099210396,8.099992196106
    ));
#41 = CARTESIAN_POINT('',(23.590223254769,-4.829645009092,8.775013822537
    ));
#42 = CARTESIAN_POINT('',(24.251286800103,7.108700668872,9.449988280748)
  );
#43 = CARTESIAN_POINT('',(18.212499196122,18.212499288292,
    10.125001744241));
#44 = CARTESIAN_POINT('',(7.108700815779,24.251286622186,10.800009386546
    ));
#45 = CARTESIAN_POINT('',(-4.829645002105,23.590223424505,
    11.474988965652));
#46 = CARTESIAN_POINT('',(-14.0109920447,17.53034995585,12.150006654539)
  );
#47 = CARTESIAN_POINT('',(-18.59999997963,8.765044994921,12.824998699075
    ));
#48 = CARTESIAN_POINT('',(-18.6,-5.644443246133E-13,13.499999999998));
#49 = CARTESIAN_POINT('',(-18.59999999567,-8.765044868337,
    14.175002763152));
#50 = CARTESIAN_POINT('',(-14.01099210396,-17.53035005087,14.84999219611
    ));
#51 = CARTESIAN_POINT('',(-4.829645009071,-23.59022325474,
    15.525013822522));
#52 = CARTESIAN_POINT('',(7.108700668838,-24.25128680012,16.199988280779
    ));
#53 = CARTESIAN_POINT('',(18.212499288329,-18.2124991961,16.875001744199
    ));
#54 = CARTESIAN_POINT('',(24.25128662216,-7.108700815787,17.550009386588
    ));
#55 = CARTESIAN_POINT('',(23.590223424515,4.829645002104,18.22498896562)
  );
#56 = CARTESIAN_POINT('',(17.530349955848,14.01099204471,18.900006654557
    ));
#57 = CARTESIAN_POINT('',(8.765044994919,18.599999979633,19.574998699068
    ));
#58 = CARTESIAN_POINT('',(3.177458296477E-13,18.6,20.249999999999));
#59 = CARTESIAN_POINT('',(-8.76504486834,18.59999999568,20.92500276315)
  );
#60 = CARTESIAN_POINT('',(-17.53035005087,14.01099210396,21.599992196112
    ));
#61 = CARTESIAN_POINT('',(-23.59022325476,4.829645009089,22.275013822524
    ));
#62 = CARTESIAN_POINT('',(-24.25128680011,-7.10870066886,22.949988280768
    ));
#63 = CARTESIAN_POINT('',(-18.2124991961,-18.21249928831,23.625001744216
    ));
#64 = CARTESIAN_POINT('',(-7.108700815791,-24.25128662216,24.30000938657
    ));
#65 = CARTESIAN_POINT('',(4.829645002111,-23.59022342451,24.974988965634
    ));
#66 = CARTESIAN_POINT('',(14.010992044706,-17.53034995584,25.65000665455
    ));
#67 = CARTESIAN_POINT('',(18.599999979635,-8.765044994921,26.32499869907
    ));
#68 = CARTESIAN_POINT('',(18.6,2.869718351839E-13,26.999999999999));
#69 = CARTESIAN_POINT('',(18.599999999999,8.76504486834,27.675002714876)
  );
#70 = CARTESIAN_POINT('',(14.010992085441,17.530350050869,28.34999240304
    ));
#71 = CARTESIAN_POINT('',(4.829645056924,23.590223254764,29.025013288116
    ));
#72 = CARTESIAN_POINT('',(-7.108700759454,24.251286800108,
    29.699989292715));
#73 = CARTESIAN_POINT('',(-18.21249915376,18.21249919612,30.375000241438
    ));
#74 = CARTESIAN_POINT('',(-24.25128678362,7.108700815777,31.050011189906
    ));
#75 = CARTESIAN_POINT('',(-23.59022326596,-4.829645002101,31.72498719472
    ));
#76 = CARTESIAN_POINT('',(-17.53035008343,-14.01099204471,
    32.400008079644));
#77 = CARTESIAN_POINT('',(-8.765044911557,-18.59999997963,
    33.074997767898));
#78 = CARTESIAN_POINT('',(-4.32161941788E-08,-18.6,33.750000482732));
#79 = CARTESIAN_POINT('',(8.765044951705,-18.59999999568,34.425001831937
    ));
#80 = CARTESIAN_POINT('',(17.530349923278,-14.01099210395,35.09999362133
    ));
#81 = CARTESIAN_POINT('',(23.59022341333,-4.829645009095,35.775012051376
    ));
#82 = CARTESIAN_POINT('',(24.251286638624,7.108700668874,36.449990084432
    ));
#83 = CARTESIAN_POINT('',(18.212499330696,18.212499288292,
    37.125000241084));
#84 = CARTESIAN_POINT('',(7.108700725156,24.251286622192,37.800010398819
    ));
#85 = CARTESIAN_POINT('',(-4.829644954247,23.590223424492,
    38.474988431023));
#86 = CARTESIAN_POINT('',(-14.01099206323,17.530349955861,
    39.150006861574));
#87 = CARTESIAN_POINT('',(-18.59999997531,8.765044994916,39.824998650772
    ));
#88 = CARTESIAN_POINT('',(-18.6,-4.601458103437E-13,40.499999999992));
#89 = CARTESIAN_POINT('',(-18.59999999567,-8.765044868337,
    41.175002763158));
#90 = CARTESIAN_POINT('',(-14.01099210396,-17.53035005087,
    41.849992196107));
#91 = CARTESIAN_POINT('',(-4.829645009072,-23.59022325474,
    42.525013822518));
#92 = CARTESIAN_POINT('',(7.108700668834,-24.25128680013,43.199988280794
    ));
#93 = CARTESIAN_POINT('',(18.212499288341,-18.21249919609,
    43.875001744174));
#94 = CARTESIAN_POINT('',(24.251286622144,-7.108700815801,
    44.550009386619));
#95 = CARTESIAN_POINT('',(23.590223424528,4.829645002115,45.22498896559)
  );
#96 = CARTESIAN_POINT('',(17.530349955842,14.010992044705,
    45.900006654581));
#97 = CARTESIAN_POINT('',(8.765044994921,18.599999979635,46.574998699052
    ));
#98 = CARTESIAN_POINT('',(6.157296894571E-13,18.6,47.250000000007));
#99 = CARTESIAN_POINT('',(-8.765044868342,18.6,47.925002714846));
#100 = CARTESIAN_POINT('',(-17.53035005086,14.010992085439,
    48.599992403111));
#101 = CARTESIAN_POINT('',(-23.59022325477,4.829645056927,
    49.275013287985));
#102 = CARTESIAN_POINT('',(-24.25128680009,-7.108700759458,
    49.949989292909));
#103 = CARTESIAN_POINT('',(-18.21249919613,-18.21249915376,
    50.625000241205));
#104 = CARTESIAN_POINT('',(-7.108700815764,-24.25128678363,
    51.300011190134));
#105 = CARTESIAN_POINT('',(4.829645002094,-23.59022326595,
    51.974987194539));
#106 = CARTESIAN_POINT('',(14.010992044713,-17.53035008344,
    52.65000807976));
#107 = CARTESIAN_POINT('',(18.599999979633,-8.765044911552,
    53.324997767839));
#108 = CARTESIAN_POINT('',(18.6,-4.321859523732E-08,54.000000482753));
#109 = PCURVE('',#110,#678);
#110 = ( BOUNDED_SURFACE() B_SPLINE_SURFACE(6,10,(
    (#111,#112,#113,#114,#115,#116,#117,#118,#119,#120,#121,#122,#123
      ,#124,#125,#126,#127,#128,#129,#130,#131,#132,#133,#134,#135,#136
      ,#137,#138,#139,#140,#141,#142,#143,#144,#145,#146,#147,#148,#149
      ,#150,#151,#152,#153,#154,#155,#156,#157,#158,#159,#160,#161,#162
      ,#163,#164,#165,#166,#167,#168,#169,#170,#171,#172,#173,#174,#175
      ,#176,#177,#178,#179,#180,#181,#182,#183,#184,#185,#186,#187,#188
      ,#189,#190,#191)
    ,(#192,#193,#194,#195,#196,#197,#198,#199,#200,#201,#202,#203,#204
      ,#205,#206,#207,#208,#209,#210,#211,#212,#213,#214,#215,#216,#217
      ,#218,#219,#220,#221,#222,#223,#224,#225,#226,#227,#228,#229,#230
      ,#231,#232,#233,#234,#235,#236,#237,#238,#239,#240,#241,#242,#243
      ,#244,#245,#246,#247,#248,#249,#250,#251,#252,#253,#254,#255,#256
      ,#257,#258,#259,#260,#261,#262,#263,#264,#265,#266,#267,#268,#269
      ,#270,#271,#272)
    ,(#273,#274,#275,#276,#277,#278,#279,#280,#281,#282,#283,#284,#285
      ,#286,#287,#288,#289,#290,#291,#292,#293,#294,#295,#296,#297,#298
      ,#299,#300,#301,#302,#303,#304,#305,#306,#307,#308,#309,#310,#311
      ,#312,#313,#314,#315,#316,#317,#318,#319,#320,#321,#322,#323,#324
      ,#325,#326,#327,#328,#329,#330,#331,#332,#333,#334,#335,#336,#337
      ,#338,#339,#340,#341,#342,#343,#344,#345,#346,#347,#348,#349,#350
      ,#351,#352,#353)
    ,(#354,#355,#356,#357,#358,#359,#360,#361,#362,#363,#364,#365,#366
      ,#367,#368,#369,#370,#371,#372,#373,#374,#375,#376,#377,#378,#379
      ,#380,#381,#382,#383,#384,#385,#386,#387,#388,#389,#390,#391,#392
      ,#393,#394,#395,#396,#397,#398,#399,#400,#401,#402,#403,#404,#405
      ,#406,#407,#408,#409,#410,#411,#412,#413,#414,#415,#416,#417,#418
      ,#419,#420,#421,#422,#423,#424,#425,#426,#427,#428,#429,#430,#431
      ,#432,#433,#434)
    ,(#435,#436,#437,#438,#439,#440,#441,#442,#443,#444,#445,#446,#447
      ,#448,#449,#450,#451,#452,#453,#454,#455,#456,#457,#458,#459,#460
      ,#461,#462,#463,#464,#465,#466,#467,#468,#469,#470,#471,#472,#473
      ,#474,#475,#476,#477,#478,#479,#480,#481,#482,#483,#484,#485,#486
      ,#487,#488,#489,#490,#491,#492,#493,#494,#495,#496,#497,#498,#499
      ,#500,#501,#502,#503,#504,#505,#506,#507,#508,#509,#510,#511,#512
      ,#513,#514,#515)
    ,(#516,#517,#518,#519,#520,#521,#522,#523,#524,#525,#526,#527,#528
      ,#529,#530,#531,#532,#533,#534,#535,#536,#537,#538,#539,#540,#541
      ,#542,#543,#544,#545,#546,#547,#548,#549,#550,#551,#552,#553,#554
      ,#555,#556,#557,#558,#559,#560,#561,#562,#563,#564,#565,#566,#567
      ,#568,#569,#570,#571,#572,#573,#574,#575,#576,#577,#578,#579,#580
      ,#581,#582,#583,#584,#585,#586,#587,#588,#589,#590,#591,#592,#593
      ,#594,#595,#596)
    ,(#597,#598,#599,#600,#601,#602,#603,#604,#605,#606,#607,#608,#609
      ,#610,#611,#612,#613,#614,#615,#616,#617,#618,#619,#620,#621,#622
      ,#623,#624,#625,#626,#627,#628,#629,#630,#631,#632,#633,#634,#635
      ,#636,#637,#638,#639,#640,#641,#642,#643,#644,#645,#646,#647,#648
      ,#649,#650,#651,#652,#653,#654,#655,#656,#657,#658,#659,#660,#661
      ,#662,#663,#664,#665,#666,#667,#668,#669,#670,#671,#672,#673,#674
      ,#675,#676,#677
)),.UNSPECIFIED.,.T.,.F.,.F.) B_SPLINE_SURFACE_WITH_KNOTS((1,6,6,1),(11,
    10,10,10,10,10,10,10,11),(-6.28318530718,0.,6.28318530718,
    12.566370614359),(0.,8.232199578633,16.464399157267,24.6965987359,
    32.928798314533,41.160997893167,49.3931974718,57.625397050433,
65.857596629067),.UNSPECIFIED.) GEOMETRIC_REPRESENTATION_ITEM() 
RATIONAL_B_SPLINE_SURFACE((
    (1.669078461068,1.669078461068,1.669078461068,1.669078461069
      ,1.669078461067,1.669078461069,1.669078461068,1.669078461069
      ,1.669078461068,1.669078461068,1.669078461068,1.669078461068
      ,1.669078461068,1.669078461068,1.669078461068,1.669078461069
      ,1.669078461068,1.669078461068,1.669078461068,1.669078461068
      ,1.669078461068,1.669078461068,1.669078461068,1.669078461068
      ,1.669078461068,1.669078461068,1.669078461068,1.669078461068
      ,1.669078461068,1.669078461068,1.669078461068,1.669078461068
      ,1.669078461068,1.669078461068,1.669078461069,1.669078461068
      ,1.669078461068,1.669078461068,1.669078461068,1.669078461068
      ,1.669078461068,1.669078461068,1.669078461068,1.669078461069
      ,1.669078461068,1.669078461069,1.669078461068,1.669078461069
      ,1.669078461068,1.669078461068,1.669078461068,1.669078461068
      ,1.669078461069,1.669078461067,1.669078461069,1.669078461067
      ,1.669078461069,1.669078461068,1.669078461068,1.669078461068
      ,1.669078461068,1.669078461068,1.669078461068,1.669078461068
      ,1.669078461068,1.669078461068,1.669078461068,1.669078461068
      ,1.669078461068,1.669078461068,1.669078461068,1.669078461068
      ,1.669078461068,1.669078461069,1.669078461068,1.669078461069
      ,1.669078461068,1.669078461068,1.669078461068,1.669078461068
      ,1.669078461068)
    ,(1.03672962321,1.03672962321,1.036729623209,1.03672962321
      ,1.036729623209,1.03672962321,1.036729623209,1.03672962321
      ,1.036729623209,1.03672962321,1.03672962321,1.03672962321
      ,1.03672962321,1.03672962321,1.036729623209,1.03672962321
      ,1.036729623209,1.03672962321,1.03672962321,1.03672962321
      ,1.03672962321,1.03672962321,1.03672962321,1.03672962321
      ,1.036729623209,1.03672962321,1.036729623209,1.03672962321
      ,1.03672962321,1.03672962321,1.03672962321,1.03672962321
      ,1.03672962321,1.036729623209,1.03672962321,1.036729623209
      ,1.03672962321,1.03672962321,1.03672962321,1.03672962321
      ,1.03672962321,1.03672962321,1.036729623209,1.03672962321
      ,1.036729623209,1.03672962321,1.036729623209,1.03672962321
      ,1.03672962321,1.03672962321,1.03672962321,1.03672962321
      ,1.03672962321,1.036729623209,1.036729623211,1.036729623209
      ,1.03672962321,1.036729623209,1.03672962321,1.03672962321
      ,1.03672962321,1.03672962321,1.03672962321,1.03672962321
      ,1.036729623209,1.03672962321,1.036729623209,1.03672962321
      ,1.03672962321,1.03672962321,1.03672962321,1.03672962321
      ,1.03672962321,1.03672962321,1.036729623209,1.03672962321
      ,1.036729623209,1.03672962321,1.03672962321,1.03672962321
      ,1.03672962321)
    ,(1.038346699848,1.038346699848,1.038346699847,1.038346699848
      ,1.038346699847,1.038346699848,1.038346699847,1.038346699848
      ,1.038346699847,1.038346699848,1.038346699848,1.038346699848
      ,1.038346699847,1.038346699848,1.038346699847,1.038346699848
      ,1.038346699847,1.038346699848,1.038346699847,1.038346699848
      ,1.038346699848,1.038346699848,1.038346699847,1.038346699848
      ,1.038346699847,1.038346699848,1.038346699847,1.038346699848
      ,1.038346699847,1.038346699848,1.038346699848,1.038346699847
      ,1.038346699848,1.038346699847,1.038346699848,1.038346699847
      ,1.038346699848,1.038346699847,1.038346699848,1.038346699848
      ,1.038346699848,1.038346699848,1.038346699847,1.038346699848
      ,1.038346699847,1.038346699848,1.038346699847,1.038346699848
      ,1.038346699847,1.038346699848,1.038346699848,1.038346699847
      ,1.038346699848,1.038346699847,1.038346699848,1.038346699847
      ,1.038346699848,1.038346699847,1.038346699848,1.038346699847
      ,1.038346699848,1.038346699848,1.038346699848,1.038346699847
      ,1.038346699848,1.038346699847,1.038346699848,1.038346699848
      ,1.038346699847,1.038346699848,1.038346699848,1.038346699848
      ,1.038346699847,1.038346699848,1.038346699847,1.038346699848
      ,1.038346699847,1.038346699848,1.038346699847,1.038346699848
      ,1.038346699848)
    ,(0.853534330196,0.853534330196,0.853534330196,0.853534330196
      ,0.853534330196,0.853534330197,0.853534330196,0.853534330196
      ,0.853534330196,0.853534330196,0.853534330196,0.853534330196
      ,0.853534330196,0.853534330196,0.853534330196,0.853534330196
      ,0.853534330196,0.853534330196,0.853534330196,0.853534330196
      ,0.853534330196,0.853534330196,0.853534330196,0.853534330196
      ,0.853534330196,0.853534330196,0.853534330196,0.853534330196
      ,0.853534330196,0.853534330196,0.853534330196,0.853534330196
      ,0.853534330196,0.853534330196,0.853534330196,0.853534330196
      ,0.853534330196,0.853534330196,0.853534330196,0.853534330196
      ,0.853534330196,0.853534330196,0.853534330196,0.853534330196
      ,0.853534330196,0.853534330197,0.853534330196,0.853534330196
      ,0.853534330196,0.853534330196,0.853534330196,0.853534330196
      ,0.853534330196,0.853534330196,0.853534330197,0.853534330195
      ,0.853534330197,0.853534330196,0.853534330196,0.853534330196
      ,0.853534330196,0.853534330196,0.853534330196,0.853534330196
      ,0.853534330196,0.853534330196,0.853534330196,0.853534330196
      ,0.853534330196,0.853534330196,0.853534330196,0.853534330196
      ,0.853534330196,0.853534330196,0.853534330196,0.853534330196
      ,0.853534330196,0.853534330196,0.853534330196,0.853534330196
      ,0.853534330196)
    ,(1.038346699848,1.038346699848,1.038346699847,1.038346699848
      ,1.038346699847,1.038346699848,1.038346699847,1.038346699848
      ,1.038346699847,1.038346699848,1.038346699848,1.038346699848
      ,1.038346699848,1.038346699847,1.038346699848,1.038346699847
      ,1.038346699848,1.038346699847,1.038346699848,1.038346699847
      ,1.038346699848,1.038346699848,1.038346699847,1.038346699848
      ,1.038346699847,1.038346699848,1.038346699847,1.038346699848
      ,1.038346699847,1.038346699848,1.038346699848,1.038346699847
      ,1.038346699848,1.038346699847,1.038346699848,1.038346699847
      ,1.038346699848,1.038346699847,1.038346699848,1.038346699848
      ,1.038346699848,1.038346699848,1.038346699847,1.038346699848
      ,1.038346699847,1.038346699848,1.038346699847,1.038346699848
      ,1.038346699847,1.038346699848,1.038346699848,1.038346699847
      ,1.038346699848,1.038346699847,1.038346699848,1.038346699847
      ,1.038346699848,1.038346699847,1.038346699848,1.038346699847
      ,1.038346699848,1.038346699848,1.038346699847,1.038346699848
      ,1.038346699847,1.038346699848,1.038346699847,1.038346699848
      ,1.038346699847,1.038346699848,1.038346699848,1.038346699848
      ,1.038346699847,1.038346699848,1.038346699847,1.038346699848
      ,1.038346699847,1.038346699848,1.038346699847,1.038346699848
      ,1.038346699848)
    ,(1.03672962321,1.03672962321,1.036729623209,1.03672962321
      ,1.036729623209,1.03672962321,1.036729623209,1.03672962321
      ,1.03672962321,1.03672962321,1.03672962321,1.03672962321
      ,1.03672962321,1.03672962321,1.036729623209,1.03672962321
      ,1.036729623209,1.03672962321,1.03672962321,1.03672962321
      ,1.03672962321,1.03672962321,1.03672962321,1.03672962321
      ,1.03672962321,1.03672962321,1.03672962321,1.03672962321
      ,1.03672962321,1.03672962321,1.03672962321,1.03672962321
      ,1.03672962321,1.036729623209,1.03672962321,1.03672962321
      ,1.03672962321,1.03672962321,1.03672962321,1.03672962321
      ,1.03672962321,1.03672962321,1.036729623209,1.03672962321
      ,1.036729623209,1.03672962321,1.036729623209,1.03672962321
      ,1.03672962321,1.03672962321,1.03672962321,1.03672962321
      ,1.03672962321,1.036729623209,1.036729623211,1.036729623209
      ,1.03672962321,1.036729623209,1.03672962321,1.03672962321
      ,1.03672962321,1.03672962321,1.03672962321,1.03672962321
      ,1.03672962321,1.03672962321,1.03672962321,1.03672962321
      ,1.03672962321,1.03672962321,1.03672962321,1.03672962321
      ,1.03672962321,1.03672962321,1.036729623209,1.03672962321
      ,1.036729623209,1.03672962321,1.03672962321,1.03672962321
      ,1.03672962321)
    ,(1.669078461068,1.669078461068,1.669078461068,1.669078461069
      ,1.669078461067,1.669078461069,1.669078461068,1.669078461069
      ,1.669078461068,1.669078461068,1.669078461068,1.669078461068
      ,1.669078461068,1.669078461068,1.669078461068,1.669078461069
      ,1.669078461068,1.669078461068,1.669078461068,1.669078461068
      ,1.669078461068,1.669078461068,1.669078461068,1.669078461068
      ,1.669078461068,1.669078461068,1.669078461068,1.669078461068
      ,1.669078461068,1.669078461068,1.669078461068,1.669078461068
      ,1.669078461068,1.669078461068,1.669078461069,1.669078461068
      ,1.669078461068,1.669078461068,1.669078461068,1.669078461068
      ,1.669078461068,1.669078461068,1.669078461068,1.669078461069
      ,1.669078461068,1.669078461069,1.669078461068,1.669078461069
      ,1.669078461068,1.669078461068,1.669078461068,1.669078461068
      ,1.669078461069,1.669078461067,1.669078461069,1.669078461067
      ,1.669078461069,1.669078461068,1.669078461068,1.669078461068
      ,1.669078461068,1.669078461068,1.669078461068,1.669078461068
      ,1.669078461068,1.669078461068,1.669078461068,1.669078461068
      ,1.669078461068,1.669078461068,1.669078461068,1.669078461068
      ,1.669078461068,1.669078461069,1.669078461068,1.669078461069
      ,1.669078461068,1.669078461068,1.669078461068,1.669078461068
,1.669078461068))) REPRESENTATION_ITEM('') SURFACE() );
#111 = CARTESIAN_POINT('',(18.6,-3.816391647149E-16,3.552713678801E-15)
  );
#112 = CARTESIAN_POINT('',(18.599999995677,8.765044868343,0.675002763146
    ));
#113 = CARTESIAN_POINT('',(14.010992103967,17.530350050859,
    1.349992196118));
#114 = CARTESIAN_POINT('',(4.829645009081,23.590223254786,2.025013822517
    ));
#115 = CARTESIAN_POINT('',(-7.108700668863,24.251286800073,
    2.699988280778));
#116 = CARTESIAN_POINT('',(-18.21249928829,18.21249919616,3.375001744205
    ));
#117 = CARTESIAN_POINT('',(-24.25128662219,7.108700815742,4.050009386583
    ));
#118 = CARTESIAN_POINT('',(-23.59022342449,-4.82964500208,4.724988965622
    ));
#119 = CARTESIAN_POINT('',(-17.53034995585,-14.01099204471,
    5.400006654557));
#120 = CARTESIAN_POINT('',(-8.765044994918,-18.59999997963,
    6.074998699068));
#121 = CARTESIAN_POINT('',(-2.293720768876E-13,-18.6,6.749999999998));
#122 = CARTESIAN_POINT('',(8.765044868341,-18.59999999567,7.425002763152
    ));
#123 = CARTESIAN_POINT('',(17.530350050866,-14.01099210396,
    8.099992196106));
#124 = CARTESIAN_POINT('',(23.590223254769,-4.829645009092,
    8.775013822537));
#125 = CARTESIAN_POINT('',(24.251286800103,7.108700668872,9.449988280748
    ));
#126 = CARTESIAN_POINT('',(18.212499196122,18.212499288292,
    10.125001744241));
#127 = CARTESIAN_POINT('',(7.108700815779,24.251286622186,
    10.800009386546));
#128 = CARTESIAN_POINT('',(-4.829645002105,23.590223424505,
    11.474988965652));
#129 = CARTESIAN_POINT('',(-14.0109920447,17.53034995585,12.150006654539
    ));
#130 = CARTESIAN_POINT('',(-18.59999997963,8.765044994921,
    12.824998699075));
#131 = CARTESIAN_POINT('',(-18.6,-5.644443246133E-13,13.499999999998));
#132 = CARTESIAN_POINT('',(-18.59999999567,-8.765044868337,
    14.175002763152));
#133 = CARTESIAN_POINT('',(-14.01099210396,-17.53035005087,
    14.84999219611));
#134 = CARTESIAN_POINT('',(-4.829645009071,-23.59022325474,
    15.525013822522));
#135 = CARTESIAN_POINT('',(7.108700668838,-24.25128680012,
    16.199988280779));
#136 = CARTESIAN_POINT('',(18.212499288329,-18.2124991961,
    16.875001744199));
#137 = CARTESIAN_POINT('',(24.25128662216,-7.108700815787,
    17.550009386588));
#138 = CARTESIAN_POINT('',(23.590223424515,4.829645002104,18.22498896562
    ));
#139 = CARTESIAN_POINT('',(17.530349955848,14.01099204471,
    18.900006654557));
#140 = CARTESIAN_POINT('',(8.765044994919,18.599999979633,
    19.574998699068));
#141 = CARTESIAN_POINT('',(3.177458296477E-13,18.6,20.249999999999));
#142 = CARTESIAN_POINT('',(-8.76504486834,18.59999999568,20.92500276315)
  );
#143 = CARTESIAN_POINT('',(-17.53035005087,14.01099210396,
    21.599992196112));
#144 = CARTESIAN_POINT('',(-23.59022325476,4.829645009089,
    22.275013822524));
#145 = CARTESIAN_POINT('',(-24.25128680011,-7.10870066886,
    22.949988280768));
#146 = CARTESIAN_POINT('',(-18.2124991961,-18.21249928831,
    23.625001744216));
#147 = CARTESIAN_POINT('',(-7.108700815791,-24.25128662216,
    24.30000938657));
#148 = CARTESIAN_POINT('',(4.829645002111,-23.59022342451,
    24.974988965634));
#149 = CARTESIAN_POINT('',(14.010992044706,-17.53034995584,
    25.65000665455));
#150 = CARTESIAN_POINT('',(18.599999979635,-8.765044994921,
    26.32499869907));
#151 = CARTESIAN_POINT('',(18.6,2.869718351839E-13,26.999999999999));
#152 = CARTESIAN_POINT('',(18.599999999999,8.76504486834,27.675002714876
    ));
#153 = CARTESIAN_POINT('',(14.010992085441,17.530350050869,
    28.34999240304));
#154 = CARTESIAN_POINT('',(4.829645056924,23.590223254764,
    29.025013288116));
#155 = CARTESIAN_POINT('',(-7.108700759454,24.251286800108,
    29.699989292715));
#156 = CARTESIAN_POINT('',(-18.21249915376,18.21249919612,
    30.375000241438));
#157 = CARTESIAN_POINT('',(-24.25128678362,7.108700815777,
    31.050011189906));
#158 = CARTESIAN_POINT('',(-23.59022326596,-4.829645002101,
    31.72498719472));
#159 = CARTESIAN_POINT('',(-17.53035008343,-14.01099204471,
    32.400008079644));
#160 = CARTESIAN_POINT('',(-8.765044911557,-18.59999997963,
    33.074997767898));
#161 = CARTESIAN_POINT('',(-4.32161941788E-08,-18.6,33.750000482732));
#162 = CARTESIAN_POINT('',(8.765044951705,-18.59999999568,
    34.425001831937));
#163 = CARTESIAN_POINT('',(17.530349923278,-14.01099210395,
    35.09999362133));
#164 = CARTESIAN_POINT('',(23.59022341333,-4.829645009095,
    35.775012051376));
#165 = CARTESIAN_POINT('',(24.251286638624,7.108700668874,
    36.449990084432));
#166 = CARTESIAN_POINT('',(18.212499330696,18.212499288292,
    37.125000241084));
#167 = CARTESIAN_POINT('',(7.108700725156,24.251286622192,
    37.800010398819));
#168 = CARTESIAN_POINT('',(-4.829644954247,23.590223424492,
    38.474988431023));
#169 = CARTESIAN_POINT('',(-14.01099206323,17.530349955861,
    39.150006861574));
#170 = CARTESIAN_POINT('',(-18.59999997531,8.765044994916,
    39.824998650772));
#171 = CARTESIAN_POINT('',(-18.6,-4.601458103437E-13,40.499999999992));
#172 = CARTESIAN_POINT('',(-18.59999999567,-8.765044868337,
    41.175002763158));
#173 = CARTESIAN_POINT('',(-14.01099210396,-17.53035005087,
    41.849992196107));
#174 = CARTESIAN_POINT('',(-4.829645009072,-23.59022325474,
    42.525013822518));
#175 = CARTESIAN_POINT('',(7.108700668834,-24.25128680013,
    43.199988280794));
#176 = CARTESIAN_POINT('',(18.212499288341,-18.21249919609,
    43.875001744174));
#177 = CARTESIAN_POINT('',(24.251286622144,-7.108700815801,
    44.550009386619));
#178 = CARTESIAN_POINT('',(23.590223424528,4.829645002115,45.22498896559
    ));
#179 = CARTESIAN_POINT('',(17.530349955842,14.010992044705,
    45.900006654581));
#180 = CARTESIAN_POINT('',(8.765044994921,18.599999979635,
    46.574998699052));
#181 = CARTESIAN_POINT('',(6.157296894571E-13,18.6,47.250000000007));
#182 = CARTESIAN_POINT('',(-8.765044868342,18.6,47.925002714846));
#183 = CARTESIAN_POINT('',(-17.53035005086,14.010992085439,
    48.599992403111));
#184 = CARTESIAN_POINT('',(-23.59022325477,4.829645056927,
    49.275013287985));
#185 = CARTESIAN_POINT('',(-24.25128680009,-7.108700759458,
    49.949989292909));
#186 = CARTESIAN_POINT('',(-18.21249919613,-18.21249915376,
    50.625000241205));
#187 = CARTESIAN_POINT('',(-7.108700815764,-24.25128678363,
    51.300011190134));
#188 = CARTESIAN_POINT('',(4.829645002094,-23.59022326595,
    51.974987194539));
#189 = CARTESIAN_POINT('',(14.010992044713,-17.53035008344,
    52.65000807976));
#190 = CARTESIAN_POINT('',(18.599999979633,-8.765044911552,
    53.324997767839));
#191 = CARTESIAN_POINT('',(18.6,-4.321859523732E-08,54.000000482753));
#192 = CARTESIAN_POINT('',(18.6,-9.311995619044E-15,4.320011996485));
#193 = CARTESIAN_POINT('',(18.599995484802,8.765044759563,4.995014759631
    ));
#194 = CARTESIAN_POINT('',(14.011006214915,17.530351032726,
    5.670004192602));
#195 = CARTESIAN_POINT('',(4.829615415832,23.590214886028,6.345025819004
    ));
#196 = CARTESIAN_POINT('',(-7.108660848521,24.251307073098,
    7.020000277257));
#197 = CARTESIAN_POINT('',(-18.21253525564,18.212464940387,
    7.695013740697));
#198 = CARTESIAN_POINT('',(-24.25126362195,7.108737333153,8.37002138306)
  );
#199 = CARTESIAN_POINT('',(-23.5902316639,-4.829671444541,9.045000962112
    ));
#200 = CARTESIAN_POINT('',(-17.53034787419,-14.01097969748,
    9.720018651039));
#201 = CARTESIAN_POINT('',(-8.765044805927,-18.60000214118,
    10.395010695553));
#202 = CARTESIAN_POINT('',(9.992007221626E-15,-18.6,11.070011996483));
#203 = CARTESIAN_POINT('',(8.765044759561,-18.59999548479,
    11.745014759636));
#204 = CARTESIAN_POINT('',(17.530351032728,-14.01100621493,
    12.420004192591));
#205 = CARTESIAN_POINT('',(23.590214886031,-4.829615415791,
    13.095025819024));
#206 = CARTESIAN_POINT('',(24.25130707308,7.108660848454,13.770000277226
    ));
#207 = CARTESIAN_POINT('',(18.212464940421,18.212535255727,
    14.445013740736));
#208 = CARTESIAN_POINT('',(7.10873733311,24.251263621885,15.12002138302)
  );
#209 = CARTESIAN_POINT('',(-4.829671444502,23.59023166395,
    15.795000962144));
#210 = CARTESIAN_POINT('',(-14.0109796975,17.530347874182,
    16.470018651021));
#211 = CARTESIAN_POINT('',(-18.60000214117,8.765044805931,17.14501069556
    ));
#212 = CARTESIAN_POINT('',(-18.6,-6.278588760011E-13,17.820011996483));
#213 = CARTESIAN_POINT('',(-18.59999548479,-8.765044759557,
    18.495014759637));
#214 = CARTESIAN_POINT('',(-14.01100621494,-17.53035103274,
    19.170004192593));
#215 = CARTESIAN_POINT('',(-4.829615415786,-23.590214886,19.845025819012
    ));
#216 = CARTESIAN_POINT('',(7.108660848457,-24.25130707312,
    20.520000277254));
#217 = CARTESIAN_POINT('',(18.212535255715,-18.21246494035,
    21.195013740696));
#218 = CARTESIAN_POINT('',(24.251263621902,-7.108737333179,
    21.87002138306));
#219 = CARTESIAN_POINT('',(23.590231663939,4.829671444556,
    22.545000962113));
#220 = CARTESIAN_POINT('',(17.530347874186,14.010979697476,
    23.220018651038));
#221 = CARTESIAN_POINT('',(8.765044805929,18.600002141188,
    23.895010695554));
#222 = CARTESIAN_POINT('',(1.640909630396E-13,18.600000000002,
    24.570011996483));
#223 = CARTESIAN_POINT('',(-8.76504475956,18.599995484796,
    25.245014759635));
#224 = CARTESIAN_POINT('',(-17.53035103273,14.011006214928,
    25.920004192596));
#225 = CARTESIAN_POINT('',(-23.59021488601,4.8296154158,26.595025819012)
  );
#226 = CARTESIAN_POINT('',(-24.25130707311,-7.10866084846,
    27.270000277246));
#227 = CARTESIAN_POINT('',(-18.21246494037,-18.21253525572,
    27.94501374071));
#228 = CARTESIAN_POINT('',(-7.108737333158,-24.25126362187,
    28.620021383045));
#229 = CARTESIAN_POINT('',(4.82967144454,-23.59023166395,29.295000962125
    ));
#230 = CARTESIAN_POINT('',(14.010979697485,-17.53034787417,
    29.970018651032));
#231 = CARTESIAN_POINT('',(18.600002141186,-8.765044805931,
    30.645010695555));
#232 = CARTESIAN_POINT('',(18.600000000001,2.751132655021E-13,
    31.320011996484));
#233 = CARTESIAN_POINT('',(18.599995489118,8.76504467935,31.995014711361
    ));
#234 = CARTESIAN_POINT('',(14.011006196412,17.530351376559,
    32.670004399523));
#235 = CARTESIAN_POINT('',(4.829615463614,23.59021399806,33.345025284605
    ));
#236 = CARTESIAN_POINT('',(-7.108660939001,24.251308754512,
    34.020001289191));
#237 = CARTESIAN_POINT('',(-18.21253512126,18.212462443459,
    34.695012237936));
#238 = CARTESIAN_POINT('',(-24.25126378326,7.108740329446,
    35.370023186378));
#239 = CARTESIAN_POINT('',(-23.59023150545,-4.829674386955,
    36.044999191213));
#240 = CARTESIAN_POINT('',(-17.53034800174,-14.01097732964,
    36.720020076125));
#241 = CARTESIAN_POINT('',(-8.765044722569,-18.60000368836,
    37.395009764383));
#242 = CARTESIAN_POINT('',(-4.321813018571E-08,-18.59999919792,
    38.070012479217));
#243 = CARTESIAN_POINT('',(8.765044842928,-18.59999703206,
    38.745013828422));
#244 = CARTESIAN_POINT('',(17.530350905178,-14.0110038468,
    39.420005617814));
#245 = CARTESIAN_POINT('',(23.590215044414,-4.82961835878,
    40.095024047864));
#246 = CARTESIAN_POINT('',(24.251306912013,7.108663845503,40.77000208091
    ));
#247 = CARTESIAN_POINT('',(18.212465074377,18.212532758092,
    41.445012237578));
#248 = CARTESIAN_POINT('',(7.108737243136,24.251265303765,
    42.120022395295));
#249 = CARTESIAN_POINT('',(-4.829671397123,23.590230775781,
    42.795000427514));
#250 = CARTESIAN_POINT('',(-14.01097971579,17.530348218059,
    43.470018858056));
#251 = CARTESIAN_POINT('',(-18.60000213691,8.76504472572,44.145010647257
    ));
#252 = CARTESIAN_POINT('',(-18.60000000001,-2.300160062418E-12,
    44.820011996477));
#253 = CARTESIAN_POINT('',(-18.59999548477,-8.765044759557,
    45.495014759643));
#254 = CARTESIAN_POINT('',(-14.01100621496,-17.53035103273,
    46.170004192591));
#255 = CARTESIAN_POINT('',(-4.829615415753,-23.590214886,46.845025819004
    ));
#256 = CARTESIAN_POINT('',(7.108660848409,-24.25130707313,
    47.520000277275));
#257 = CARTESIAN_POINT('',(18.212535255773,-18.21246494033,
    48.195013740664));
#258 = CARTESIAN_POINT('',(24.251263621847,-7.108737333213,
    48.870021383097));
#259 = CARTESIAN_POINT('',(23.590231663974,4.829671444597,
    49.545000962079));
#260 = CARTESIAN_POINT('',(17.530347874172,14.01097969744,
    50.220018651064));
#261 = CARTESIAN_POINT('',(8.765044805931,18.600002141213,
    50.895010695537));
#262 = CARTESIAN_POINT('',(1.121991388686E-12,18.599999999988,
    51.570011996492));
#263 = CARTESIAN_POINT('',(-8.765044679352,18.59999548917,52.24501471133
    ));
#264 = CARTESIAN_POINT('',(-17.53035137657,14.011006196279,
    52.920004399596));
#265 = CARTESIAN_POINT('',(-23.59021399797,4.829615463861,53.59502528447
    ));
#266 = CARTESIAN_POINT('',(-24.25130875472,-7.108660939343,
    54.270001289392));
#267 = CARTESIAN_POINT('',(-18.21246244311,-18.2125351209,
    54.945012237693));
#268 = CARTESIAN_POINT('',(-7.108740329853,-24.25126378353,
    55.620023186615));
#269 = CARTESIAN_POINT('',(4.829674387305,-23.5902315053,56.294999191026
    ));
#270 = CARTESIAN_POINT('',(14.010977329425,-17.53034800179,
    56.970020076244));
#271 = CARTESIAN_POINT('',(18.600003688468,-8.765044722561,
    57.645009764324));
#272 = CARTESIAN_POINT('',(18.599999197885,-4.321748488939E-08,
    58.320012479238));
#273 = CARTESIAN_POINT('',(13.258174704575,-1.817990202824E-15,
    4.940292196439));
#274 = CARTESIAN_POINT('',(13.258169550572,6.24776607412,5.615289282569)
  );
#275 = CARTESIAN_POINT('',(9.987120273846,12.495736192486,6.290300426002
    ));
#276 = CARTESIAN_POINT('',(3.442573777722,16.815191085652,6.965277619944
    ));
#277 = CARTESIAN_POINT('',(-5.067103262634,17.286510925978,
    7.640304554897));
#278 = CARTESIAN_POINT('',(-12.98195605698,12.981875848315,
    8.315290357123));
#279 = CARTESIAN_POINT('',(-17.28646162713,5.067190406186,8.990282297807
    ));
#280 = CARTESIAN_POINT('',(-16.81520989941,-3.442637866533,
    9.665303832738));
#281 = CARTESIAN_POINT('',(-12.49573278931,-9.987090079213,
    10.340285178881));
#282 = CARTESIAN_POINT('',(-6.247765848904,-13.25817719796,
    11.015293568335));
#283 = CARTESIAN_POINT('',(8.077982727173E-13,-13.25817470457,
    11.690292196441));
#284 = CARTESIAN_POINT('',(6.247766074113,-13.25816955056,
    12.365289282562));
#285 = CARTESIAN_POINT('',(12.495736192509,-9.98712027387,
    13.040300426021));
#286 = CARTESIAN_POINT('',(16.815191085615,-3.442573777684,
    13.715277619906));
#287 = CARTESIAN_POINT('',(17.28651092601,5.06710326259,14.390304554957)
  );
#288 = CARTESIAN_POINT('',(12.981875848315,12.981956057012,
    15.065290357049));
#289 = CARTESIAN_POINT('',(5.067190406153,17.286461627123,
    15.740282297878));
#290 = CARTESIAN_POINT('',(-3.442637866488,16.815209899412,
    16.415303832687));
#291 = CARTESIAN_POINT('',(-9.987090079244,12.495732789325,
    17.090285178908));
#292 = CARTESIAN_POINT('',(-13.25817719795,6.247765848898,
    17.765293568327));
#293 = CARTESIAN_POINT('',(-13.25817470457,-1.24997234785E-13,
    18.44029219644));
#294 = CARTESIAN_POINT('',(-13.25816955055,-6.247766074116,
    19.115289282561));
#295 = CARTESIAN_POINT('',(-9.987120273872,-12.49573619249,
    19.790300426019));
#296 = CARTESIAN_POINT('',(-3.442573777686,-16.81519108562,
    20.46527761992));
#297 = CARTESIAN_POINT('',(5.067103262598,-17.286510926,21.140304554923)
  );
#298 = CARTESIAN_POINT('',(12.981956057005,-12.98187584828,21.8152903571
    ));
#299 = CARTESIAN_POINT('',(17.286461627123,-5.067190406209,
    22.490282297822));
#300 = CARTESIAN_POINT('',(16.815209899418,3.442637866544,23.16530383273
    ));
#301 = CARTESIAN_POINT('',(12.495732789318,9.98709007921,23.840285178884
    ));
#302 = CARTESIAN_POINT('',(6.247765848902,13.258177197967,
    24.515293568335));
#303 = CARTESIAN_POINT('',(-3.126388037344E-13,13.258174704578,
    25.19029219644));
#304 = CARTESIAN_POINT('',(-6.247766074112,13.258169550564,
    25.865289282563));
#305 = CARTESIAN_POINT('',(-12.49573619251,9.987120273861,
    26.540300426016));
#306 = CARTESIAN_POINT('',(-16.8151910856,3.442573777699,27.215277619919
    ));
#307 = CARTESIAN_POINT('',(-17.28651092603,-5.067103262608,
    27.890304554934));
#308 = CARTESIAN_POINT('',(-12.98187584826,-12.98195605699,
    28.56529035708));
#309 = CARTESIAN_POINT('',(-5.067190406203,-17.28646162712,
    29.240282297847));
#310 = CARTESIAN_POINT('',(3.442637866527,-16.81520989941,
    29.915303832711));
#311 = CARTESIAN_POINT('',(9.987090079222,-12.49573278932,
    30.590285178894));
#312 = CARTESIAN_POINT('',(13.258177197964,-6.2477658489,31.265293568332
    ));
#313 = CARTESIAN_POINT('',(13.258174704576,3.830963324347E-13,
    31.940292196439));
#314 = CARTESIAN_POINT('',(13.258169546006,6.247765982387,
    32.615289333472));
#315 = CARTESIAN_POINT('',(9.98712029341,12.495736585697,33.290300207798
    ));
#316 = CARTESIAN_POINT('',(3.442573727202,16.815190070167,
    33.965278183478));
#317 = CARTESIAN_POINT('',(-5.067103166981,17.286512848839,
    34.640303487799));
#318 = CARTESIAN_POINT('',(-12.98195619899,12.981872992859,
    35.315291941804));
#319 = CARTESIAN_POINT('',(-17.28646145676,5.067193832691,
    35.990280396178));
#320 = CARTESIAN_POINT('',(-16.81521006667,-3.442641231416,
    36.665305700194));
#321 = CARTESIAN_POINT('',(-12.49573265475,-9.987087371408,
    37.340283676081));
#322 = CARTESIAN_POINT('',(-6.247765936814,-13.25817896728,
    38.015294550292));
#323 = CARTESIAN_POINT('',(4.557181698672E-08,-13.25817378733,
    38.690291687376));
#324 = CARTESIAN_POINT('',(6.247765986205,-13.25817131998,
    39.365290264581));
#325 = CARTESIAN_POINT('',(12.495736327096,-9.987117565726,
    40.040298923009));
#326 = CARTESIAN_POINT('',(16.815190918218,-3.442577143201,
    40.715279487799));
#327 = CARTESIAN_POINT('',(17.286511096739,5.067106689897,
    41.390302652681));
#328 = CARTESIAN_POINT('',(12.981875705718,12.981953200852,
    42.065291942448));
#329 = CARTESIAN_POINT('',(5.067190502444,17.286463550395,
    42.740281230173));
#330 = CARTESIAN_POINT('',(-3.442637917496,16.815208883792,
    43.415304396607));
#331 = CARTESIAN_POINT('',(-9.987090059435,12.495733182537,
    44.09028496053));
#332 = CARTESIAN_POINT('',(-13.25817720258,6.247765757183,
    44.765293619273));
#333 = CARTESIAN_POINT('',(-13.25817470459,-1.462809040564E-12,
    45.440292196448));
#334 = CARTESIAN_POINT('',(-13.25816955054,-6.247766074116,
    46.11528928255));
#335 = CARTESIAN_POINT('',(-9.987120273896,-12.4957361925,
    46.790300426033));
#336 = CARTESIAN_POINT('',(-3.442573777655,-16.81519108562,
    47.465277619906));
#337 = CARTESIAN_POINT('',(5.06710326256,-17.28651092602,48.140304554934
    ));
#338 = CARTESIAN_POINT('',(12.981956057042,-12.98187584825,
    48.815290357097));
#339 = CARTESIAN_POINT('',(17.286461627095,-5.067190406245,
    49.490282297816));
#340 = CARTESIAN_POINT('',(16.815209899433,3.442637866585,
    50.165303832745));
#341 = CARTESIAN_POINT('',(12.495732789313,9.987090079172,
    50.840285178867));
#342 = CARTESIAN_POINT('',(6.247765848902,13.258177197996,
    51.515293568349));
#343 = CARTESIAN_POINT('',(-1.809663530139E-13,13.258174704561,
    52.190292196431));
#344 = CARTESIAN_POINT('',(-6.247765982385,13.258169546065,
    52.865289333506));
#345 = CARTESIAN_POINT('',(-12.49573658572,9.987120293261,
    53.540300207705));
#346 = CARTESIAN_POINT('',(-16.81519007004,3.442573727474,
    54.215278183666));
#347 = CARTESIAN_POINT('',(-17.28651284911,-5.067103167351,
    54.890303487502));
#348 = CARTESIAN_POINT('',(-12.98187299242,-12.98195619862,
    55.565291942171));
#349 = CARTESIAN_POINT('',(-5.067193833187,-17.28646145703,
    56.240280395822));
#350 = CARTESIAN_POINT('',(3.442641231835,-16.81521006653,
    56.915305700464));
#351 = CARTESIAN_POINT('',(9.987087371144,-12.49573265479,
    57.590283675921));
#352 = CARTESIAN_POINT('',(13.258178967411,-6.247765936817,
    58.265294550364));
#353 = CARTESIAN_POINT('',(13.25817378729,4.557728359306E-08,
    58.940291687352));
#354 = CARTESIAN_POINT('',(8.852296005378,-4.420075416789E-15,
    3.552713678801E-15));
#355 = CARTESIAN_POINT('',(8.852296017259,4.171542462632,0.67499240379)
  );
#356 = CARTESIAN_POINT('',(6.668245637699,8.343240055736,1.350021453774)
  );
#357 = CARTESIAN_POINT('',(2.298594450531,11.227236598104,2.024962000309
    ));
#358 = CARTESIAN_POINT('',(-3.383299293515,11.541998149748,
    2.700032217477));
#359 = CARTESIAN_POINT('',(-8.667786522637,8.667786776197,3.374995205015
    ));
#360 = CARTESIAN_POINT('',(-11.54199863901,3.383298889517,4.049974195159
    ));
#361 = CARTESIAN_POINT('',(-11.22723613139,-2.29859446967,4.725030334809
    ));
#362 = CARTESIAN_POINT('',(-8.343240316981,-6.668245800613,
    5.399981705841));
#363 = CARTESIAN_POINT('',(-4.171542114646,-8.852296061364,
    6.075003576414));
#364 = CARTESIAN_POINT('',(1.157740570079E-12,-8.852296005378,
    6.750000000005));
#365 = CARTESIAN_POINT('',(4.171542462621,-8.85229601726,7.424992403772)
  );
#366 = CARTESIAN_POINT('',(8.343240055777,-6.668245637691,8.100021453819
    ));
#367 = CARTESIAN_POINT('',(11.22723659802,-2.29859445056,8.774962000221)
  );
#368 = CARTESIAN_POINT('',(11.541998149862,3.383299293582,9.450032217612
    ));
#369 = CARTESIAN_POINT('',(8.667786776092,8.667786522533,10.124995204851
    ));
#370 = CARTESIAN_POINT('',(3.383298889583,11.541998639125,
    10.799974195315));
#371 = CARTESIAN_POINT('',(-2.298594469696,11.227236131307,
    11.475030334695));
#372 = CARTESIAN_POINT('',(-6.668245800606,8.343240317023,
    12.149981705902));
#373 = CARTESIAN_POINT('',(-8.852296061365,4.171542114633,
    12.825003576395));
#374 = CARTESIAN_POINT('',(-8.852296005378,3.649858193455E-13,
    13.500000000005));
#375 = CARTESIAN_POINT('',(-8.852296017259,-4.17154246263,
    14.174992403771));
#376 = CARTESIAN_POINT('',(-6.668245637697,-8.343240055751,
    14.85002145381));
#377 = CARTESIAN_POINT('',(-2.298594450542,-11.22723659806,
    15.524962000262));
#378 = CARTESIAN_POINT('',(3.383299293542,-11.54199814981,
    16.200032217521));
#379 = CARTESIAN_POINT('',(8.667786522593,-8.667786776131,
    16.874995204984));
#380 = CARTESIAN_POINT('',(11.541998639061,-3.383298889564,
    17.549974195176));
#381 = CARTESIAN_POINT('',(11.227236131356,2.298594469691,
    18.225030334801));
#382 = CARTESIAN_POINT('',(8.343240316998,6.668245800607,18.899981705844
    ));
#383 = CARTESIAN_POINT('',(4.171542114641,8.852296061364,19.575003576414
    ));
#384 = CARTESIAN_POINT('',(-4.811706588725E-13,8.852296005378,
    20.250000000004));
#385 = CARTESIAN_POINT('',(-4.171542462621,8.85229601726,20.924992403777
    ));
#386 = CARTESIAN_POINT('',(-8.343240055781,6.668245637691,
    21.600021453804));
#387 = CARTESIAN_POINT('',(-11.227236598,2.298594450558,22.274962000256)
  );
#388 = CARTESIAN_POINT('',(-11.54199814988,-3.383299293576,
    22.950032217552));
#389 = CARTESIAN_POINT('',(-8.667786776064,-8.667786522543,
    23.624995204928));
#390 = CARTESIAN_POINT('',(-3.383298889606,-11.54199863911,
    24.299974195239));
#391 = CARTESIAN_POINT('',(2.298594469709,-11.22723613131,
    24.975030334752));
#392 = CARTESIAN_POINT('',(6.668245800603,-8.343240317018,
    25.649981705869));
#393 = CARTESIAN_POINT('',(8.852296061365,-4.171542114635,
    26.325003576408));
#394 = CARTESIAN_POINT('',(8.852296005378,4.846539836123E-13,
    27.000000000002));
#395 = CARTESIAN_POINT('',(8.852296005378,4.171542462625,27.674992536491
    ));
#396 = CARTESIAN_POINT('',(6.668245688625,8.343240055762,28.350020884932
    ));
#397 = CARTESIAN_POINT('',(2.298594319017,11.227236598054,
    29.024963469405));
#398 = CARTESIAN_POINT('',(-3.383299044491,11.541998149812,
    29.700029435616));
#399 = CARTESIAN_POINT('',(-8.66778689244,8.667786776147,30.374999336188
    ));
#400 = CARTESIAN_POINT('',(-11.54199819524,3.38329888954,31.049969237724
    ));
#401 = CARTESIAN_POINT('',(-11.22723656719,-2.298594469672,
    31.725035203144));
#402 = CARTESIAN_POINT('',(-8.34323996627,-6.668245800616,32.39997778815
    ));
#403 = CARTESIAN_POINT('',(-4.171542343813,-8.852296061362,
    33.075006136299));
#404 = CARTESIAN_POINT('',(1.188072471514E-07,-8.852296005378,
    33.749998672916));
#405 = CARTESIAN_POINT('',(4.171542233443,-8.852296017257,
    34.424994963805));
#406 = CARTESIAN_POINT('',(8.343240406526,-6.668245637709,35.10001753563
    ));
#407 = CARTESIAN_POINT('',(11.227236162146,-2.298594450501,
    35.774966869566));
#408 = CARTESIAN_POINT('',(11.541998593735,3.383299293456,
    36.450027258702));
#409 = CARTESIAN_POINT('',(8.667786406176,8.667786522715,37.124999337657
    ));
#410 = CARTESIAN_POINT('',(3.383299138696,11.54199863894,37.799971412066
    ));
#411 = CARTESIAN_POINT('',(-2.298594601259,11.227236131439,
    38.475031804685));
#412 = CARTESIAN_POINT('',(-6.668245749664,8.343240316961,
    39.149981136648));
#413 = CARTESIAN_POINT('',(-8.852296073248,4.171542114649,39.8250037092)
  );
#414 = CARTESIAN_POINT('',(-8.852296005378,1.550218287072E-12,
    40.500000000024));
#415 = CARTESIAN_POINT('',(-8.85229601726,-4.171542462629,
    41.174992403745));
#416 = CARTESIAN_POINT('',(-6.668245637693,-8.343240055759,
    41.85002145384));
#417 = CARTESIAN_POINT('',(-2.298594450553,-11.22723659804,
    42.524962000236));
#418 = CARTESIAN_POINT('',(3.383299293565,-11.54199814983,
    43.200032217534));
#419 = CARTESIAN_POINT('',(8.66778652256,-8.66778677611,43.874995204992)
  );
#420 = CARTESIAN_POINT('',(11.541998639095,-3.383298889575,
    44.549974195145));
#421 = CARTESIAN_POINT('',(11.227236131331,2.298594469695,
    45.225030334848));
#422 = CARTESIAN_POINT('',(8.343240317009,6.668245800606,45.899981705794
    ));
#423 = CARTESIAN_POINT('',(4.171542114639,8.852296061365,46.575003576454
    ));
#424 = CARTESIAN_POINT('',(-1.906697022491E-12,8.852296005378,
    47.249999999981));
#425 = CARTESIAN_POINT('',(-4.17154246262,8.852296005377,47.924992536578
    ));
#426 = CARTESIAN_POINT('',(-8.343240055775,6.668245688632,
    48.600020884703));
#427 = CARTESIAN_POINT('',(-11.22723659802,2.298594318994,
    49.274963469859));
#428 = CARTESIAN_POINT('',(-11.54199814985,-3.383299044444,
    49.950029434909));
#429 = CARTESIAN_POINT('',(-8.667786776092,-8.667786892508,
    50.624999337056));
#430 = CARTESIAN_POINT('',(-3.38329888959,-11.54199819517,
    51.299969236881));
#431 = CARTESIAN_POINT('',(2.298594469704,-11.22723656724,51.97503520379
    ));
#432 = CARTESIAN_POINT('',(6.668245800602,-8.343239966235,
    52.649977787761));
#433 = CARTESIAN_POINT('',(8.852296061365,-4.171542343829,
    53.325006136478));
#434 = CARTESIAN_POINT('',(8.852296005378,1.188128014029E-07,
    53.999998672855));
#435 = CARTESIAN_POINT('',(13.258174704575,-1.040140196196E-14,
    -4.940292196439));
#436 = CARTESIAN_POINT('',(13.258179867692,6.247766322917,
    -4.265295110308));
#437 = CARTESIAN_POINT('',(9.987087999767,12.495733946796,
    -3.590283966874));
#438 = CARTESIAN_POINT('',(3.442641462393,16.815210226386,
    -2.915306772939));
#439 = CARTESIAN_POINT('',(-5.067194338366,17.286464558213,
    -2.240279837966));
#440 = CARTESIAN_POINT('',(-12.98187379367,12.98195419695,
    -1.565294035777));
#441 = CARTESIAN_POINT('',(-17.28651423249,5.067106884806,
    -0.890302095046));
#442 = CARTESIAN_POINT('',(-16.8151910545,-3.442577388232,
    -0.215280560155));
#443 = CARTESIAN_POINT('',(-12.49573755041,-9.987118319396,
    0.459700786011));
#444 = CARTESIAN_POINT('',(-6.247766281156,-13.25817225413,
    1.134709175456));
#445 = CARTESIAN_POINT('',(2.524647157998E-13,-13.25817470457,
    1.809707803563));
#446 = CARTESIAN_POINT('',(6.247766322911,-13.2581798677,2.484704889684)
  );
#447 = CARTESIAN_POINT('',(12.495733946825,-9.987087999728,
    3.159716033146));
#448 = CARTESIAN_POINT('',(16.815210226315,-3.442641462475,
    3.834693227022));
#449 = CARTESIAN_POINT('',(17.286464558333,5.067194338494,4.509720162095
    ));
#450 = CARTESIAN_POINT('',(12.981954196802,12.981873793522,
    5.184705964149));
#451 = CARTESIAN_POINT('',(5.067106884944,17.286514232625,5.859697905023
    ));
#452 = CARTESIAN_POINT('',(-3.442577388329,16.815191054433,
    6.534719439796));
#453 = CARTESIAN_POINT('',(-9.987118319348,12.495737550444,
    7.209700786037));
#454 = CARTESIAN_POINT('',(-13.25817225414,6.24776628115,7.884709175448)
  );
#455 = CARTESIAN_POINT('',(-13.25817470457,1.525862769469E-14,
    8.559707803563));
#456 = CARTESIAN_POINT('',(-13.2581798677,-6.247766322913,9.234704889684
    ));
#457 = CARTESIAN_POINT('',(-9.98708799974,-12.49573394681,9.909716033143
    ));
#458 = CARTESIAN_POINT('',(-3.442641462433,-16.81521022632,
    10.584693227036));
#459 = CARTESIAN_POINT('',(5.067194338413,-17.2864645583,11.25972016206)
  );
#460 = CARTESIAN_POINT('',(12.981873793624,-12.98195419685,
    11.934705964202));
#461 = CARTESIAN_POINT('',(17.286514232535,-5.067106884878,
    12.609697904966));
#462 = CARTESIAN_POINT('',(16.815191054487,3.442577388268,
    13.284719439839));
#463 = CARTESIAN_POINT('',(12.495737550424,9.987118319385,
    13.959700786013));
#464 = CARTESIAN_POINT('',(6.247766281154,13.258172254133,
    14.634709175456));
#465 = CARTESIAN_POINT('',(7.971401316809E-14,13.258174704572,
    15.309707803563));
#466 = CARTESIAN_POINT('',(-6.247766322911,13.258179867703,
    15.984704889686));
#467 = CARTESIAN_POINT('',(-12.49573394682,9.987087999736,16.65971603314
    ));
#468 = CARTESIAN_POINT('',(-16.81521022631,3.442641462456,
    17.334693227036));
#469 = CARTESIAN_POINT('',(-17.28646455833,-5.067194338463,
    18.009720162071));
#470 = CARTESIAN_POINT('',(-12.98195419681,-12.98187379355,
    18.684705964181));
#471 = CARTESIAN_POINT('',(-5.067106884923,-17.28651423259,
    19.359697904991));
#472 = CARTESIAN_POINT('',(3.442577388304,-16.81519105444,
    20.034719439819));
#473 = CARTESIAN_POINT('',(9.987118319366,-12.49573755044,
    20.709700786024));
#474 = CARTESIAN_POINT('',(13.258172254138,-6.247766281151,
    21.384709175454));
#475 = CARTESIAN_POINT('',(13.258174704574,3.933381398369E-13,
    22.059707803562));
#476 = CARTESIAN_POINT('',(13.258179863143,6.247766414639,
    22.734704940595));
#477 = CARTESIAN_POINT('',(9.987088019271,12.495733553623,
    23.409715814922));
#478 = CARTESIAN_POINT('',(3.442641412025,16.815211241792,
    24.084693790594));
#479 = CARTESIAN_POINT('',(-5.067194242985,17.286462635461,
    24.759719094937));
#480 = CARTESIAN_POINT('',(-12.98187393534,12.981957052306,
    25.434707548905));
#481 = CARTESIAN_POINT('',(-17.28651406243,5.067103458363,
    26.109696003323));
#482 = CARTESIAN_POINT('',(-16.81519122158,-3.442574023374,
    26.784721307302));
#483 = CARTESIAN_POINT('',(-12.49573741591,-9.987121027196,
    27.459699283211));
#484 = CARTESIAN_POINT('',(-6.247766369061,-13.25817048481,
    28.134710157414));
#485 = CARTESIAN_POINT('',(4.557625343793E-08,-13.25817562181,
    28.809707294499));
#486 = CARTESIAN_POINT('',(6.247766234995,-13.25817809827,
    29.484705871703));
#487 = CARTESIAN_POINT('',(12.495734081327,-9.987090707888,
    30.159714530134));
#488 = CARTESIAN_POINT('',(16.81521005932,-3.442638096897,
    30.834695094915));
#489 = CARTESIAN_POINT('',(17.286464728127,5.067190911054,31.50971825982
    ));
#490 = CARTESIAN_POINT('',(12.981954055612,12.981876649873,
    32.184707549548));
#491 = CARTESIAN_POINT('',(5.067106979764,17.286512309165,
    32.859696837318));
#492 = CARTESIAN_POINT('',(-3.442577438252,16.81519207018,
    33.534720003714));
#493 = CARTESIAN_POINT('',(-9.987118300076,12.495737157176,
    34.20970056766));
#494 = CARTESIAN_POINT('',(-13.25817225863,6.247766372879,
    34.884709226395));
#495 = CARTESIAN_POINT('',(-13.25817470455,2.759313610934E-12,
    35.559707803571));
#496 = CARTESIAN_POINT('',(-13.25817986772,-6.247766322914,
    36.234704889673));
#497 = CARTESIAN_POINT('',(-9.987087999707,-12.49573394682,
    36.909716033156));
#498 = CARTESIAN_POINT('',(-3.442641462482,-16.81521022631,
    37.584693227024));
#499 = CARTESIAN_POINT('',(5.067194338477,-17.28646455831,
    38.259720162069));
#500 = CARTESIAN_POINT('',(12.981873793555,-12.98195419685,
    38.934705964201));
#501 = CARTESIAN_POINT('',(17.286514232593,-5.067106884861,
    39.609697904959));
#502 = CARTESIAN_POINT('',(16.815191054453,3.442577388237,
    40.284719439854));
#503 = CARTESIAN_POINT('',(12.495737550436,9.98711831942,40.959700785996
    ));
#504 = CARTESIAN_POINT('',(6.247766281153,13.258172254106,
    41.634709175471));
#505 = CARTESIAN_POINT('',(-1.350475287154E-12,13.258174704588,
    42.309707803554));
#506 = CARTESIAN_POINT('',(-6.247766414638,13.258179863083,
    42.984704940629));
#507 = CARTESIAN_POINT('',(-12.4957335536,9.987088019427,43.65971581483)
  );
#508 = CARTESIAN_POINT('',(-16.81521124189,3.442641411728,
    44.334693790782));
#509 = CARTESIAN_POINT('',(-17.28646263521,-5.067194242561,
    45.009719094641));
#510 = CARTESIAN_POINT('',(-12.98195705269,-12.98187393579,
    45.68470754927));
#511 = CARTESIAN_POINT('',(-5.067103457906,-17.28651406208,
    46.359696002968));
#512 = CARTESIAN_POINT('',(3.442574022981,-16.81519122177,
    47.034721307571));
#513 = CARTESIAN_POINT('',(9.987121027449,-12.49573741585,
    47.709699283052));
#514 = CARTESIAN_POINT('',(13.25817048469,-6.24776636907,48.384710157485
    ));
#515 = CARTESIAN_POINT('',(13.25817562186,4.557470204003E-08,
    49.059707294475));
#516 = CARTESIAN_POINT('',(18.6,-2.126770981548E-14,-4.320011996485));
#517 = CARTESIAN_POINT('',(18.600004506552,8.765044977122,
    -3.645009233339));
#518 = CARTESIAN_POINT('',(14.010977993019,17.530349068994,
    -2.970019800364));
#519 = CARTESIAN_POINT('',(4.829674602329,23.590231623541,
    -2.294998173976));
#520 = CARTESIAN_POINT('',(-7.108740489203,24.251266527053,
    -1.620023715693));
#521 = CARTESIAN_POINT('',(-18.21246332094,18.212533451928,
    -0.945010252298));
#522 = CARTESIAN_POINT('',(-24.25130962243,7.108664298335,
    -0.270002609886));
#523 = CARTESIAN_POINT('',(-23.59021518508,-4.82961855962,0.404976969127
    ));
#524 = CARTESIAN_POINT('',(-17.53035203751,-14.01100439195,
    1.079994658076));
#525 = CARTESIAN_POINT('',(-8.765045183908,-18.59999781807,
    1.754986702582));
#526 = CARTESIAN_POINT('',(-4.758415883543E-13,-18.59999999999,
    2.429988003513));
#527 = CARTESIAN_POINT('',(8.765044977121,-18.60000450656,3.104990766667
    ));
#528 = CARTESIAN_POINT('',(17.530349069003,-14.01097799298,
    3.779980199622));
#529 = CARTESIAN_POINT('',(23.59023162351,-4.829674602391,4.45500182605)
  );
#530 = CARTESIAN_POINT('',(24.251266527121,7.108740489288,5.129976284268
    ));
#531 = CARTESIAN_POINT('',(18.212533451827,18.212463320859,5.80498974775
    ));
#532 = CARTESIAN_POINT('',(7.108664298443,24.251309622486,6.479997390068
    ));
#533 = CARTESIAN_POINT('',(-4.829618559703,23.590215185059,
    7.154976969162));
#534 = CARTESIAN_POINT('',(-14.01100439191,17.530352037517,
    7.829994658057));
#535 = CARTESIAN_POINT('',(-18.59999781809,8.765045183911,8.504986702589
    ));
#536 = CARTESIAN_POINT('',(-18.59999999999,-5.044575868141E-13,
    9.179988003513));
#537 = CARTESIAN_POINT('',(-18.60000450656,-8.765044977116,
    9.854990766668));
#538 = CARTESIAN_POINT('',(-14.01097799299,-17.53034906901,
    10.529980199626));
#539 = CARTESIAN_POINT('',(-4.82967460235,-23.59023162348,
    11.205001826035));
#540 = CARTESIAN_POINT('',(7.108740489214,-24.25126652713,
    11.879976284301));
#541 = CARTESIAN_POINT('',(18.212463320947,-18.21253345184,
    12.554989747704));
#542 = CARTESIAN_POINT('',(24.251309622416,-7.108664298397,
    13.229997390114));
#543 = CARTESIAN_POINT('',(23.590215185094,4.829618559653,
    13.904976969128));
#544 = CARTESIAN_POINT('',(17.530352037509,14.011004391945,
    14.579994658076));
#545 = CARTESIAN_POINT('',(8.76504518391,18.599997818079,15.254986702583
    ));
#546 = CARTESIAN_POINT('',(5.042632977847E-13,18.599999999998,
    15.929988003514));
#547 = CARTESIAN_POINT('',(-8.76504497712,18.600004506563,
    16.604990766665));
#548 = CARTESIAN_POINT('',(-17.530349069,14.010977992993,17.279980199628
    ));
#549 = CARTESIAN_POINT('',(-23.5902316235,4.829674602372,17.955001826038
    ));
#550 = CARTESIAN_POINT('',(-24.25126652711,-7.108740489252,
    18.629976284289));
#551 = CARTESIAN_POINT('',(-18.21253345184,-18.2124633209,
    19.304989747722));
#552 = CARTESIAN_POINT('',(-7.10866429842,-24.25130962244,
    19.979997390094));
#553 = CARTESIAN_POINT('',(4.829618559679,-23.59021518507,
    20.654976969143));
#554 = CARTESIAN_POINT('',(14.011004391929,-17.53035203751,
    21.329994658068));
#555 = CARTESIAN_POINT('',(18.599997818083,-8.765045183912,
    22.004986702585));
#556 = CARTESIAN_POINT('',(18.599999999999,2.83717493943E-13,
    22.679988003514));
#557 = CARTESIAN_POINT('',(18.600004510882,8.76504505733,23.354990718391
    ));
#558 = CARTESIAN_POINT('',(14.010977974466,17.530348725178,
    24.029980406555));
#559 = CARTESIAN_POINT('',(4.829674650242,23.590232511471,
    24.705001291629));
#560 = CARTESIAN_POINT('',(-7.108740579919,24.251264845699,
    25.379977296236));
#561 = CARTESIAN_POINT('',(-18.21246318625,18.212535948786,
    26.054988244944));
#562 = CARTESIAN_POINT('',(-24.251309784,7.108661302104,26.729999193432)
  );
#563 = CARTESIAN_POINT('',(-23.59021502646,-4.829615617246,
    27.404975198228));
#564 = CARTESIAN_POINT('',(-17.53035216511,-14.01100675977,
    28.079996083163));
#565 = CARTESIAN_POINT('',(-8.765045100545,-18.5999962709,
    28.754985771412));
#566 = CARTESIAN_POINT('',(-4.321425528531E-08,-18.60000080207,
    29.429988486247));
#567 = CARTESIAN_POINT('',(8.765045060481,-18.6000029593,30.104989835453
    ));
#568 = CARTESIAN_POINT('',(17.530348941378,-14.01098036111,
    30.779981624846));
#569 = CARTESIAN_POINT('',(23.590231782249,-4.829671659412,
    31.45500005489));
#570 = CARTESIAN_POINT('',(24.251266365228,7.10873749224,32.129978087951
    ));
#571 = CARTESIAN_POINT('',(18.21253358702,18.212465818502,
    32.804988244593));
#572 = CARTESIAN_POINT('',(7.108664207178,24.251307940608,
    33.479998402342));
#573 = CARTESIAN_POINT('',(-4.829618511375,23.590216073209,
    34.154976434533));
#574 = CARTESIAN_POINT('',(-14.01100441067,17.53035169366,
    34.829994865092));
#575 = CARTESIAN_POINT('',(-18.5999978137,8.765045264112,35.504986654287
    ));
#576 = CARTESIAN_POINT('',(-18.59999999998,1.399158566784E-12,
    36.179988003508));
#577 = CARTESIAN_POINT('',(-18.60000450658,-8.765044977117,
    36.854990766674));
#578 = CARTESIAN_POINT('',(-14.01097799297,-17.53034906901,
    37.529980199621));
#579 = CARTESIAN_POINT('',(-4.82967460239,-23.59023162348,
    38.205001826035));
#580 = CARTESIAN_POINT('',(7.108740489257,-24.25126652713,
    38.879976284308));
#581 = CARTESIAN_POINT('',(18.212463320911,-18.21253345184,
    39.554989747688));
#582 = CARTESIAN_POINT('',(24.251309622439,-7.108664298386,
    40.229997390136));
#583 = CARTESIAN_POINT('',(23.590215185084,4.829618559631,
    40.904976969103));
#584 = CARTESIAN_POINT('',(17.53035203751,14.011004391972,
    41.579994658097));
#585 = CARTESIAN_POINT('',(8.76504518391,18.599997818056,42.254986702567
    ));
#586 = CARTESIAN_POINT('',(1.083577672034E-13,18.600000000012,
    42.929988003523));
#587 = CARTESIAN_POINT('',(-8.765045057333,18.60000451083,
    43.604990718361));
#588 = CARTESIAN_POINT('',(-17.53034872515,14.010977974599,
    44.279980406627));
#589 = CARTESIAN_POINT('',(-23.59023251157,4.829674649992,
    44.955001291496));
#590 = CARTESIAN_POINT('',(-24.25126484545,-7.108740579568,
    45.629977296433));
#591 = CARTESIAN_POINT('',(-18.21253594916,-18.21246318662,
    46.304988244707));
#592 = CARTESIAN_POINT('',(-7.108661301678,-24.25130978372,
    46.979999193662));
#593 = CARTESIAN_POINT('',(4.829615616886,-23.5902150266,47.654975198045
    ));
#594 = CARTESIAN_POINT('',(14.011006759999,-17.53035216508,
    48.329996083279));
#595 = CARTESIAN_POINT('',(18.599996270798,-8.765045100543,
    49.004985771354));
#596 = CARTESIAN_POINT('',(18.600000802115,-4.321971915772E-08,
    49.679988486268));
#597 = CARTESIAN_POINT('',(18.6,-3.816391647149E-16,3.552713678801E-15)
  );
#598 = CARTESIAN_POINT('',(18.599999995677,8.765044868343,0.675002763146
    ));
#599 = CARTESIAN_POINT('',(14.010992103967,17.530350050859,
    1.349992196118));
#600 = CARTESIAN_POINT('',(4.829645009081,23.590223254786,2.025013822517
    ));
#601 = CARTESIAN_POINT('',(-7.108700668863,24.251286800073,
    2.699988280778));
#602 = CARTESIAN_POINT('',(-18.21249928829,18.21249919616,3.375001744205
    ));
#603 = CARTESIAN_POINT('',(-24.25128662219,7.108700815742,4.050009386583
    ));
#604 = CARTESIAN_POINT('',(-23.59022342449,-4.82964500208,4.724988965622
    ));
#605 = CARTESIAN_POINT('',(-17.53034995585,-14.01099204471,
    5.400006654557));
#606 = CARTESIAN_POINT('',(-8.765044994918,-18.59999997963,
    6.074998699068));
#607 = CARTESIAN_POINT('',(-2.293720768876E-13,-18.6,6.749999999998));
#608 = CARTESIAN_POINT('',(8.765044868341,-18.59999999567,7.425002763152
    ));
#609 = CARTESIAN_POINT('',(17.530350050866,-14.01099210396,
    8.099992196106));
#610 = CARTESIAN_POINT('',(23.590223254769,-4.829645009092,
    8.775013822537));
#611 = CARTESIAN_POINT('',(24.251286800103,7.108700668872,9.449988280748
    ));
#612 = CARTESIAN_POINT('',(18.212499196122,18.212499288292,
    10.125001744241));
#613 = CARTESIAN_POINT('',(7.108700815779,24.251286622186,
    10.800009386546));
#614 = CARTESIAN_POINT('',(-4.829645002105,23.590223424505,
    11.474988965652));
#615 = CARTESIAN_POINT('',(-14.0109920447,17.53034995585,12.150006654539
    ));
#616 = CARTESIAN_POINT('',(-18.59999997963,8.765044994921,
    12.824998699075));
#617 = CARTESIAN_POINT('',(-18.6,-5.644443246133E-13,13.499999999998));
#618 = CARTESIAN_POINT('',(-18.59999999567,-8.765044868337,
    14.175002763152));
#619 = CARTESIAN_POINT('',(-14.01099210396,-17.53035005087,
    14.84999219611));
#620 = CARTESIAN_POINT('',(-4.829645009071,-23.59022325474,
    15.525013822522));
#621 = CARTESIAN_POINT('',(7.108700668838,-24.25128680012,
    16.199988280779));
#622 = CARTESIAN_POINT('',(18.212499288329,-18.2124991961,
    16.875001744199));
#623 = CARTESIAN_POINT('',(24.25128662216,-7.108700815787,
    17.550009386588));
#624 = CARTESIAN_POINT('',(23.590223424515,4.829645002104,18.22498896562
    ));
#625 = CARTESIAN_POINT('',(17.530349955848,14.01099204471,
    18.900006654557));
#626 = CARTESIAN_POINT('',(8.765044994919,18.599999979633,
    19.574998699068));
#627 = CARTESIAN_POINT('',(3.177458296477E-13,18.6,20.249999999999));
#628 = CARTESIAN_POINT('',(-8.76504486834,18.59999999568,20.92500276315)
  );
#629 = CARTESIAN_POINT('',(-17.53035005087,14.01099210396,
    21.599992196112));
#630 = CARTESIAN_POINT('',(-23.59022325476,4.829645009089,
    22.275013822524));
#631 = CARTESIAN_POINT('',(-24.25128680011,-7.10870066886,
    22.949988280768));
#632 = CARTESIAN_POINT('',(-18.2124991961,-18.21249928831,
    23.625001744216));
#633 = CARTESIAN_POINT('',(-7.108700815791,-24.25128662216,
    24.30000938657));
#634 = CARTESIAN_POINT('',(4.829645002111,-23.59022342451,
    24.974988965634));
#635 = CARTESIAN_POINT('',(14.010992044706,-17.53034995584,
    25.65000665455));
#636 = CARTESIAN_POINT('',(18.599999979635,-8.765044994921,
    26.32499869907));
#637 = CARTESIAN_POINT('',(18.6,2.869718351839E-13,26.999999999999));
#638 = CARTESIAN_POINT('',(18.599999999999,8.76504486834,27.675002714876
    ));
#639 = CARTESIAN_POINT('',(14.010992085441,17.530350050869,
    28.34999240304));
#640 = CARTESIAN_POINT('',(4.829645056924,23.590223254764,
    29.025013288116));
#641 = CARTESIAN_POINT('',(-7.108700759454,24.251286800108,
    29.699989292715));
#642 = CARTESIAN_POINT('',(-18.21249915376,18.21249919612,
    30.375000241438));
#643 = CARTESIAN_POINT('',(-24.25128678362,7.108700815777,
    31.050011189906));
#644 = CARTESIAN_POINT('',(-23.59022326596,-4.829645002101,
    31.72498719472));
#645 = CARTESIAN_POINT('',(-17.53035008343,-14.01099204471,
    32.400008079644));
#646 = CARTESIAN_POINT('',(-8.765044911557,-18.59999997963,
    33.074997767898));
#647 = CARTESIAN_POINT('',(-4.32161941788E-08,-18.6,33.750000482732));
#648 = CARTESIAN_POINT('',(8.765044951705,-18.59999999568,
    34.425001831937));
#649 = CARTESIAN_POINT('',(17.530349923278,-14.01099210395,
    35.09999362133));
#650 = CARTESIAN_POINT('',(23.59022341333,-4.829645009095,
    35.775012051376));
#651 = CARTESIAN_POINT('',(24.251286638624,7.108700668874,
    36.449990084432));
#652 = CARTESIAN_POINT('',(18.212499330696,18.212499288292,
    37.125000241084));
#653 = CARTESIAN_POINT('',(7.108700725156,24.251286622192,
    37.800010398819));
#654 = CARTESIAN_POINT('',(-4.829644954247,23.590223424492,
    38.474988431023));
#655 = CARTESIAN_POINT('',(-14.01099206323,17.530349955861,
    39.150006861574));
#656 = CARTESIAN_POINT('',(-18.59999997531,8.765044994916,
    39.824998650772));
#657 = CARTESIAN_POINT('',(-18.6,-4.601458103437E-13,40.499999999992));
#658 = CARTESIAN_POINT('',(-18.59999999567,-8.765044868337,
    41.175002763158));
#659 = CARTESIAN_POINT('',(-14.01099210396,-17.53035005087,
    41.849992196107));
#660 = CARTESIAN_POINT('',(-4.829645009072,-23.59022325474,
    42.525013822518));
#661 = CARTESIAN_POINT('',(7.108700668834,-24.25128680013,
    43.199988280794));
#662 = CARTESIAN_POINT('',(18.212499288341,-18.21249919609,
    43.875001744174));
#663 = CARTESIAN_POINT('',(24.251286622144,-7.108700815801,
    44.550009386619));
#664 = CARTESIAN_POINT('',(23.590223424528,4.829645002115,45.22498896559
    ));
#665 = CARTESIAN_POINT('',(17.530349955842,14.010992044705,
    45.900006654581));
#666 = CARTESIAN_POINT('',(8.765044994921,18.599999979635,
    46.574998699052));
#667 = CARTESIAN_POINT('',(6.157296894571E-13,18.6,47.250000000007));
#668 = CARTESIAN_POINT('',(-8.765044868342,18.6,47.925002714846));
#669 = CARTESIAN_POINT('',(-17.53035005086,14.010992085439,
    48.599992403111));
#670 = CARTESIAN_POINT('',(-23.59022325477,4.829645056927,
    49.275013287985));
#671 = CARTESIAN_POINT('',(-24.25128680009,-7.108700759458,
    49.949989292909));
#672 = CARTESIAN_POINT('',(-18.21249919613,-18.21249915376,
    50.625000241205));
#673 = CARTESIAN_POINT('',(-7.108700815764,-24.25128678363,
    51.300011190134));
#674 = CARTESIAN_POINT('',(4.829645002094,-23.59022326595,
    51.974987194539));
#675 = CARTESIAN_POINT('',(14.010992044713,-17.53035008344,
    52.65000807976));
#676 = CARTESIAN_POINT('',(18.599999979633,-8.765044911552,
    53.324997767839));
#677 = CARTESIAN_POINT('',(18.6,-4.321859523732E-08,54.000000482753));
#678 = DEFINITIONAL_REPRESENTATION('',(#679),#682);
#679 = B_SPLINE_CURVE_WITH_KNOTS('',1,(#680,#681),.UNSPECIFIED.,.F.,.F.,
  (2,2),(0.,65.857596629067),.PIECEWISE_BEZIER_KNOTS.);
#680 = CARTESIAN_POINT('',(6.28318530718,0.));
#681 = CARTESIAN_POINT('',(6.28318530718,65.857596629067));
#682 = ( GEOMETRIC_REPRESENTATION_CONTEXT(2) 
PARAMETRIC_REPRESENTATION_CONTEXT() REPRESENTATION_CONTEXT('2D SPACE',''
  ) );
#683 = PCURVE('',#110,#684);
#684 = DEFINITIONAL_REPRESENTATION('',(#685),#689);
#685 = LINE('',#686,#687);
#686 = CARTESIAN_POINT('',(0.,0.));
#687 = VECTOR('',#688,1.);
#688 = DIRECTION('',(0.,1.));
#689 = ( GEOMETRIC_REPRESENTATION_CONTEXT(2) 
PARAMETRIC_REPRESENTATION_CONTEXT() REPRESENTATION_CONTEXT('2D SPACE',''
  ) );
#690 = ORIENTED_EDGE('',*,*,#691,.F.);
#691 = EDGE_CURVE('',#24,#24,#692,.T.);
#692 = SURFACE_CURVE('',#693,(#701,#708),.PCURVE_S1.);
#693 = ( BOUNDED_CURVE() B_SPLINE_CURVE(6,(#694,#695,#696,#697,#698,#699
,#700),.UNSPECIFIED.,.T.,.F.) B_SPLINE_CURVE_WITH_KNOTS((1,6,6,1),(
    -6.28318530718,0.,6.28318530718,12.566370614359),.UNSPECIFIED.) 
CURVE() GEOMETRIC_REPRESENTATION_ITEM() RATIONAL_B_SPLINE_CURVE((
    1.669078461068,1.03672962321,1.038346699848,0.853534330196,
1.038346699848,1.03672962321,1.669078461068)) REPRESENTATION_ITEM('') );
#694 = CARTESIAN_POINT('',(18.6,-4.321859523732E-08,54.000000482753));
#695 = CARTESIAN_POINT('',(18.599999197885,-4.321748488939E-08,
    58.320012479238));
#696 = CARTESIAN_POINT('',(13.25817378729,4.557728359306E-08,
    58.940291687352));
#697 = CARTESIAN_POINT('',(8.852296005378,1.188128014029E-07,
    53.999998672855));
#698 = CARTESIAN_POINT('',(13.25817562186,4.557470204003E-08,
    49.059707294475));
#699 = CARTESIAN_POINT('',(18.600000802115,-4.321971915772E-08,
    49.679988486268));
#700 = CARTESIAN_POINT('',(18.6,-4.321859523732E-08,54.000000482753));
#701 = PCURVE('',#110,#702);
#702 = DEFINITIONAL_REPRESENTATION('',(#703),#707);
#703 = LINE('',#704,#705);
#704 = CARTESIAN_POINT('',(0.,65.857596629067));
#705 = VECTOR('',#706,1.);
#706 = DIRECTION('',(1.,0.));
#707 = ( GEOMETRIC_REPRESENTATION_CONTEXT(2) 
PARAMETRIC_REPRESENTATION_CONTEXT() REPRESENTATION_CONTEXT('2D SPACE',''
  ) );
#708 = PCURVE('',#709,#714);
#709 = PLANE('',#710);
#710 = AXIS2_PLACEMENT_3D('',#711,#712,#713);
#711 = CARTESIAN_POINT('',(16.000411900411,-6.895270914733E-12,
    54.000000000076));
#712 = DIRECTION('',(-1.662251857273E-08,-1.,2.56700528768E-13));
#713 = DIRECTION('',(-1.,1.662251857273E-08,0.));
#714 = DEFINITIONAL_REPRESENTATION('',(#715),#723);
#715 = ( BOUNDED_CURVE() B_SPLINE_CURVE(6,(#716,#717,#718,#719,#720,#721
,#722),.UNSPECIFIED.,.T.,.F.) B_SPLINE_CURVE_WITH_KNOTS((1,6,6,1),(
    -6.28318530718,0.,6.28318530718,12.566370614359),.UNSPECIFIED.) 
CURVE() GEOMETRIC_REPRESENTATION_ITEM() RATIONAL_B_SPLINE_CURVE((
    1.669078461068,1.03672962321,1.038346699848,0.853534330196,
1.038346699848,1.03672962321,1.669078461068)) REPRESENTATION_ITEM('') );
#716 = CARTESIAN_POINT('',(-2.599588099589,-4.826767252553E-07));
#717 = CARTESIAN_POINT('',(-2.599587297474,-4.320012479161));
#718 = CARTESIAN_POINT('',(2.742238113121,-4.940291687276));
#719 = CARTESIAN_POINT('',(7.148115895033,1.327221241354E-06));
#720 = CARTESIAN_POINT('',(2.742236278551,4.940292705601));
#721 = CARTESIAN_POINT('',(-2.599588901704,4.320011513808));
#722 = CARTESIAN_POINT('',(-2.599588099589,-4.826767252553E-07));
#723 = ( GEOMETRIC_REPRESENTATION_CONTEXT(2) 
PARAMETRIC_REPRESENTATION_CONTEXT() REPRESENTATION_CONTEXT('2D SPACE',''
  ) );
#724 = ORIENTED_EDGE('',*,*,#21,.F.);
#725 = ORIENTED_EDGE('',*,*,#726,.T.);
#726 = EDGE_CURVE('',#22,#22,#727,.T.);
#727 = SURFACE_CURVE('',#728,(#736,#743),.PCURVE_S1.);
#728 = ( BOUNDED_CURVE() B_SPLINE_CURVE(6,(#729,#730,#731,#732,#733,#734
,#735),.UNSPECIFIED.,.T.,.F.) B_SPLINE_CURVE_WITH_KNOTS((1,6,6,1),(
    -6.28318530718,0.,6.28318530718,12.566370614359),.UNSPECIFIED.) 
CURVE() GEOMETRIC_REPRESENTATION_ITEM() RATIONAL_B_SPLINE_CURVE((
    1.669078461068,1.03672962321,1.038346699848,0.853534330196,
1.038346699848,1.03672962321,1.669078461068)) REPRESENTATION_ITEM('') );
#729 = CARTESIAN_POINT('',(18.6,-3.816391647149E-16,3.552713678801E-15)
  );
#730 = CARTESIAN_POINT('',(18.6,-9.311995619044E-15,4.320011996485));
#731 = CARTESIAN_POINT('',(13.258174704575,-1.817990202824E-15,
    4.940292196439));
#732 = CARTESIAN_POINT('',(8.852296005378,-4.420075416789E-15,
    3.552713678801E-15));
#733 = CARTESIAN_POINT('',(13.258174704575,-1.040140196196E-14,
    -4.940292196439));
#734 = CARTESIAN_POINT('',(18.6,-2.126770981548E-14,-4.320011996485));
#735 = CARTESIAN_POINT('',(18.6,-3.816391647149E-16,3.552713678801E-15)
  );
#736 = PCURVE('',#110,#737);
#737 = DEFINITIONAL_REPRESENTATION('',(#738),#742);
#738 = LINE('',#739,#740);
#739 = CARTESIAN_POINT('',(0.,0.));
#740 = VECTOR('',#741,1.);
#741 = DIRECTION('',(1.,0.));
#742 = ( GEOMETRIC_REPRESENTATION_CONTEXT(2) 
PARAMETRIC_REPRESENTATION_CONTEXT() REPRESENTATION_CONTEXT('2D SPACE',''
  ) );
#743 = PCURVE('',#744,#749);
#744 = PLANE('',#745);
#745 = AXIS2_PLACEMENT_3D('',#746,#747,#748);
#746 = CARTESIAN_POINT('',(16.000411900411,-5.950870542555E-15,
    -2.608136071967E-15));
#747 = DIRECTION('',(9.897161620934E-16,-1.,1.15474377397E-15));
#748 = DIRECTION('',(0.,-1.15474377397E-15,-1.));
#749 = DEFINITIONAL_REPRESENTATION('',(#750),#758);
#750 = ( BOUNDED_CURVE() B_SPLINE_CURVE(6,(#751,#752,#753,#754,#755,#756
,#757),.UNSPECIFIED.,.T.,.F.) B_SPLINE_CURVE_WITH_KNOTS((1,6,6,1),(
    -6.28318530718,0.,6.28318530718,12.566370614359),.UNSPECIFIED.) 
CURVE() GEOMETRIC_REPRESENTATION_ITEM() RATIONAL_B_SPLINE_CURVE((
    1.669078461068,1.03672962321,1.038346699848,0.853534330196,
1.038346699848,1.03672962321,1.669078461068)) REPRESENTATION_ITEM('') );
#751 = CARTESIAN_POINT('',(-6.160849750767E-15,2.599588099589));
#752 = CARTESIAN_POINT('',(-4.320011996485,2.599588099589));
#753 = CARTESIAN_POINT('',(-4.940292196439,-2.742237195836));
#754 = CARTESIAN_POINT('',(-6.160849750767E-15,-7.148115895033));
#755 = CARTESIAN_POINT('',(4.940292196439,-2.742237195836));
#756 = CARTESIAN_POINT('',(4.320011996485,2.599588099589));
#757 = CARTESIAN_POINT('',(-6.160849750767E-15,2.599588099589));
#758 = ( GEOMETRIC_REPRESENTATION_CONTEXT(2) 
PARAMETRIC_REPRESENTATION_CONTEXT() REPRESENTATION_CONTEXT('2D SPACE',''
  ) );
#759 = ADVANCED_FACE('',(#760),#744,.T.);
#760 = FACE_BOUND('',#761,.T.);
#761 = EDGE_LOOP('',(#762));
#762 = ORIENTED_EDGE('',*,*,#726,.T.);
#763 = ADVANCED_FACE('',(#764),#709,.F.);
#764 = FACE_BOUND('',#765,.F.);
#765 = EDGE_LOOP('',(#766));
#766 = ORIENTED_EDGE('',*,*,#691,.T.);
#767 = ( GEOMETRIC_REPRESENTATION_CONTEXT(3) 
GLOBAL_UNCERTAINTY_ASSIGNED_CONTEXT((#771)) GLOBAL_UNIT_ASSIGNED_CONTEXT
((#768,#769,#770)) REPRESENTATION_CONTEXT('Context #1',
  '3D Context with UNIT and UNCERTAINTY') );
#768 = ( LENGTH_UNIT() NAMED_UNIT(*) SI_UNIT(.MILLI.,.METRE.) );
#769 = ( NAMED_UNIT(*) PLANE_ANGLE_UNIT() SI_UNIT($,.RADIAN.) );
#770 = ( NAMED_UNIT(*) SI_UNIT($,.STERADIAN.) SOLID_ANGLE_UNIT() );
#771 = UNCERTAINTY_MEASURE_WITH_UNIT(LENGTH_MEASURE(1.E-05),#768,
  'distance_accuracy_value','confusion accuracy');
#772 = PRODUCT_RELATED_PRODUCT_CATEGORY('part',$,(#7));
ENDSEC;
END-ISO-10303-21;
